<svg width="1140" height="1197" xmlns="http://www.w3.org/2000/svg" xmlns:xlink="http://www.w3.org/1999/xlink" overflow="hidden"><defs><clipPath id="clip0"><rect x="1264" y="364" width="1140" height="1197"/></clipPath></defs><g clip-path="url(#clip0)" transform="translate(-1264 -364)"><path d="M1873 1044 2136.91 1475.02" stroke="#0D0D0D" stroke-width="27.5" stroke-miterlimit="8" fill="none" fill-rule="evenodd"/><path d="M0 0 204.924 431.024" stroke="#000000" stroke-width="27.5" stroke-miterlimit="8" fill="none" fill-rule="evenodd" transform="matrix(-1 0 0 1 1802.92 997)"/><path d="M1928 602 2170.17 864.956" stroke="#0D0D0D" stroke-width="27.5" stroke-miterlimit="8" fill="none" fill-rule="evenodd"/><path d="M1833 642 1833 824.263" stroke="#000000" stroke-width="27.5" stroke-miterlimit="8" fill="none" fill-rule="evenodd"/><path d="M0 0 242.17 266.083" stroke="#000000" stroke-width="27.5" stroke-miterlimit="8" fill="none" fill-rule="evenodd" transform="matrix(-1 0 0 1 1738.17 602)"/><path d="M1833.5 642.5 1833.5 824.763" stroke="#85B44D" stroke-width="20.625" stroke-miterlimit="8" fill="none" fill-rule="evenodd"/><path d="M0 0 242.17 266.083" stroke="#938EE0" stroke-width="20.625" stroke-miterlimit="8" fill="none" fill-rule="evenodd" transform="matrix(-1 0 0 1 1738.67 602.5)"/><path d="M1928.5 602.5 2170.67 865.456" stroke="#00BD7E" stroke-width="20.625" stroke-miterlimit="8" fill="none" fill-rule="evenodd"/><path d="M1839.5 989.5 2103.41 1420.52" stroke="#4AC4E2" stroke-width="20.625" stroke-miterlimit="8" fill="none" fill-rule="evenodd"/><path d="M0 0 204.924 431.024" stroke="#E54400" stroke-width="20.625" stroke-miterlimit="8" fill="none" fill-rule="evenodd" transform="matrix(-1 0 0 1 1808.42 989.5)"/><path d="M1698.5 504.5C1698.5 428.285 1758.94 366.5 1833.5 366.5 1908.06 366.5 1968.5 428.285 1968.5 504.5 1968.5 580.715 1908.06 642.5 1833.5 642.5 1758.94 642.5 1698.5 580.715 1698.5 504.5Z" stroke="#0D0D0D" stroke-width="4.58333" stroke-miterlimit="8" fill="#FFCF0A" fill-rule="evenodd"/><path d="M1266.5 965.5C1266.5 889.285 1326.72 827.5 1401 827.5 1475.28 827.5 1535.5 889.285 1535.5 965.5 1535.5 1041.72 1475.28 1103.5 1401 1103.5 1326.72 1103.5 1266.5 1041.72 1266.5 965.5Z" stroke="#0D0D0D" stroke-width="4.58333" stroke-miterlimit="8" fill="#938EE0" fill-rule="evenodd"/><path d="M1698.5 962.5C1698.5 886.285 1758.94 824.5 1833.5 824.5 1908.06 824.5 1968.5 886.285 1968.5 962.5 1968.5 1038.72 1908.06 1100.5 1833.5 1100.5 1758.94 1100.5 1698.5 1038.72 1698.5 962.5Z" stroke="#0D0D0D" stroke-width="4.58333" stroke-miterlimit="8" fill="#85B44D" fill-rule="evenodd"/><path d="M2131.5 962.5C2131.5 886.285 2191.94 824.5 2266.5 824.5 2341.06 824.5 2401.5 886.285 2401.5 962.5 2401.5 1038.72 2341.06 1100.5 2266.5 1100.5 2191.94 1100.5 2131.5 1038.72 2131.5 962.5Z" stroke="#0D0D0D" stroke-width="4.58333" stroke-miterlimit="8" fill="#00BD7E" fill-rule="evenodd"/><path d="M1429.5 1420.5C1429.5 1344.28 1489.72 1282.5 1564 1282.5 1638.28 1282.5 1698.5 1344.28 1698.5 1420.5 1698.5 1496.72 1638.28 1558.5 1564 1558.5 1489.72 1558.5 1429.5 1496.72 1429.5 1420.5Z" stroke="#0D0D0D" stroke-width="4.58333" stroke-miterlimit="8" fill="#E54400" fill-rule="evenodd"/><path d="M1969.5 1420.5C1969.5 1344.28 2029.72 1282.5 2104 1282.5 2178.28 1282.5 2238.5 1344.28 2238.5 1420.5 2238.5 1496.72 2178.28 1558.5 2104 1558.5 2029.72 1558.5 1969.5 1496.72 1969.5 1420.5Z" stroke="#0D0D0D" stroke-width="4.58333" stroke-miterlimit="8" fill="#4AC4E2" fill-rule="evenodd"/></g></svg>