<?xml version="1.0" standalone="no"?>
<!DOCTYPE svg PUBLIC "-//W3C//DTD SVG 20010904//EN"
 "http://www.w3.org/TR/2001/REC-SVG-20010904/DTD/svg10.dtd">
<svg version="1.0" xmlns="http://www.w3.org/2000/svg"
 width="2048.000000pt" height="2048.000000pt" viewBox="0 0 2048.000000 2048.000000"
 preserveAspectRatio="xMidYMid meet">
<metadata>
Created by potrace 1.14, written by Peter Selinger 2001-2017
</metadata>
<g transform="translate(0.000000,2048.000000) scale(0.100000,-0.100000)"
fill="#000000" stroke="none">
<path d="M10005 19668 c-36 -19 -55 -52 -55 -94 0 -42 94 -380 150 -539 47
-133 93 -221 219 -415 137 -211 200 -288 376 -459 75 -72 131 -131 123 -131
-18 0 -296 60 -485 105 -133 31 -287 57 -688 116 -113 17 -493 18 -860 2 -284
-13 -356 -22 -735 -99 -448 -90 -979 -283 -1314 -476 -112 -65 -799 -475 -971
-580 -130 -79 -346 -190 -451 -232 -141 -56 -654 -188 -743 -191 -64 -3 -77
-7 -102 -31 -22 -21 -29 -37 -29 -66 0 -55 37 -89 155 -141 150 -67 424 -164
512 -182 83 -18 355 -34 566 -35 70 0 127 -2 127 -5 0 -2 -30 -42 -67 -89
-110 -136 -283 -426 -365 -608 -64 -144 -120 -309 -162 -480 -146 -592 -166
-716 -173 -1038 -9 -431 32 -714 176 -1218 58 -201 84 -246 149 -258 39 -8 39
2 -7 -147 -48 -154 -59 -225 -76 -478 -16 -256 -18 -421 -6 -593 7 -102 9
-111 35 -132 32 -28 90 -32 122 -9 26 18 39 50 58 140 27 135 130 366 237 531
l59 91 113 6 c62 4 133 10 158 13 l45 6 32 -94 c63 -185 77 -326 88 -863 6
-326 5 -348 -20 -545 -34 -275 -46 -474 -46 -780 0 -352 22 -522 98 -754 40
-125 166 -380 246 -500 83 -124 348 -392 495 -501 188 -139 656 -419 816 -488
44 -19 145 -65 225 -102 141 -66 369 -162 597 -251 61 -24 225 -76 365 -114
139 -39 259 -73 266 -76 15 -5 -23 -79 -117 -227 -54 -84 -57 -88 -86 -82
-103 20 -151 24 -342 24 -182 1 -230 -2 -345 -23 -73 -13 -153 -27 -178 -31
-101 -15 -317 -77 -403 -116 -51 -22 -141 -61 -202 -86 -167 -68 -358 -162
-477 -235 -137 -84 -383 -265 -466 -343 -123 -114 -332 -390 -332 -439 0 -46
11 -45 -489 -26 -297 11 -486 14 -506 9 -41 -12 -50 -22 -81 -100 l-26 -64
-15 -1285 c-10 -819 -19 -1290 -26 -1298 -5 -7 -30 -21 -55 -32 -74 -33 -207
-127 -275 -193 -158 -157 -261 -338 -322 -569 -111 -422 -4 -867 272 -1129
268 -255 663 -300 978 -113 l60 36 45 -16 c25 -9 56 -13 70 -10 14 4 202 83
418 176 216 93 397 166 403 162 8 -5 9 -117 4 -383 -3 -207 -7 -392 -7 -412 0
-20 5 -46 11 -58 l12 -21 1849 0 1848 0 -30 31 c-17 17 -52 39 -77 49 -86 33
-207 95 -516 262 -49 27 -114 60 -142 74 -29 14 -53 32 -53 39 0 28 47 64 115
91 153 58 229 102 311 176 45 40 113 102 153 136 63 56 156 181 237 318 11 18
13 18 85 0 92 -23 232 -71 369 -126 104 -41 263 -85 725 -200 316 -79 497
-132 863 -251 167 -55 314 -99 328 -99 40 0 81 27 92 60 12 32 2 124 -18 159
-6 12 -32 27 -63 36 -55 17 -573 145 -669 166 -79 17 -81 19 -69 65 6 21 15
104 20 184 6 80 15 179 21 220 5 41 10 79 10 84 0 5 19 6 41 2 243 -39 1131
-33 1329 9 105 22 104 22 96 -27 -4 -24 -13 -113 -21 -198 -8 -85 -32 -243
-53 -350 -22 -107 -47 -253 -56 -325 -9 -71 -32 -226 -51 -343 -19 -118 -35
-220 -35 -228 0 -11 21 -14 108 -14 l107 0 28 168 c16 92 46 271 68 397 43
256 80 531 105 795 9 96 18 176 19 178 1 1 42 14 91 28 197 57 356 158 368
234 3 19 12 76 21 125 29 159 29 331 1 640 -14 154 -39 363 -56 465 -17 102
-37 230 -46 285 -42 264 -168 647 -409 1235 -101 248 -151 339 -344 629 -87
133 -339 414 -458 513 -120 100 -466 336 -546 373 -145 66 -433 145 -531 145
-40 0 -48 9 -70 78 -9 30 -55 144 -102 254 -47 110 -84 201 -82 203 2 2 48 12
103 23 422 83 624 129 747 168 189 61 451 164 552 217 222 118 706 404 901
535 215 144 270 188 446 360 l86 83 139 4 c216 6 313 41 419 149 33 34 86 99
117 146 73 108 180 349 213 482 15 57 46 164 70 238 24 74 62 199 84 278 37
135 44 150 127 280 220 345 403 707 493 977 121 362 203 743 235 1085 22 239
39 593 32 680 -37 450 -60 670 -90 841 -19 106 -44 259 -56 339 -30 204 -52
301 -131 569 -85 283 -113 367 -174 508 -116 266 -426 793 -605 1026 -41 54
-82 108 -90 119 l-15 21 100 -7 c55 -3 187 -11 294 -16 199 -10 548 -45 796
-80 179 -25 352 -30 388 -11 33 17 57 67 50 103 -7 39 -49 76 -92 84 -120 20
-176 36 -218 61 -74 43 -253 177 -413 307 -342 280 -945 735 -1135 857 -296
188 -608 331 -877 400 -226 57 -596 83 -883 60 -193 -15 -375 -38 -446 -57
-89 -22 -89 -22 -89 44 -1 113 -58 320 -117 422 -57 98 -206 243 -343 332
-254 166 -422 250 -837 419 -362 147 -795 359 -962 469 -134 89 -291 237 -362
341 -47 70 -97 93 -144 67z m3730 -6020 c15 -67 35 -208 44 -318 6 -69 21
-231 32 -360 18 -196 22 -336 26 -845 8 -946 -19 -1498 -93 -1905 -47 -261
-118 -607 -140 -689 -15 -55 -23 -104 -19 -119 3 -14 30 -47 58 -73 42 -39 59
-49 88 -49 47 0 69 18 161 132 95 117 139 183 229 344 39 71 95 161 124 199
55 73 218 333 256 407 12 24 46 83 77 133 30 49 77 135 104 190 28 55 82 153
120 218 76 130 115 166 201 192 116 35 203 7 307 -96 87 -88 107 -137 147
-367 33 -189 35 -207 35 -442 0 -175 -4 -269 -15 -331 -17 -93 -140 -547 -182
-669 -14 -41 -41 -131 -60 -200 -76 -283 -226 -553 -348 -625 -58 -34 -169
-49 -294 -41 l-102 7 -39 -35 c-22 -20 -45 -36 -51 -36 -7 0 -53 -40 -104 -88
-51 -48 -119 -112 -152 -142 -76 -69 -457 -323 -630 -420 -71 -41 -210 -120
-308 -177 -233 -135 -260 -148 -465 -227 -237 -91 -373 -130 -602 -176 -107
-22 -260 -53 -340 -69 -94 -20 -230 -37 -390 -51 -225 -19 -273 -20 -585 -10
-187 5 -374 14 -415 19 -41 5 -145 15 -230 21 -85 6 -276 31 -425 56 -148 24
-315 51 -369 60 -55 9 -163 34 -240 55 -405 113 -350 94 -766 267 -218 91
-496 217 -605 274 -104 54 -521 305 -597 359 -169 120 -228 173 -390 349 -120
131 -153 179 -247 363 -76 151 -120 272 -157 437 -25 108 -27 135 -31 450 -6
362 3 543 40 800 19 136 21 193 20 470 -4 617 -32 890 -105 1033 -11 22 -17
42 -14 45 4 3 57 11 119 18 102 11 694 135 812 169 28 9 182 60 343 116 162
55 296 98 299 96 7 -7 -138 -162 -259 -276 -146 -139 -172 -196 -116 -258 28
-30 70 -38 105 -19 21 10 47 13 91 9 34 -3 62 -8 62 -10 0 -2 -11 -25 -24 -51
-136 -269 -241 -908 -208 -1274 21 -237 57 -355 131 -430 60 -60 113 -71 190
-38 68 30 118 88 175 203 138 279 219 695 220 1132 0 253 -14 363 -60 464 -30
66 -30 79 -1 86 425 96 579 137 718 190 50 19 181 67 292 106 111 40 337 130
502 202 582 251 864 410 1300 735 61 45 113 82 117 82 13 0 -31 -100 -123
-279 -102 -198 -107 -224 -58 -273 l30 -31 97 6 c96 6 209 33 847 197 554 142
963 296 1340 505 159 88 191 109 347 226 72 54 135 99 140 99 4 0 10 -10 13
-22z m-4004 -6838 c215 -36 423 -59 844 -91 147 -12 832 -7 872 6 19 6 26 -1
56 -62 74 -146 207 -476 207 -513 0 -12 -36 -34 -117 -73 -191 -90 -385 -145
-648 -183 -150 -22 -542 -25 -685 -5 -333 46 -611 138 -815 271 -84 55 -218
183 -230 218 -5 16 10 46 58 119 99 150 167 274 174 316 4 28 10 37 25 37 11
0 127 -18 259 -40z m-2584 -2606 c-3 -3 -12 -4 -19 -1 -8 3 -5 6 6 6 11 1 17
-2 13 -5z m288 -9 c81 -13 230 -64 245 -83 3 -4 22 -18 42 -32 21 -14 38 -28
38 -31 0 -3 9 -14 19 -26 29 -31 50 -76 57 -124 4 -24 13 -69 20 -99 18 -70
20 -350 2 -350 -6 0 -9 -3 -5 -6 3 -4 -3 -24 -13 -45 -11 -21 -20 -42 -20 -48
0 -5 -25 -34 -55 -65 -30 -30 -55 -60 -55 -66 0 -6 -4 -9 -9 -6 -5 4 -33 -10
-62 -29 -29 -19 -86 -47 -128 -62 -68 -25 -89 -28 -196 -28 -106 0 -130 3
-205 29 -47 16 -87 32 -90 36 -3 4 -14 10 -25 14 -33 10 -93 72 -115 119 -12
24 -30 54 -40 65 -90 96 -84 326 13 515 17 34 30 65 29 70 -1 4 2 7 8 7 6 0
10 7 10 15 0 8 5 15 10 15 6 0 10 7 10 16 0 8 4 13 8 10 5 -3 15 7 23 22 18
34 24 41 83 86 58 44 101 63 181 81 79 18 113 18 220 0z m-2265 -1990 c0 -153
11 -189 67 -211 21 -8 56 -25 78 -37 39 -21 50 -22 403 -25 l364 -3 15 -36
c53 -127 57 -428 9 -603 -75 -269 -256 -503 -470 -609 -242 -120 -509 -85
-701 91 -170 156 -265 393 -265 664 0 296 106 560 306 757 56 56 166 137 185
137 5 0 9 -56 9 -125z m4824 -15 c372 -95 505 -450 327 -869 -218 -512 -854
-876 -1322 -756 -294 76 -450 328 -395 641 39 227 142 414 333 607 l86 87 219
0 c226 0 254 4 288 45 7 8 27 22 45 31 17 8 74 49 126 91 145 119 179 143 198
143 10 0 53 -9 95 -20z m-3237 -273 c1 -2 5 -185 9 -407 8 -434 9 -419 -41
-433 -11 -3 -74 -30 -140 -60 -66 -29 -133 -57 -148 -61 -16 -4 -81 -33 -146
-65 -65 -32 -134 -60 -153 -64 l-35 -5 14 41 c8 23 23 52 34 63 38 40 145 362
165 494 18 121 18 293 -1 395 -24 133 -50 119 212 111 125 -4 229 -8 230 -9z"/>
<path d="M11323 11915 c-137 -69 -243 -272 -332 -630 -66 -268 -91 -460 -98
-760 -4 -195 -2 -262 11 -355 28 -188 61 -282 123 -351 44 -49 86 -69 145 -69
99 0 187 80 267 244 160 325 251 833 238 1324 -7 256 -25 354 -89 473 -73 137
-159 178 -265 124z"/>
<path d="M14759 10225 c-45 -25 -51 -62 -27 -173 16 -69 22 -133 22 -222 1
-124 1 -126 -38 -215 -21 -50 -41 -113 -43 -141 -4 -47 -2 -53 27 -77 37 -32
64 -34 107 -7 36 22 89 122 125 239 21 69 27 78 82 120 187 146 229 196 210
250 -23 65 -107 63 -209 -6 -31 -20 -57 -34 -60 -32 -2 3 -11 40 -20 84 -22
108 -46 160 -84 179 -37 19 -58 20 -92 1z"/>
<path d="M8964 9840 c-63 -25 -94 -145 -76 -290 33 -265 200 -438 441 -457
235 -18 490 166 586 421 39 105 50 176 31 219 -21 52 -71 74 -120 53 -40 -17
-59 -49 -76 -128 -27 -136 -130 -272 -248 -330 -58 -29 -77 -33 -142 -33 -91
1 -138 22 -198 90 -63 72 -77 126 -74 278 l2 128 -29 30 c-30 29 -58 35 -97
19z"/>
<path d="M6898 3760 c-55 -43 -61 -130 -11 -170 35 -27 101 -27 136 0 54 43
52 134 -4 174 -32 22 -91 20 -121 -4z"/>
<path d="M7174 3438 c-36 -40 -41 -43 -85 -40 -38 3 -51 -1 -77 -23 -75 -63
-40 -195 52 -195 47 0 79 16 99 50 21 35 22 99 1 128 -14 21 -13 25 22 67 48
59 39 69 -12 13z"/>
</g>
</svg>
