<svg xmlns="http://www.w3.org/2000/svg" width="2730.6667" height="2730.6667" version="1.0" viewBox="0 0 2048 2048">
  <path d="M1000.5 81.2c-3.6 1.9-5.5 5.2-5.5 9.4s9.4 38 15 53.9c4.7 13.3 9.3 22.1 21.9 41.5 13.7 21.1 20 28.8 37.6 45.9 7.5 7.2 13.1 13.1 12.3 13.1-1.8 0-29.6-6-48.5-10.5-13.3-3.1-28.7-5.7-68.8-11.6-11.3-1.7-49.3-1.8-86-.2-28.4 1.3-35.6 2.2-73.5 9.9-44.8 9-97.9 28.3-131.4 47.6-11.2 6.5-79.9 47.5-97.1 58-13 7.9-34.6 19-45.1 23.2-14.1 5.6-65.4 18.8-74.3 19.1-6.4.3-7.7.7-10.2 3.1-2.2 2.1-2.9 3.7-2.9 6.6 0 5.5 3.7 8.9 15.5 14.1 15 6.7 42.4 16.4 51.2 18.2 8.3 1.8 35.5 3.4 56.6 3.5 7 0 12.7.2 12.7.5 0 .2-3 4.2-6.7 8.9-11 13.6-28.3 42.6-36.5 60.8-6.4 14.4-12 30.9-16.2 48C506 603.4 504 615.8 503.3 648c-.9 43.1 3.2 71.4 17.6 121.8 5.8 20.1 8.4 24.6 14.9 25.8 3.9.8 3.9-.2-.7 14.7-4.8 15.4-5.9 22.5-7.6 47.8-1.6 25.6-1.8 42.1-.6 59.3.7 10.2.9 11.1 3.5 13.2 3.2 2.8 9 3.2 12.2.9 2.6-1.8 3.9-5 5.8-14 2.7-13.5 13-36.6 23.7-53.1l5.9-9.1 11.3-.6c6.2-.4 13.3-1 15.8-1.3l4.5-.6 3.2 9.4c6.3 18.5 7.7 32.6 8.8 86.3.6 32.6.5 34.8-2 54.5-3.4 27.5-4.6 47.4-4.6 78 0 35.2 2.2 52.2 9.8 75.4 4 12.5 16.6 38 24.6 50 8.3 12.4 34.8 39.2 49.5 50.1 18.8 13.9 65.6 41.9 81.6 48.8 4.4 1.9 14.5 6.5 22.5 10.2 14.1 6.6 36.9 16.2 59.7 25.1 6.1 2.4 22.5 7.6 36.5 11.4 13.9 3.9 25.9 7.3 26.6 7.6 1.5.5-2.3 7.9-11.7 22.7-5.4 8.4-5.7 8.8-8.6 8.2-10.3-2-15.1-2.4-34.2-2.4-18.2-.1-23 .2-34.5 2.3-7.3 1.3-15.3 2.7-17.8 3.1-10.1 1.5-31.7 7.7-40.3 11.6-5.1 2.2-14.1 6.1-20.2 8.6-16.7 6.8-35.8 16.2-47.7 23.5-13.7 8.4-38.3 26.5-46.6 34.3-12.3 11.4-33.2 39-33.2 43.9 0 4.6 1.1 4.5-48.9 2.6-29.7-1.1-48.6-1.4-50.6-.9-4.1 1.2-5 2.2-8.1 10l-2.6 6.4-1.5 128.5c-1 81.9-1.9 129-2.6 129.8-.5.7-3 2.1-5.5 3.2-7.4 3.3-20.7 12.7-27.5 19.3-15.8 15.7-26.1 33.8-32.2 56.9-11.1 42.2-.4 86.7 27.2 112.9 26.8 25.5 66.3 30 97.8 11.3l6-3.6 4.5 1.6c2.5.9 5.6 1.3 7 1 1.4-.4 20.2-8.3 41.8-17.6 21.6-9.3 39.7-16.6 40.3-16.2.8.5.9 11.7.4 38.3-.3 20.7-.7 39.2-.7 41.2s.5 4.6 1.1 5.8l1.2 2.1H1047.8l-3-3.1c-1.7-1.7-5.2-3.9-7.7-4.9-8.6-3.3-20.7-9.5-51.6-26.2-4.9-2.7-11.4-6-14.2-7.4-2.9-1.4-5.3-3.2-5.3-3.9 0-2.8 4.7-6.4 11.5-9.1 15.3-5.8 22.9-10.2 31.1-17.6 4.5-4 11.3-10.2 15.3-13.6 6.3-5.6 15.6-18.1 23.7-31.8 1.1-1.8 1.3-1.8 8.5 0 9.2 2.3 23.2 7.1 36.9 12.6 10.4 4.1 26.3 8.5 72.5 20 31.6 7.9 49.7 13.2 86.3 25.1 16.7 5.5 31.4 9.9 32.8 9.9 4 0 8.1-2.7 9.2-6 1.2-3.2.2-12.4-1.8-15.9-.6-1.2-3.2-2.7-6.3-3.6-5.5-1.7-57.3-14.5-66.9-16.6-7.9-1.7-8.1-1.9-6.9-6.5.6-2.1 1.5-10.4 2-18.4.6-8 1.5-17.9 2.1-22 .5-4.1 1-7.9 1-8.4s1.9-.6 4.1-.2c24.3 3.9 113.1 3.3 132.9-.9 10.5-2.2 10.4-2.2 9.6 2.7-.4 2.4-1.3 11.3-2.1 19.8s-3.2 24.3-5.3 35c-2.2 10.7-4.7 25.3-5.6 32.5-.9 7.1-3.2 22.6-5.1 34.3-1.9 11.8-3.5 22-3.5 22.8 0 1.1 2.1 1.4 10.8 1.4h10.7l2.8-16.8c1.6-9.2 4.6-27.1 6.8-39.7 4.3-25.6 8-53.1 10.5-79.5.9-9.6 1.8-17.6 1.9-17.8.1-.1 4.2-1.4 9.1-2.8 19.7-5.7 35.6-15.8 36.8-23.4.3-1.9 1.2-7.6 2.1-12.5 2.9-15.9 2.9-33.1.1-64-1.4-15.4-3.9-36.3-5.6-46.5-1.7-10.2-3.7-23-4.6-28.5-4.2-26.4-16.8-64.7-40.9-123.5-10.1-24.8-15.1-33.9-34.4-62.9-8.7-13.3-33.9-41.4-45.8-51.3-12-10-46.6-33.6-54.6-37.3-14.5-6.6-43.3-14.5-53.1-14.5-4 0-4.8-.9-7-7.8-.9-3-5.5-14.4-10.2-25.4-4.7-11-8.4-20.1-8.2-20.3.2-.2 4.8-1.2 10.3-2.3 42.2-8.3 62.4-12.9 74.7-16.8 18.9-6.1 45.1-16.4 55.2-21.7 22.2-11.8 70.6-40.4 90.1-53.5 21.5-14.4 27-18.8 44.6-36l8.6-8.3 13.9-.4c21.6-.6 31.3-4.1 41.9-14.9 3.3-3.4 8.6-9.9 11.7-14.6 7.3-10.8 18-34.9 21.3-48.2 1.5-5.7 4.6-16.4 7-23.8 2.4-7.4 6.2-19.9 8.4-27.8 3.7-13.5 4.4-15 12.7-28 22-34.5 40.3-70.7 49.3-97.7 12.1-36.2 20.3-74.3 23.5-108.5 2.2-23.9 3.9-59.3 3.2-68-3.7-45-6-67-9-84.1-1.9-10.6-4.4-25.9-5.6-33.9-3-20.4-5.2-30.1-13.1-56.9-8.5-28.3-11.3-36.7-17.4-50.8-11.6-26.6-42.6-79.3-60.5-102.6-4.1-5.4-8.2-10.8-9-11.9l-1.5-2.1 10 .7c5.5.3 18.7 1.1 29.4 1.6 19.9 1 54.8 4.5 79.6 8 17.9 2.5 35.2 3 38.8 1.1 3.3-1.7 5.7-6.7 5-10.3-.7-3.9-4.9-7.6-9.2-8.4-12-2-17.6-3.6-21.8-6.1-7.4-4.3-25.3-17.7-41.3-30.7-34.2-28-94.5-73.5-113.5-85.7-29.6-18.8-60.8-33.1-87.7-40-22.6-5.7-59.6-8.3-88.3-6-19.3 1.5-37.5 3.8-44.6 5.7-8.9 2.2-8.9 2.2-8.9-4.4-.1-11.3-5.8-32-11.7-42.2-5.7-9.8-20.6-24.3-34.3-33.2-25.4-16.6-42.2-25-83.7-41.9-36.2-14.7-79.5-35.9-96.2-46.9-13.4-8.9-29.1-23.7-36.2-34.1-4.7-7-9.7-9.3-14.4-6.7zm373 602c1.5 6.7 3.5 20.8 4.4 31.8.6 6.9 2.1 23.1 3.2 36 1.8 19.6 2.2 33.6 2.6 84.5.8 94.6-1.9 149.8-9.3 190.5-4.7 26.1-11.8 60.7-14 68.9-1.5 5.5-2.3 10.4-1.9 11.9.3 1.4 3 4.7 5.8 7.3 4.2 3.9 5.9 4.9 8.8 4.9 4.7 0 6.9-1.8 16.1-13.2 9.5-11.7 13.9-18.3 22.9-34.4 3.9-7.1 9.5-16.1 12.4-19.9 5.5-7.3 21.8-33.3 25.6-40.7 1.2-2.4 4.6-8.3 7.7-13.3 3-4.9 7.7-13.5 10.4-19 2.8-5.5 8.2-15.3 12-21.8 7.6-13 11.5-16.6 20.1-19.2 11.6-3.5 20.3-.7 30.7 9.6 8.7 8.8 10.7 13.7 14.7 36.7 3.3 18.9 3.5 20.7 3.5 44.2 0 17.5-.4 26.9-1.5 33.1-1.7 9.3-14 54.7-18.2 66.9-1.4 4.1-4.1 13.1-6 20-7.6 28.3-22.6 55.3-34.8 62.5-5.8 3.4-16.9 4.9-29.4 4.1l-10.2-.7-3.9 3.5c-2.2 2-4.5 3.6-5.1 3.6-.7 0-5.3 4-10.4 8.8-5.1 4.8-11.9 11.2-15.2 14.2-7.6 6.9-45.7 32.3-63 42-7.1 4.1-21 12-30.8 17.7-23.3 13.5-26 14.8-46.5 22.7-23.7 9.1-37.3 13-60.2 17.6-10.7 2.2-26 5.3-34 6.9-9.4 2-23 3.7-39 5.1-22.5 1.9-27.3 2-58.5 1-18.7-.5-37.4-1.4-41.5-1.9-4.1-.5-14.5-1.5-23-2.1-8.5-.6-27.6-3.1-42.5-5.6-14.8-2.4-31.5-5.1-36.9-6-5.5-.9-16.3-3.4-24-5.5-40.5-11.3-35-9.4-76.6-26.7-21.8-9.1-49.6-21.7-60.5-27.4-10.4-5.4-52.1-30.5-59.7-35.9-16.9-12-22.8-17.3-39-34.9-12-13.1-15.3-17.9-24.7-36.3-7.6-15.1-12-27.2-15.7-43.7-2.5-10.8-2.7-13.5-3.1-45-.6-36.2.3-54.3 4-80 1.9-13.6 2.1-19.3 2-47-.4-61.7-3.2-89-10.5-103.3-1.1-2.2-1.7-4.2-1.4-4.5.4-.3 5.7-1.1 11.9-1.8 10.2-1.1 69.4-13.5 81.2-16.9 2.8-.9 18.2-6 34.3-11.6 16.2-5.5 29.6-9.8 29.9-9.6.7.7-13.8 16.2-25.9 27.6-14.6 13.9-17.2 19.6-11.6 25.8 2.8 3 7 3.8 10.5 1.9 2.1-1 4.7-1.3 9.1-.9 3.4.3 6.2.8 6.2 1 0 .2-1.1 2.5-2.4 5.1-13.6 26.9-24.1 90.8-20.8 127.4 2.1 23.7 5.7 35.5 13.1 43 6 6 11.3 7.1 19 3.8 6.8-3 11.8-8.8 17.5-20.3 13.8-27.9 21.9-69.5 22-113.2 0-25.3-1.4-36.3-6-46.4-3-6.6-3-7.9-.1-8.6 42.5-9.6 57.9-13.7 71.8-19 5-1.9 18.1-6.7 29.2-10.6 11.1-4 33.7-13 50.2-20.2 58.2-25.1 86.4-41 130-73.5 6.1-4.5 11.3-8.2 11.7-8.2 1.3 0-3.1 10-12.3 27.9-10.2 19.8-10.7 22.4-5.8 27.3l3 3.1 9.7-.6c9.6-.6 20.9-3.3 84.7-19.7 55.4-14.2 96.3-29.6 134-50.5 15.9-8.8 19.1-10.9 34.7-22.6 7.2-5.4 13.5-9.9 14-9.9.4 0 1 1 1.3 2.2zM973.1 1367c21.5 3.6 42.3 5.9 84.4 9.1 14.7 1.2 83.2.7 87.2-.6 1.9-.6 2.6.1 5.6 6.2 7.4 14.6 20.7 47.6 20.7 51.3 0 1.2-3.6 3.4-11.7 7.3-19.1 9-38.5 14.5-64.8 18.3-15 2.2-54.2 2.5-68.5.5-33.3-4.6-61.1-13.8-81.5-27.1-8.4-5.5-21.8-18.3-23-21.8-.5-1.6 1-4.6 5.8-11.9 9.9-15 16.7-27.4 17.4-31.6.4-2.8 1-3.7 2.5-3.7 1.1 0 12.7 1.8 25.9 4zm-258.4 260.6c-.3.3-1.2.4-1.9.1-.8-.3-.5-.6.6-.6 1.1-.1 1.7.2 1.3.5zm28.8.9c8.1 1.3 23 6.4 24.5 8.3.3.4 2.2 1.8 4.2 3.2 2.1 1.4 3.8 2.8 3.8 3.1 0 .3.9 1.4 1.9 2.6 2.9 3.1 5 7.6 5.7 12.4.4 2.4 1.3 6.9 2 9.9 1.8 7 2 35 .2 35-.6 0-.9.3-.5.6.3.4-.3 2.4-1.3 4.5-1.1 2.1-2 4.2-2 4.8 0 .5-2.5 3.4-5.5 6.5-3 3-5.5 6-5.5 6.6 0 .6-.4.9-.9.6-.5-.4-3.3 1-6.2 2.9-2.9 1.9-8.6 4.7-12.8 6.2-6.8 2.5-8.9 2.8-19.6 2.8-10.6 0-13-.3-20.5-2.9-4.7-1.6-8.7-3.2-9-3.6-.3-.4-1.4-1-2.5-1.4-3.3-1-9.3-7.2-11.5-11.9-1.2-2.4-3-5.4-4-6.5-9-9.6-8.4-32.6 1.3-51.5 1.7-3.4 3-6.5 2.9-7-.1-.4.2-.7.8-.7.6 0 1-.7 1-1.5s.5-1.5 1-1.5c.6 0 1-.7 1-1.6 0-.8.4-1.3.8-1 .5.3 1.5-.7 2.3-2.2 1.8-3.4 2.4-4.1 8.3-8.6 5.8-4.4 10.1-6.3 18.1-8.1 7.9-1.8 11.3-1.8 22 0zm-226.5 199c0 15.3 1.1 18.9 6.7 21.1 2.1.8 5.6 2.5 7.8 3.7 3.9 2.1 5 2.2 40.3 2.5l36.4.3 1.5 3.6c5.3 12.7 5.7 42.8.9 60.3-7.5 26.9-25.6 50.3-47 60.9-24.2 12-50.9 8.5-70.1-9.1-17-15.6-26.5-39.3-26.5-66.4 0-29.6 10.6-56 30.6-75.7 5.6-5.6 16.6-13.7 18.5-13.7.5 0 .9 5.6.9 12.5zm482.4 1.5c37.2 9.5 50.5 45 32.7 86.9-21.8 51.2-85.4 87.6-132.2 75.6-29.4-7.6-45-32.8-39.5-64.1 3.9-22.7 14.2-41.4 33.3-60.7l8.6-8.7h21.9c22.6 0 25.4-.4 28.8-4.5.7-.8 2.7-2.2 4.5-3.1 1.7-.8 7.4-4.9 12.6-9.1 14.5-11.9 17.9-14.3 19.8-14.3 1 0 5.3.9 9.5 2zm-323.7 27.3c.1.2.5 18.5.9 40.7.8 43.4.9 41.9-4.1 43.3-1.1.3-7.4 3-14 6-6.6 2.9-13.3 5.7-14.8 6.1-1.6.4-8.1 3.3-14.6 6.5s-13.4 6-15.3 6.4l-3.5.5 1.4-4.1c.8-2.3 2.3-5.2 3.4-6.3 3.8-4 14.5-36.2 16.5-49.4 1.8-12.1 1.8-29.3-.1-39.5-2.4-13.3-5-11.9 21.2-11.1 12.5.4 22.9.8 23 .9z"/>
  <path d="M1132.3 856.5c-13.7 6.9-24.3 27.2-33.2 63-6.6 26.8-9.1 46-9.8 76-.4 19.5-.2 26.2 1.1 35.5 2.8 18.8 6.1 28.2 12.3 35.1 4.4 4.9 8.6 6.9 14.5 6.9 9.9 0 18.7-8 26.7-24.4 16-32.5 25.1-83.3 23.8-132.4-.7-25.6-2.5-35.4-8.9-47.3-7.3-13.7-15.9-17.8-26.5-12.4zM1475.9 1025.5c-4.5 2.5-5.1 6.2-2.7 17.3 1.6 6.9 2.2 13.3 2.2 22.2.1 12.4.1 12.6-3.8 21.5-2.1 5-4.1 11.3-4.3 14.1-.4 4.7-.2 5.3 2.7 7.7 3.7 3.2 6.4 3.4 10.7.7 3.6-2.2 8.9-12.2 12.5-23.9 2.1-6.9 2.7-7.8 8.2-12 18.7-14.6 22.9-19.6 21-25-2.3-6.5-10.7-6.3-20.9.6-3.1 2-5.7 3.4-6 3.2-.2-.3-1.1-4-2-8.4-2.2-10.8-4.6-16-8.4-17.9-3.7-1.9-5.8-2-9.2-.1zM896.4 1064c-6.3 2.5-9.4 14.5-7.6 29 3.3 26.5 20 43.8 44.1 45.7 23.5 1.8 49-16.6 58.6-42.1 3.9-10.5 5-17.6 3.1-21.9-2.1-5.2-7.1-7.4-12-5.3-4 1.7-5.9 4.9-7.6 12.8-2.7 13.6-13 27.2-24.8 33-5.8 2.9-7.7 3.3-14.2 3.3-9.1-.1-13.8-2.2-19.8-9-6.3-7.2-7.7-12.6-7.4-27.8l.2-12.8-2.9-3c-3-2.9-5.8-3.5-9.7-1.9zM689.8 1672c-5.5 4.3-6.1 13-1.1 17 3.5 2.7 10.1 2.7 13.6 0 5.4-4.3 5.2-13.4-.4-17.4-3.2-2.2-9.1-2-12.1.4zM717.4 1704.2c-3.6 4-4.1 4.3-8.5 4-3.8-.3-5.1.1-7.7 2.3-7.5 6.3-4 19.5 5.2 19.5 4.7 0 7.9-1.6 9.9-5 2.1-3.5 2.2-9.9.1-12.8-1.4-2.1-1.3-2.5 2.2-6.7 4.8-5.9 3.9-6.9-1.2-1.3z"/>
</svg>