<svg xmlns="http://www.w3.org/2000/svg" version="1.0" viewBox="0 0 520 520">
  <path d="M254.2 20.8c-1.8.6-1.5 4.1 1.1 11.9 2.7 8.4 7.5 16.6 14.2 24 4.3 4.9 4.6 5.6 2.5 5-18.1-4.4-23.9-5.1-40-5-28.9.2-45.2 5.1-73.6 22-22.1 13.2-23.1 13.7-35.2 16.4-8.8 2.1-10.2 2.7-10 4.3.5 3.3 13.6 7.8 24.5 8.5l9.2.6-3.1 4.5c-5.1 7.5-9.7 18.1-12.6 29-2.3 9.1-2.7 12.5-2.7 25 0 12 .4 16 2.4 23.5 1.3 4.9 3.1 9.7 4.1 10.6 1.7 1.4 1.7 2 .4 7-.9 3.5-1.3 9.4-1.2 16.9.3 9.7.5 11.5 2 11.8 1.2.2 2.1-1.1 3.3-5 1-2.9 2.9-7.4 4.2-10 2.3-4.3 2.8-4.6 6.8-5 4.3-.3 4.4-.2 5.7 3.7 1.5 4.7 1.7 27.1.4 47-1 15.2-.1 21.8 4.4 31.4 4.5 9.5 10.8 16.2 22.3 23.8 10.7 7 31.9 16.8 43.8 20.2 3.9 1.1 7.4 2.2 7.6 2.5.3.3-.3 2-1.4 3.8-1.9 3.3-2 3.3-8.4 3-19.9-1-49 11.8-60.8 26.8-2.3 2.9-4.1 5.6-4.1 6.1s-5.3.6-13 .3l-12.9-.7-1 2.6c-.6 1.4-1.1 16.5-1.2 34.4-.1 17.4-.4 32.3-.6 33-.3.7-1.1 1.3-1.7 1.3-.7 0-3.1 1.6-5.5 3.6-11.4 9.8-13.6 30-4.6 41.8 5.3 6.9 17.1 9.9 24.3 6.2 1.7-.9 4.2-1.6 5.6-1.6 1.4 0 6.7-1.8 11.7-4 5.1-2.2 9.6-4 10.1-4 .4 0 .8 4.9.8 11v11h46.5c25.6 0 46.5-.2 46.5-.4 0-.3-4.5-2.8-10-5.7-5.5-2.8-9.7-5.6-9.4-6 .3-.5 2.4-1.7 4.7-2.8 4.2-1.9 11.7-8.6 14.9-13.2l1.6-2.4 9.4 3.2c5.1 1.8 15.4 4.8 22.8 6.7 7.4 1.9 16.2 4.4 19.4 5.5 8.7 3.1 11.5 2.6 10.1-1.8-.4-1.4-2.9-2.5-10.3-4.3-10.8-2.7-10.8-2.7-9.8-11.2l.7-5.1H346v3.5c0 1.9-.5 5.3-1 7.5-.8 3.8-4 23.9-4 25.7 0 1.6 4.9.8 5.4-1 .8-3.1 3.6-21.5 4.4-29.1.7-7.8.6-7.6 7.5-10.7 5.3-2.3 6.1-4.4 6-16-.2-16.8-3.1-31.1-10.2-49.8-7.6-20-15.7-31.6-29.1-41.2-6.7-4.9-11.2-6.8-20.1-8.8-2-.4-3.2-1.9-5.4-7.1-1.5-3.6-2.6-6.7-2.4-6.9.2-.1 5.1-1.2 10.9-2.4 5.8-1.2 13.5-3.3 17-4.7 11.8-4.6 35.4-19.1 41.5-25.5 2.4-2.5 3.6-3 7.9-3 4.5 0 5.3-.4 9.1-4.4 3.7-3.8 4.8-6.1 8.5-17.7 2.3-7.4 6-16.3 8.1-19.9 10.1-17.2 14.8-31.6 17-52.1 1.2-11.7.6-21.8-2.2-39.5-3.6-22.6-8.7-36-20.3-53.4-3.1-4.6-5.4-8.5-5.2-8.7.2-.3 6 0 12.8.7 25.6 2.3 26.5 2.3 27.2 1.1 1.1-1.7-1-3.8-4.6-4.5-1.7-.3-7.2-3.9-12.2-7.8-36.2-28.7-46.4-34-66.6-34.2-5.8-.1-13.1.2-16.2.7l-5.8.7v-2.7c0-1.6-1.1-5.2-2.5-8-2-4.4-3.6-6-9.5-9.9-3.9-2.5-12.6-7-19.3-9.9-20-8.6-26.7-12.3-32.2-17.9-2.8-2.9-5.6-5.1-6.3-4.8zm95.5 157.9c.4 3.2.8 21.8.8 41.3-.1 34.9-.1 35.7-2.8 48.4-2.6 11.8-2.7 13.1-1.2 14.5 2.2 2.2 4.1.8 8.9-6.5 2.2-3.2 5.2-7.7 6.7-9.9 1.4-2.2 5.4-9 8.8-15 6.8-12 8.1-13.5 12.2-13.5 7 0 9.9 6.8 9.9 23.4 0 7.7-.6 11.3-3.6 21.6-4.4 15-5.6 17.9-9 21.9-2.2 2.7-3.2 3.1-7.4 3.1s-5.3.5-9.6 4.4c-9.4 8.4-33.6 22.7-43.9 26-14.2 4.5-24.8 6-41 6-30.8-.1-52.8-5.1-78.8-18-23.4-11.5-32.9-21.4-37.3-38.4-1.7-6.6-1.7-9.1.2-41 .6-9.5-.5-25.1-2.1-29.1-.5-1.3 1.2-2 10.6-3.8 6.2-1.3 15-3.6 19.7-5.2 4.6-1.7 8.6-2.9 8.8-2.7.2.3-1.9 2.6-4.6 5.3-6 5.9-6.5 8.5-1.7 8.5h3.3l-2.4 7.2c-4.1 12.3-4.3 32-.3 36.9 6.7 8.4 16-12.8 14.8-33.9-.3-4.8-.7-9.5-.8-10.6-.3-1.6.7-2.1 6.6-3.6 18.5-4.4 46.5-16.8 59.8-26.3 4.2-3.1 7.7-5.4 7.7-5.1 0 .2-1.3 3-2.9 6.2-4.8 9.7-3.6 10 18.4 4.3 23.4-6.2 38.6-12.5 47.5-20 1.4-1.1 2.8-2 3.2-2.1.4 0 1 2.6 1.5 5.7zm-98.8 168.8c5.6.9 17.1 1.7 25.4 1.9l15.2.4 2.7 5.8c3.9 8.2 3.7 8.9-2.6 11.3-12.8 4.7-28.7 5.2-41.7 1.2-6.4-2-14.5-6.9-15.5-9.4-.3-.9 5.1-12.1 6.2-12.7 0 0 4.7.7 10.3 1.5zm-72.4 45.1c8.8.4 19 .6 22.8.5 4.1-.1 6.7.2 6.7.9 0 .5-2.2 1-5.2 1-2.8 0-4.8.3-4.4.7 1.3 1.4 10.6.9 10.6-.5s4.6-1.6 5.5-.2c.3.5 1.4 1 2.3 1 1.5 0 1.5-.2.2-1-1-.7 1-1 6.6-1 9.7 0 15.2.9 13.2 2.1-1 .7-1 .9 0 .9.6 0 1.2.7 1.2 1.5 0 2.9 1.9 1.5 2.3-1.8.7-5.4-.2 23.8-1.3 41.8-.6 9.3-1.2 19.2-1.3 22-.2 4.9-.2 4.9-3.7 5-1.9.1-3.8-.3-4.2-.9-.6-.8-1.1-.7-1.6.2-.7 1-5.5 1.1-22.3.6-11.8-.4-30.6-.7-41.9-.8l-20.4-.1-.8-2.5c-.7-2.4-.7-2.4-.4.3.3 2.5.1 2.8-2.3 2.5l-2.6-.3.2-25c0-13.8.3-30.3.5-36.7l.3-11.7 12 .4c6.6.2 19.2.7 28 1.1zm78.2 53.7h5.3l-2.2 2.4c-1.2 1.2-2.6 2.3-3.2 2.3-.6 0-2 1.2-3.2 2.7-1.9 2.4-2.5 2.6-3.6 1.4-1.1-1.1-1.1-1.4 0-1.8 1-.4 1-.8 0-2-1.1-1.4-1-1.5 1.2-.8 2.9.9 2.5.3-1-1.5-1.4-.7-2.2-.9-1.8-.5.4.5.3 1.4-.3 2.2-.9.9-.7 1.9.4 3.7 1.5 2.2 1.4 2.5-.7 4.5-3 2.8-3.2 2.7-3-1.7.1-2 .2-5 .3-6.5 0-1.6.5-2.6 1-2.3.5.3 1.1-.1 1.4-.9.4-1 .1-1.2-1-.8-1.1.4-1.4.2-.9-.5.4-.7 1.7-1 3.3-.6 1.4.4 5 .7 8 .7zm-123.4 23.2c1.6 1.1 4.8 1.5 11.9 1.5h9.7l.7 3.6c1.7 8.9-2.2 20.4-8.8 25.6-9.2 7.5-20.7 4.9-25.8-5.8-4.6-9.5-1.9-23.8 5.9-30.6l3.6-3.2.3 3.7c.2 2.4 1.1 4.2 2.5 5.2zm123.2-4.1c13.8 5.8 7.4 28.5-10.7 37.7-6.1 3.1-16.2 3.7-20.7 1.1-9.2-5-9.2-17.4 0-28.5 2.9-3.5 3.3-3.7 9.2-3.7 5.7 0 6.6-.4 11.2-4 5.7-4.4 6.2-4.6 11-2.6zm-84.7 16.3-.3 10.6-7.8 3.5c-4.2 1.9-7.9 3.3-8.2 3-.2-.2.4-2.2 1.5-4.4 2.6-5.2 4.3-14.7 3.5-19.5l-.7-3.9h12.3l-.3 10.7z"/>
  <path d="M284.7 220.2c-4.7 6.2-7.9 19.6-8 33.8-.1 9.4 1.4 15.3 4.4 17.4 3 2.1 5.7.8 8.4-3.9 6.4-10.8 9.2-37.3 5-46-2.7-5.5-6.3-5.9-9.8-1.3zM374.5 261c-.3.6-.3 3.4 0 6.3.5 3.7.2 6.4-.7 8.8-3 7 1.2 8.4 4.3 1.5 1.1-2.5 3.3-5.5 4.9-6.6 3.3-2.4 4.1-6 1.2-6-1 0-2.3.5-3 1.2-.9.9-1.3.7-1.7-.8-1.5-4.6-3.7-6.6-5-4.4zM226.7 270.6c-1.3 1.3-.7 9.4.8 12.4 3.1 6.1 12.3 7.7 18.4 3.3 3.7-2.7 7.7-11.1 6.4-13.2-1.7-2.7-3.5-1.8-5 2.4-2.4 7.1-9.1 10.5-13.8 7.1-1.3-.9-2.1-3.1-2.5-6.7-.3-3.8-1-5.5-2-5.7-.9-.1-1.9 0-2.3.4zM228.3 396.7c.9.2 2.3.2 3 0 .6-.3-.1-.5-1.8-.5-1.6 0-2.2.2-1.2.5zM185.8 397.7c1.2.2 3.2.2 4.5 0 1.2-.2.2-.4-2.3-.4s-3.5.2-2.2.4zM201.8 398.7c1.2.2 3.2.2 4.5 0 1.2-.2.2-.4-2.3-.4s-3.5.2-2.2.4zM184.8 399.7c.7.3 1.6.2 1.9-.1.4-.3-.2-.6-1.3-.5-1.1 0-1.4.3-.6.6zM225.8 399.7c.7.3 1.6.2 1.9-.1.4-.3-.2-.6-1.3-.5-1.1 0-1.4.3-.6.6zM141 401.9c0 2.5.6 2.7 1.3.6.4-.8.2-1.7-.3-2-.6-.4-1 .3-1 1.4zM139.3 413c0 9.1.2 10.2.6 5 .4-3.8.9-5.7 1.2-4.5.8 2.5.2-2.6-.9-8-.6-3-.9-1.1-.9 7.5zM184 411c-1.2.8-1.2 1 .3 1.6 1 .3 2.1.4 2.4 0 .4-.3.1-.6-.6-.6s-.9-.5-.6-1c.8-1.2.4-1.2-1.5 0zM177 413.1c0 .5.5.7 1 .4.6-.3 1-.8 1-1.1 0-.2-.4-.4-1-.4-.5 0-1 .5-1 1.1zM194.3 414.7c.9.2 2.3.2 3 0 .6-.3-.1-.5-1.8-.5-1.6 0-2.2.2-1.2.5zM176 416c-.9.6-1 1-.3 1 .6 0 1.5-.5 1.8-1 .8-1.2.4-1.2-1.5 0zM172 417c0 .5.5 1 1.1 1 .5 0 .7-.5.4-1-.3-.6-.8-1-1.1-1-.2 0-.4.4-.4 1zM198.1 418c1.4 3.1 1.9 3.6 1.9 2.4 0-.6-.7-1.9-1.6-3-1.4-1.8-1.4-1.8-.3.6z"/>
  <path d="M169.6 418.4c.9 2.3 3.6 2.8 5.3.9 1.5-1.5 1.5-1.6 0-.5-1.4 1-2 1-3.2-.3-1.9-1.9-2.8-1.9-2.1-.1zM170.3 424.5c0 .8.4 1.2.9.9.5-.3.6-1 .3-1.5-.9-1.3-1.2-1.1-1.2.6zM175 425.5c-1 1.1-1 1.9-.2 2.7 1.5 1.5 4.4.2 4-1.9-.4-2.3-2.2-2.7-3.8-.8zM138.5 432.2c-.4 2.9-.5 6.7-.2 8.3.2 1.7.5.3.6-3 .1-4.3.4-5.6 1.1-4.5.7 1.1.8.5.4-2-1-5-1.2-4.8-1.9 1.2zM169 429.2c0 .4.7.8 1.5.8s1.5-.4 1.5-.8c0-.5-.7-.9-1.5-.9s-1.5.4-1.5.9zM169.6 432.2c1.2.5 2.7 2 3.2 3.2.6 1.1 1.1 1.5 1.1.8.1-1.6-3.5-5.2-5.1-5.1-.7 0-.3.5.8 1.1zM177.4 435.5c-.8 2 .4 3.5 2.7 3.5 1.4 0 1.9-.7 1.9-2.5s-.5-2.5-2-2.5c-1.1 0-2.3.7-2.6 1.5zM171 437.6c0 1.6-.2 1.7-1.1.4-.8-1.2-1-1.2-.7-.1.2.8 1.4 1.5 2.6 1.6 1.8.1 2-.1 1-1.4-.7-.9-1.4-1.8-1.5-2-.2-.2-.3.4-.3 1.5zM236.2 439c0 1.9.2 2.7.5 1.7.2-.9.2-2.5 0-3.5-.3-.9-.5-.1-.5 1.8zM142.1 438.6c0 1.1.3 1.4.6.6.3-.7.2-1.6-.1-1.9-.3-.4-.6.2-.5 1.3zM196 438.5c-1.1 1.3-1 1.4.4.9.9-.3 1.6-1 1.6-1.5 0-1.3-.6-1.1-2 .6zM234.2 439c0 1.4.2 1.9.5 1.2.2-.6.2-1.8 0-2.5-.3-.6-.5-.1-.5 1.3zM159.3 444c0 2.5.2 3.5.4 2.2.2-1.2.2-3.2 0-4.5-.2-1.2-.4-.2-.4 2.3zM189.8 441.7c.7.3 1.6.2 1.9-.1.4-.3-.2-.6-1.3-.5-1.1 0-1.4.3-.6.6zM236.1 445.6c0 1.1.3 1.4.6.6.3-.7.2-1.6-.1-1.9-.3-.4-.6.2-.5 1.3zM141.6 447.7c-.6 1.4-.5 1.5.5.6.7-.7 1-1.5.7-1.8-.3-.3-.9.2-1.2 1.2zM138.9 453.5c-.4 3.3-.5 6.2-.3 6.4 1 1.2 1.5-1.2 1.2-6.5l-.3-5.9-.6 6zM235.2 462c0 1.4.2 1.9.5 1.2.2-.6.2-1.8 0-2.5-.3-.6-.5-.1-.5 1.3zM256.3 448.6c0 .7.6 1 1.4.7.7-.3 1.3-.8 1.3-1.2 0-.4-.6-.8-1.3-.8-.8 0-1.4.6-1.4 1.3zM246 454.9c0 .6.4 1.3 1 1.6.6.3.7-.1.4-.9-.7-1.8-1.4-2.1-1.4-.7z"/>
</svg>