<svg width="50" height="50" viewBox="0 0 25 25" version="1.1" id="svg4" xmlns="http://www.w3.org/2000/svg">
  <path d="m12.123 24.264-5.534-1.978v-8.08l5.534 1.877zm1.008 0 5.534-1.978v-8.08l-5.534 1.879zM7.16 13.6l5.585-1.572 5.193 1.67-5.193 1.757zm-1.623-.619L0 10.996V2.904l5.534 1.878zm1.014 0 5.534-1.978V2.904L6.55 4.79zM.578 2.315 6.162.735l5.194 1.67-5.194 1.757Zm17.88 10.665-5.535-1.978V2.904l5.535 1.878zm1.008 0L25 11.002V2.904l-5.534 1.878ZM13.494 2.315 19.078.743l5.194 1.67-5.194 1.757Z" fill="#f90" fill-rule="evenodd" id="path2" style="stroke-width:.774247"/>
</svg>