<svg xmlns="http://www.w3.org/2000/svg" id="svg12" width="50" height="50" version="1.1" viewBox="0 0 73.383 50">
  <path id="path2" fill="#fff" d="M64.331 3.293 41.163-10.46a8.725 8.725 0 0 0-8.938 0L9.056 3.293a9.24 9.24 0 0 0-4.467 7.96v27.505a9.24 9.24 0 0 0 4.467 7.955L32.22 60.46a8.73 8.73 0 0 0 8.938 0l23.164-13.748a9.24 9.24 0 0 0 4.471-7.96v-27.5a9.24 9.24 0 0 0-4.466-7.96z" style="stroke-width:.463835"/>
  <path id="path4" fill="#2f3a3e" d="M64.331 3.293 41.163-10.46a8.725 8.725 0 0 0-8.938 0L9.056 3.293a9.24 9.24 0 0 0-4.467 7.96v27.505a9.24 9.24 0 0 0 4.467 7.955L32.22 60.46a8.73 8.73 0 0 0 8.938 0l23.164-13.748a9.24 9.24 0 0 0 4.471-7.96v-27.5a9.24 9.24 0 0 0-4.466-7.96Zm-31.3 55.753L9.869 45.298a7.625 7.625 0 0 1-3.674-6.55V11.243a7.62 7.62 0 0 1 3.674-6.55L33.032-9.044a7.143 7.143 0 0 1 7.32 0L63.495 4.703A7.574 7.574 0 0 1 67.054 10c-.77-1.637-2.505-2.087-4.518-.928L40.64 22.635c-2.737 1.59-4.745 3.386-4.75 6.68v27.004c0 1.97.788 3.246 2.018 3.618a7.097 7.097 0 0 1-1.216.115 7.176 7.176 0 0 1-3.66-1.006z" style="stroke-width:.463835"/>
  <path id="path6" fill="#3ab14a" d="m58.255 41.41-5.77 3.452a.422.422 0 0 0-.264.376v1.516c0 .186.125.26.278.172l5.858-3.562a.464.464 0 0 0 .176-.464v-1.331c-.004-.172-.139-.246-.278-.158z" style="stroke-width:.463835"/>
  <path id="path8" fill="#fff" d="M45.973 28.711c.185-.093.338 0 .343.264l.019 2.009a3.71 3.71 0 0 1 2.217-.27c.139.038.204.233.148.465l-.44 1.762a.76.76 0 0 1-.2.353.464.464 0 0 1-.116.083.264.264 0 0 1-.172.028 2.94 2.94 0 0 0-2.138.343 2.686 2.686 0 0 0-1.582 2.38c0 .927.464 1.183 2.088 1.206 2.133.037 3.061.974 3.089 3.126a7.667 7.667 0 0 1-2.839 5.784l.037 1.976a.724.724 0 0 1-.338.603l-1.17.673c-.185.092-.338 0-.342-.26v-1.948c-1.002.417-2.018.51-2.667.255-.121-.047-.177-.232-.126-.436l.418-1.786a.747.747 0 0 1 .208-.371.464.464 0 0 1 .112-.079.232.232 0 0 1 .19 0 3.247 3.247 0 0 0 2.454-.31 3.21 3.21 0 0 0 1.813-2.784c0-1.002-.556-1.419-1.855-1.428-1.684 0-3.247-.325-3.28-2.783a7.19 7.19 0 0 1 2.719-5.501l-.084-2.009a.719.719 0 0 1 .339-.612z" style="stroke-width:.463835"/>
</svg>