<svg xmlns="http://www.w3.org/2000/svg" xmlns:svg="http://www.w3.org/2000/svg" id="svg12" width="50" height="50" version="1.1" viewBox="0 0 73.383 50"><path id="path2" fill="#fff" d="M 64.331327,3.2928431 41.162776,-10.459904 a 8.724733,8.7247608 0 0 0 -8.938097,0 L 9.0561297,3.2928431 A 9.2395897,9.2396191 0 0 0 4.5894004,11.252274 v 27.505492 a 9.2395897,9.2396191 0 0 0 4.4667293,7.954793 L 32.220041,60.460666 a 8.7293714,8.7293991 0 0 0 8.938097,0 L 64.32205,46.712559 a 9.2395897,9.2396191 0 0 0 4.471368,-7.959431 V 11.252274 a 9.2395897,9.2396191 0 0 0 -4.46673,-7.9594309 z" style="stroke-width:.463835"/><path id="path4" fill="#2f3a3e" d="M 64.331327,3.2928431 41.162776,-10.459904 a 8.724733,8.7247608 0 0 0 -8.938097,0 L 9.0561297,3.2928431 A 9.2395897,9.2396191 0 0 0 4.5894004,11.252274 v 27.505492 a 9.2395897,9.2396191 0 0 0 4.4667293,7.954793 L 32.220041,60.460666 a 8.7293714,8.7293991 0 0 0 8.938097,0 L 64.32205,46.712559 a 9.2395897,9.2396191 0 0 0 4.471368,-7.959431 V 11.252274 A 9.2395897,9.2396191 0 0 0 64.326688,3.2928431 Z M 33.031752,59.045966 9.8678405,45.297858 A 7.6254445,7.6254688 0 0 1 6.1942689,38.748489 V 11.242997 A 7.6208062,7.6208304 0 0 1 9.8678405,4.6936287 L 33.031752,-9.0452029 a 7.1430563,7.143079 0 0 1 7.319313,0 L 63.496424,4.7029054 A 7.5744227,7.5744468 0 0 1 67.054037,9.999916 C 66.284071,8.3625738 64.549329,7.9126526 62.536286,9.0722434 L 40.638643,22.634816 c -2.736626,1.590959 -4.74503,3.386005 -4.749669,6.679243 v 27.004549 c 0,1.971305 0.788519,3.246854 2.017682,3.617923 a 7.0966728,7.0966954 0 0 1 -1.215248,0.11596 7.1755247,7.1755475 0 0 1 -3.659656,-1.006525 z" style="stroke-width:.463835"/><path id="path6" fill="#3ab14a" d="m 58.25509,41.41091 -5.770105,3.450942 a 0.42208969,0.42209103 0 0 0 -0.264386,0.375707 v 1.516745 c 0,0.185534 0.125236,0.259748 0.278301,0.171619 l 5.858234,-3.562263 a 0.46383482,0.4638363 0 0 0 0.176257,-0.463836 v -1.33121 c -0.0046,-0.171619 -0.13915,-0.245833 -0.278301,-0.157704 z" style="stroke-width:.463835"/><path id="path8" fill="#fff" d="m 45.972743,28.711072 c 0.185534,-0.09277 0.3386,0 0.343238,0.264386 l 0.01855,2.008412 a 3.7106786,3.7106904 0 0 1 2.217131,-0.269025 c 0.13915,0.03711 0.204087,0.231918 0.148427,0.463836 l -0.440643,1.762578 a 0.76068911,0.76069153 0 0 1 -0.199449,0.352515 0.46383482,0.4638363 0 0 1 -0.115959,0.08349 0.26438585,0.26438669 0 0 1 -0.171619,0.02783 2.9407128,2.9407221 0 0 0 -2.138278,0.343239 2.6856036,2.6856122 0 0 0 -1.581677,2.37948 c 0,0.927673 0.463835,1.182783 2.087257,1.205975 2.13364,0.03711 3.06131,0.974056 3.08914,3.126256 a 7.6671896,7.667214 0 0 1 -2.838669,5.784039 l 0.03711,1.975943 a 0.72358233,0.72358463 0 0 1 -0.338599,0.602987 l -1.168864,0.672562 c -0.185534,0.09277 -0.338599,0 -0.343238,-0.259748 v -1.948112 c -1.001883,0.417452 -2.017681,0.510219 -2.66705,0.25511 -0.120597,-0.04638 -0.176257,-0.231919 -0.125235,-0.436007 l 0.417451,-1.785769 a 0.74677407,0.74677644 0 0 1 0.208726,-0.371069 0.46383482,0.4638363 0 0 1 0.11132,-0.07885 0.23191741,0.23191815 0 0 1 0.190172,0 3.2468438,3.2468541 0 0 0 2.453687,-0.31077 3.209737,3.2097472 0 0 0 1.813594,-2.783018 c 0,-1.001886 -0.556602,-1.419339 -1.855339,-1.428615 -1.683721,0 -3.246844,-0.324686 -3.279313,-2.783018 a 7.1894398,7.1894626 0 0 1 2.718072,-5.501099 l -0.08349,-2.008411 a 0.71894398,0.71894626 0 0 1 0.3386,-0.612264 z" style="stroke-width:.463835"/></svg>