<svg xmlns="http://www.w3.org/2000/svg" xmlns:xlink="http://www.w3.org/1999/xlink" id="Layer_1" width="50" height="50" x="0" y="0" version="1.1" viewBox="0 0 280.102 291.653" xml:space="preserve">
  <g id="g20" transform="matrix(1.67262 0 0 1.67261 26.164 -8.363)">
    <defs id="defs5">
      <path id="SVGID_1_" d="M99.69 174.74c0 2.55-2.06 4.62-4.61 4.62-2.54 0-4.6-2.07-4.6-4.62 0-9.2-4.32-16.23-13.21-21.53l-.64-.38.68-.3a67.34 67.34 0 0 0 8.44-4.34l.22-.14.21.16c8.96 6.8 13.51 15.72 13.51 26.53"/>
    </defs>
    <clipPath id="SVGID_2_">
      <use style="overflow:visible" id="use7" width="100%" height="100%" x="0" y="0" xlink:href="#SVGID_1_"/>
    </clipPath>
    <g id="g18" clip-path="url(#SVGID_2_)" style="clip-path:url(#SVGID_2_)">
      <defs id="defs11">
        <path id="SVGID_3_" d="M-481.02-434.76h1920v1080h-1920z"/>
      </defs>
      <clipPath id="SVGID_4_">
        <use style="overflow:visible" id="use13" width="100%" height="100%" x="0" y="0" xlink:href="#SVGID_3_"/>
      </clipPath>
      <path id="rect16" clip-path="url(#SVGID_4_)" style="clip-path:url(#SVGID_4_)" d="M71.63 143.05h33.06v41.3H71.63z"/>
    </g>
  </g>
  <g id="g38" transform="matrix(1.67262 0 0 1.67261 26.164 -8.363)">
    <defs id="defs23">
      <path id="SVGID_5_" d="M99.69 113.3c0 13.45-6.96 23.89-20.71 31.06-2.82 1.47-5.97 2.83-9.35 4.02-.46.16-.92.33-1.4.5-9.67 3.58-22.51 10.16-22.51 25.87 0 2.54-2.07 4.62-4.61 4.62-2.54 0-4.6-2.07-4.6-4.62 0-13.23 6.75-23.56 20.07-30.72-13.32-7.15-20.07-17.49-20.07-30.73 0-13.17 6.69-23.47 19.89-30.63l.18.34 21.71.01h1.33l.11.37c-5.68 1.67-8.74 2.93-10.98 3.85l-.58.24c-9.65 3.58-22.44 10.16-22.44 25.83 0 15.64 12.73 22.23 22.38 25.82 9.65-3.59 22.38-10.18 22.38-25.82 0-9.19-4.31-16.23-13.19-21.52l-.72-.43.79-.27c2.99-1 6.45-1.98 10.28-2.92l.19-.05.15.12c7.77 6.6 11.7 15.03 11.7 25.06"/>
    </defs>
    <clipPath id="SVGID_6_">
      <use style="overflow:visible" id="use25" width="100%" height="100%" x="0" y="0" xlink:href="#SVGID_5_"/>
    </clipPath>
    <g id="g36" clip-path="url(#SVGID_6_)" style="clip-path:url(#SVGID_6_)">
      <defs id="defs29">
        <path id="SVGID_7_" d="M-481.02-434.76h1920v1080h-1920z"/>
      </defs>
      <clipPath id="SVGID_8_">
        <use style="overflow:visible" id="use31" width="100%" height="100%" x="0" y="0" xlink:href="#SVGID_7_"/>
      </clipPath>
      <path id="rect34" clip-path="url(#SVGID_8_)" style="clip-path:url(#SVGID_8_)" d="M31.51 77.67h73.18v106.69H31.51z"/>
    </g>
  </g>
  <g id="g56" transform="matrix(1.67262 0 0 1.67261 26.164 -8.363)">
    <defs id="defs41">
      <path id="SVGID_9_" d="M53.58 169.8c.9-2.76 2.57-5.2 5.09-7.37h18.86c2.52 2.17 4.19 4.61 5.09 7.37z"/>
    </defs>
    <clipPath id="SVGID_10_">
      <use style="overflow:visible" id="use43" width="100%" height="100%" x="0" y="0" xlink:href="#SVGID_9_"/>
    </clipPath>
    <g id="g54" clip-path="url(#SVGID_10_)" style="clip-path:url(#SVGID_10_)">
      <defs id="defs47">
        <path id="SVGID_11_" d="M-481.02-434.76h1920v1080h-1920z"/>
      </defs>
      <clipPath id="SVGID_12_">
        <use style="overflow:visible" id="use49" width="100%" height="100%" x="0" y="0" xlink:href="#SVGID_11_"/>
      </clipPath>
      <path id="rect52" clip-path="url(#SVGID_12_)" style="clip-path:url(#SVGID_12_)" d="M48.58 157.43h39.04v17.37H48.58z"/>
    </g>
  </g>
  <g id="g74" transform="matrix(1.67262 0 0 1.67261 26.164 -8.363)">
    <defs id="defs59">
      <path id="SVGID_13_" d="M53.58 108.36c.9-2.76 2.57-5.2 5.09-7.38h18.86c2.52 2.18 4.19 4.61 5.09 7.38z"/>
    </defs>
    <clipPath id="SVGID_14_">
      <use style="overflow:visible" id="use61" width="100%" height="100%" x="0" y="0" xlink:href="#SVGID_13_"/>
    </clipPath>
    <g id="g72" clip-path="url(#SVGID_14_)" style="clip-path:url(#SVGID_14_)">
      <defs id="defs65">
        <path id="SVGID_15_" d="M-481.02-434.76h1920v1080h-1920z"/>
      </defs>
      <clipPath id="SVGID_16_">
        <use style="overflow:visible" id="use67" width="100%" height="100%" x="0" y="0" xlink:href="#SVGID_15_"/>
      </clipPath>
      <path id="rect70" clip-path="url(#SVGID_16_)" style="clip-path:url(#SVGID_16_)" d="M48.58 95.98h39.04v17.38H48.58z"/>
    </g>
  </g>
  <g id="g92" transform="matrix(1.67262 0 0 1.67261 26.164 -8.363)">
    <defs id="defs77">
      <path id="SVGID_17_" d="M82.62 119c-.9 2.76-2.57 5.2-5.09 7.38H58.67c-2.52-2.18-4.18-4.61-5.09-7.38Z"/>
    </defs>
    <clipPath id="SVGID_18_">
      <use style="overflow:visible" id="use79" width="100%" height="100%" x="0" y="0" xlink:href="#SVGID_17_"/>
    </clipPath>
    <g id="g90" clip-path="url(#SVGID_18_)" style="clip-path:url(#SVGID_18_)">
      <defs id="defs83">
        <path id="SVGID_19_" d="M-481.02-434.76h1920v1080h-1920z"/>
      </defs>
      <clipPath id="SVGID_20_">
        <use style="overflow:visible" id="use85" width="100%" height="100%" x="0" y="0" xlink:href="#SVGID_19_"/>
      </clipPath>
      <path id="rect88" clip-path="url(#SVGID_20_)" style="clip-path:url(#SVGID_20_)" d="M48.58 114h39.04v17.38H48.58z"/>
    </g>
  </g>
  <g id="g110" transform="matrix(1.67262 0 0 1.67261 26.164 -8.363)">
    <defs id="defs95">
      <path id="SVGID_21_" d="M129.14 66.98c-.07-.04-4.57-4.3-8.07-13.24-.4-1.03-.87-2.83-1.4-4.9C116.3 35.71 108.43 5 68.09 5 27.77 5 19.88 35.71 16.54 48.84c-.54 2.07-1 3.88-1.4 4.9-3.52 8.94-8 13.2-8.05 13.24a4.214 4.214 0 0 0-1.99 4.57c.4 1.78 1.89 3.12 3.72 3.28 25.08 2.34 38.67 5.93 47.76 8.56l11.5 4.08c2.23-.92 5.37-2.25 11.52-4.08 9.09-2.63 22.69-6.22 47.74-8.56a4.165 4.165 0 0 0 3.72-3.28c.44-1.78-.36-3.63-1.92-4.57M42.21 56.91a5.38 5.38 0 0 1-5.39-5.39 5.38 5.38 0 0 1 5.39-5.39c2.96 0 5.37 2.41 5.37 5.39 0 2.98-2.4 5.39-5.37 5.39m51.78 0c-2.96 0-5.39-2.41-5.39-5.39 0-2.99 2.43-5.39 5.39-5.39 2.96 0 5.39 2.41 5.39 5.39 0 2.98-2.43 5.39-5.39 5.39"/>
    </defs>
    <clipPath id="SVGID_22_">
      <use style="overflow:visible" id="use97" width="100%" height="100%" x="0" y="0" xlink:href="#SVGID_21_"/>
    </clipPath>
    <g id="g108" clip-path="url(#SVGID_22_)" style="clip-path:url(#SVGID_22_)">
      <defs id="defs101">
        <path id="SVGID_23_" d="M-481.02-434.76h1920v1080h-1920z"/>
      </defs>
      <clipPath id="SVGID_24_">
        <use style="overflow:visible" id="use103" width="100%" height="100%" x="0" y="0" xlink:href="#SVGID_23_"/>
      </clipPath>
      <path id="rect106" clip-path="url(#SVGID_24_)" style="clip-path:url(#SVGID_24_)" d="M0 0h136.19v92.47H0z"/>
    </g>
  </g>
</svg>