<?xml version="1.0" encoding="UTF-8" standalone="no"?>
<svg
   version="1.1"
   id="Layer_1"
   width="32"
   height="32"
   x="0px"
   y="0px"
   viewBox="0 0 179.26549 186.65778"
   xml:space="preserve"
   sodipodi:docname="benchling.svg"
   inkscape:version="1.1 (c68e22c387, 2021-05-23)"
   xmlns:inkscape="http://www.inkscape.org/namespaces/inkscape"
   xmlns:sodipodi="http://sodipodi.sourceforge.net/DTD/sodipodi-0.dtd"
   xmlns:xlink="http://www.w3.org/1999/xlink"
   xmlns="http://www.w3.org/2000/svg"
   xmlns:svg="http://www.w3.org/2000/svg"><defs
   id="defs277" /><sodipodi:namedview
   id="namedview275"
   pagecolor="#ffffff"
   bordercolor="#666666"
   borderopacity="1.0"
   inkscape:pageshadow="2"
   inkscape:pageopacity="0.0"
   inkscape:pagecheckerboard="0"
   showgrid="false"
   width="170px"
   inkscape:zoom="12.374269"
   inkscape:cx="8.2833176"
   inkscape:cy="16.445416"
   inkscape:window-width="1920"
   inkscape:window-height="1017"
   inkscape:window-x="-8"
   inkscape:window-y="80"
   inkscape:window-maximized="1"
   inkscape:current-layer="Layer_1" />
<style
   type="text/css"
   id="style2">
	.st0{clip-path:url(#SVGID_2_);}
	.st1{clip-path:url(#SVGID_4_);}
	.st2{clip-path:url(#SVGID_6_);}
	.st3{clip-path:url(#SVGID_8_);}
	.st4{clip-path:url(#SVGID_10_);}
	.st5{clip-path:url(#SVGID_12_);}
	.st6{clip-path:url(#SVGID_14_);}
	.st7{clip-path:url(#SVGID_16_);}
	.st8{clip-path:url(#SVGID_18_);}
	.st9{clip-path:url(#SVGID_20_);}
	.st10{clip-path:url(#SVGID_22_);}
	.st11{clip-path:url(#SVGID_24_);}
	.st12{clip-path:url(#SVGID_26_);}
	.st13{clip-path:url(#SVGID_28_);}
	.st14{clip-path:url(#SVGID_30_);}
	.st15{clip-path:url(#SVGID_32_);}
	.st16{clip-path:url(#SVGID_34_);}
	.st17{clip-path:url(#SVGID_36_);}
	.st18{clip-path:url(#SVGID_38_);}
	.st19{clip-path:url(#SVGID_40_);}
	.st20{clip-path:url(#SVGID_42_);}
	.st21{clip-path:url(#SVGID_44_);}
	.st22{clip-path:url(#SVGID_46_);}
	.st23{clip-path:url(#SVGID_48_);}
	.st24{clip-path:url(#SVGID_50_);}
	.st25{clip-path:url(#SVGID_52_);}
	.st26{clip-path:url(#SVGID_54_);}
	.st27{clip-path:url(#SVGID_56_);}
	.st28{clip-path:url(#SVGID_58_);}
	.st29{clip-path:url(#SVGID_60_);}
</style>
<g
   id="g20"
   transform="translate(20.269593,1.8855431)">
	<defs
   id="defs5">
		<path
   id="SVGID_1_"
   d="m 99.69,174.74 c 0,2.55 -2.06,4.62 -4.61,4.62 -2.54,0 -4.6,-2.07 -4.6,-4.62 0,-9.2 -4.32,-16.23 -13.21,-21.53 l -0.64,-0.38 0.68,-0.3 c 3.04,-1.31 5.87,-2.77 8.44,-4.34 l 0.22,-0.14 0.21,0.16 c 8.96,6.8 13.51,15.72 13.51,26.53" />
	</defs>
	<clipPath
   id="SVGID_2_">
		<use
   xlink:href="#SVGID_1_"
   style="overflow:visible"
   id="use7"
   x="0"
   y="0"
   width="100%"
   height="100%" />
	</clipPath>
	<g
   class="st0"
   clip-path="url(#SVGID_2_)"
   id="g18">
		<defs
   id="defs11">
			<rect
   id="SVGID_3_"
   x="-481.01999"
   y="-434.76001"
   width="1920"
   height="1080" />
		</defs>
		<clipPath
   id="SVGID_4_">
			<use
   xlink:href="#SVGID_3_"
   style="overflow:visible"
   id="use13"
   x="0"
   y="0"
   width="100%"
   height="100%" />
		</clipPath>
		<rect
   x="71.629997"
   y="143.05"
   class="st1"
   width="33.060001"
   height="41.299999"
   clip-path="url(#SVGID_4_)"
   id="rect16" />
	</g>
</g>
<g
   id="g38"
   transform="translate(20.269593,1.8855431)">
	<defs
   id="defs23">
		<path
   id="SVGID_5_"
   d="m 99.69,113.3 c 0,13.45 -6.96,23.89 -20.71,31.06 -2.82,1.47 -5.97,2.83 -9.35,4.02 -0.46,0.16 -0.92,0.33 -1.4,0.5 -9.67,3.58 -22.51,10.16 -22.51,25.87 0,2.54 -2.07,4.62 -4.61,4.62 -2.54,0 -4.6,-2.07 -4.6,-4.62 0,-13.23 6.75,-23.56 20.07,-30.72 -13.32,-7.15 -20.07,-17.49 -20.07,-30.73 0,-13.17 6.69,-23.47 19.89,-30.63 l 0.18,0.34 21.71,0.01 h 1.33 l 0.11,0.37 c -5.68,1.67 -8.74,2.93 -10.98,3.85 l -0.58,0.24 c -9.65,3.58 -22.44,10.16 -22.44,25.83 0,15.64 12.73,22.23 22.38,25.82 9.65,-3.59 22.38,-10.18 22.38,-25.82 0,-9.19 -4.31,-16.23 -13.19,-21.52 l -0.72,-0.43 0.79,-0.27 c 2.99,-1 6.45,-1.98 10.28,-2.92 l 0.19,-0.05 0.15,0.12 c 7.77,6.6 11.7,15.03 11.7,25.06" />
	</defs>
	<clipPath
   id="SVGID_6_">
		<use
   xlink:href="#SVGID_5_"
   style="overflow:visible"
   id="use25"
   x="0"
   y="0"
   width="100%"
   height="100%" />
	</clipPath>
	<g
   class="st2"
   clip-path="url(#SVGID_6_)"
   id="g36">
		<defs
   id="defs29">
			<rect
   id="SVGID_7_"
   x="-481.01999"
   y="-434.76001"
   width="1920"
   height="1080" />
		</defs>
		<clipPath
   id="SVGID_8_">
			<use
   xlink:href="#SVGID_7_"
   style="overflow:visible"
   id="use31"
   x="0"
   y="0"
   width="100%"
   height="100%" />
		</clipPath>
		<rect
   x="31.51"
   y="77.669998"
   class="st3"
   width="73.18"
   height="106.69"
   clip-path="url(#SVGID_8_)"
   id="rect34" />
	</g>
</g>
<g
   id="g56"
   transform="translate(20.269593,1.8855431)">
	<defs
   id="defs41">
		<path
   id="SVGID_9_"
   d="m 53.58,169.8 c 0.9,-2.76 2.57,-5.2 5.09,-7.37 h 18.86 c 2.52,2.17 4.19,4.61 5.09,7.37 z" />
	</defs>
	<clipPath
   id="SVGID_10_">
		<use
   xlink:href="#SVGID_9_"
   style="overflow:visible"
   id="use43"
   x="0"
   y="0"
   width="100%"
   height="100%" />
	</clipPath>
	<g
   class="st4"
   clip-path="url(#SVGID_10_)"
   id="g54">
		<defs
   id="defs47">
			<rect
   id="SVGID_11_"
   x="-481.01999"
   y="-434.76001"
   width="1920"
   height="1080" />
		</defs>
		<clipPath
   id="SVGID_12_">
			<use
   xlink:href="#SVGID_11_"
   style="overflow:visible"
   id="use49"
   x="0"
   y="0"
   width="100%"
   height="100%" />
		</clipPath>
		<rect
   x="48.580002"
   y="157.42999"
   class="st5"
   width="39.040001"
   height="17.370001"
   clip-path="url(#SVGID_12_)"
   id="rect52" />
	</g>
</g>
<g
   id="g74"
   transform="translate(20.269593,1.8855431)">
	<defs
   id="defs59">
		<path
   id="SVGID_13_"
   d="m 53.58,108.36 c 0.9,-2.76 2.57,-5.2 5.09,-7.38 h 18.86 c 2.52,2.18 4.19,4.61 5.09,7.38 z" />
	</defs>
	<clipPath
   id="SVGID_14_">
		<use
   xlink:href="#SVGID_13_"
   style="overflow:visible"
   id="use61"
   x="0"
   y="0"
   width="100%"
   height="100%" />
	</clipPath>
	<g
   class="st6"
   clip-path="url(#SVGID_14_)"
   id="g72">
		<defs
   id="defs65">
			<rect
   id="SVGID_15_"
   x="-481.01999"
   y="-434.76001"
   width="1920"
   height="1080" />
		</defs>
		<clipPath
   id="SVGID_16_">
			<use
   xlink:href="#SVGID_15_"
   style="overflow:visible"
   id="use67"
   x="0"
   y="0"
   width="100%"
   height="100%" />
		</clipPath>
		<rect
   x="48.580002"
   y="95.980003"
   class="st7"
   width="39.040001"
   height="17.379999"
   clip-path="url(#SVGID_16_)"
   id="rect70" />
	</g>
</g>
<g
   id="g92"
   transform="translate(20.269593,1.8855431)">
	<defs
   id="defs77">
		<path
   id="SVGID_17_"
   d="m 82.62,119 c -0.9,2.76 -2.57,5.2 -5.09,7.38 H 58.67 C 56.15,124.2 54.49,121.77 53.58,119 Z" />
	</defs>
	<clipPath
   id="SVGID_18_">
		<use
   xlink:href="#SVGID_17_"
   style="overflow:visible"
   id="use79"
   x="0"
   y="0"
   width="100%"
   height="100%" />
	</clipPath>
	<g
   class="st8"
   clip-path="url(#SVGID_18_)"
   id="g90">
		<defs
   id="defs83">
			<rect
   id="SVGID_19_"
   x="-481.01999"
   y="-434.76001"
   width="1920"
   height="1080" />
		</defs>
		<clipPath
   id="SVGID_20_">
			<use
   xlink:href="#SVGID_19_"
   style="overflow:visible"
   id="use85"
   x="0"
   y="0"
   width="100%"
   height="100%" />
		</clipPath>
		<rect
   x="48.580002"
   y="114"
   class="st9"
   width="39.040001"
   height="17.379999"
   clip-path="url(#SVGID_20_)"
   id="rect88" />
	</g>
</g>
<g
   id="g110"
   transform="translate(20.269593,1.8855431)">
	<defs
   id="defs95">
		<path
   id="SVGID_21_"
   d="m 129.14,66.98 c -0.07,-0.04 -4.57,-4.3 -8.07,-13.24 -0.4,-1.03 -0.87,-2.83 -1.4,-4.9 C 116.3,35.71 108.43,5 68.09,5 27.77,5 19.88,35.71 16.54,48.84 c -0.54,2.07 -1,3.88 -1.4,4.9 -3.52,8.94 -8,13.2 -8.05,13.24 -1.59,0.92 -2.39,2.77 -1.99,4.57 0.4,1.78 1.89,3.12 3.72,3.28 25.08,2.34 38.67,5.93 47.76,8.56 l 11.5,4.08 c 2.23,-0.92 5.37,-2.25 11.52,-4.08 9.09,-2.63 22.69,-6.22 47.74,-8.56 1.83,-0.16 3.32,-1.47 3.72,-3.28 0.44,-1.78 -0.36,-3.63 -1.92,-4.57 M 42.21,56.91 c -2.99,0 -5.39,-2.41 -5.39,-5.39 0,-2.99 2.41,-5.39 5.39,-5.39 2.96,0 5.37,2.41 5.37,5.39 0,2.98 -2.4,5.39 -5.37,5.39 m 51.78,0 c -2.96,0 -5.39,-2.41 -5.39,-5.39 0,-2.99 2.43,-5.39 5.39,-5.39 2.96,0 5.39,2.41 5.39,5.39 0,2.98 -2.43,5.39 -5.39,5.39" />
	</defs>
	<clipPath
   id="SVGID_22_">
		<use
   xlink:href="#SVGID_21_"
   style="overflow:visible"
   id="use97"
   x="0"
   y="0"
   width="100%"
   height="100%" />
	</clipPath>
	<g
   class="st10"
   clip-path="url(#SVGID_22_)"
   id="g108">
		<defs
   id="defs101">
			<rect
   id="SVGID_23_"
   x="-481.01999"
   y="-434.76001"
   width="1920"
   height="1080" />
		</defs>
		<clipPath
   id="SVGID_24_">
			<use
   xlink:href="#SVGID_23_"
   style="overflow:visible"
   id="use103"
   x="0"
   y="0"
   width="100%"
   height="100%" />
		</clipPath>
		<rect
   class="st11"
   width="136.19"
   height="92.470001"
   clip-path="url(#SVGID_24_)"
   id="rect106"
   x="0"
   y="0" />
	</g>
</g>









</svg>
