<svg xmlns="http://www.w3.org/2000/svg" xmlns:svg="http://www.w3.org/2000/svg" id="svg15" width="50" height="50" version="1.1" viewBox="0 0 25 25"><defs id="defs7"><linearGradient id="A" x1="262.624" x2="375.377" y1="547.206" y2="432.484" gradientUnits="userSpaceOnUse"><stop id="stop2" offset="0" stop-color="#070135"/><stop id="stop4" offset="1" stop-color="#612d50"/></linearGradient></defs><g id="g13" transform="matrix(0.19479435,0,0,0.1944829,-49.687512,-82.718625)"><rect id="rect9" width="128.016" height="128.546" x="255.239" y="425.326" fill="url(#A)" ry="20.68" style="fill:url(#A)"/><path id="path11" fill="#fff" d="m 320.213,480.665 c 3.27,0 5.748,-0.7 7.437,-2.133 1.689,-1.433 2.533,-3.52 2.533,-6.293 0,-2.738 -0.844,-4.818 -2.533,-6.24 -1.7,-1.458 -4.168,-2.187 -7.437,-2.187 h -11.48 v 16.854 h 11.48 m 0.7,34.827 c 4.167,0 7.293,-0.87 9.377,-2.613 2.12,-1.742 3.18,-4.373 3.18,-7.893 0,-3.45 -1.042,-6.027 -3.126,-7.733 -2.084,-1.742 -5.227,-2.613 -9.43,-2.613 h -12.18 v 20.854 h 12.18 m 19.293,-28.64 c 4.455,1.28 7.904,3.645 10.347,7.093 2.443,3.448 3.664,7.68 3.665,12.694 0,7.68 -2.623,13.405 -7.868,17.174 -5.245,3.769 -13.22,5.653 -23.927,5.653 H 287.988 V 449.84 h 31.15 c 11.173,0 19.257,1.67 24.25,5.013 5.03,3.342 7.545,8.694 7.545,16.054 0,3.876 -0.916,7.182 -2.748,9.92 -1.832,2.702 -4.5,4.7 -7.976,6.027"/></g></svg>