<svg xmlns="http://www.w3.org/2000/svg" id="svg3476" width="50" height="50" version="1.1" viewBox="0 0 46.875 46.875">
  <g id="layer1" transform="translate(-10.895 -25.302) scale(.09155)">
    <g id="g3013" transform="translate(119 276.362)">
      <path id="polygon2989" style="fill:#264de4" d="m437.367 100.62-33.046 370.199L255.778 512l-148.134-41.123L74.633 100.62z"/>
      <path id="polygon2991" style="fill:#2965f1" d="M404.27 130.894H256v349.629l120.03-33.277z"/>
      <path id="polygon2993" style="fill:#ebebeb" d="M154.38 313.627H256v-45.41H150.31z"/>
      <path id="polygon2995" style="fill:#ebebeb" d="M256 176.305H142.132l4.128 45.411H256z"/>
      <path id="polygon2997" style="fill:#ebebeb" d="M177.419 336.333h-21.01l6.362 71.301 93.02 25.823.209-.058v-47.246l-.199.053-50.574-13.656-3.233-36.217z"/>
      <path id="path2999" d="M160 0h55v23h-32v23h32v23h-55z"/>
      <path id="path3001" d="M226 0h55v20h-32v4h32v46h-55V49h32v-4h-32z"/>
      <path id="path3003" d="M292 0h55v20h-32v4h32v46h-55V49h32v-4h-32z"/>
      <path id="polygon3005" style="fill:#fff" d="m349.62 399.962 10.671-119.551 1.108-12.194 8.198-91.912H255.843v45.411h63.988l-4.132 46.501h-59.856v45.41h55.918l-5.271 58.894-50.647 13.67v47.244l93.094-25.801z"/>
    </g>
  </g>
</svg>