<svg xmlns="http://www.w3.org/2000/svg" xmlns:svg="http://www.w3.org/2000/svg" xmlns:xlink="http://www.w3.org/1999/xlink" id="svg49" width="50" height="50" preserveAspectRatio="xMidYMid" version="1.1" viewBox="0 0 25 25"><defs id="defs33"><linearGradient id="A" x1="105.124" x2="258.888" y1="18.816" y2="180.747" xlink:href="#G"><stop id="stop2" offset="0%" stop-color="#f9a03c"/><stop id="stop4" offset="100%" stop-color="#f7974e"/></linearGradient><linearGradient id="B" x1="-21.438" x2="121.931" y1="48.347" y2="188.876" xlink:href="#G"><stop id="stop7" offset="0%" stop-color="#f9a03c"/><stop id="stop9" offset="100%" stop-color="#f7974e"/></linearGradient><linearGradient id="C" x1="44.776" x2="174.952" y1="97.471" y2="242.691" xlink:href="#G"><stop id="stop12" offset="0%" stop-color="#f9a03c"/><stop id="stop14" offset="100%" stop-color="#f7974e"/></linearGradient><linearGradient id="D" x1="29.009" x2="211.054" y1="-4.41" y2="222.914" xlink:href="#G"><stop id="stop17" offset="0%" stop-color="#f26d58"/><stop id="stop19" offset="100%" stop-color="#f9a03c"/></linearGradient><linearGradient id="E" x1="120.653" x2="288.266" y1="6.744" y2="126.53" xlink:href="#G"><stop id="stop22" offset="0%" stop-color="#b84e51"/><stop id="stop24" offset="100%" stop-color="#f68e48"/></linearGradient><linearGradient id="F" x1="83.051" x2="91.707" y1="171.518" y2="286.309" xlink:href="#G"><stop id="stop27" offset="0%" stop-color="#f9a03c"/><stop id="stop29" offset="100%" stop-color="#f7974e"/></linearGradient><linearGradient id="G" gradientUnits="userSpaceOnUse"/></defs><g id="g47" transform="matrix(0.09769174,0,0,0.09769174,0,0.65978624)"><path id="path35" fill="url(#A)" d="m 255.52,175.62 0.26,-3.37 C 255.858,170.91 175.218,94.4 175.218,94.4 H 173.3 c 0,0 81.736,86.215 82.23,81.22 z" style="fill:url(#A)"/><path id="path37" fill="url(#B)" d="m 83.472,149.077 -0.323,0.704 -0.35,0.734 c -2.57,5.36 35.987,43.053 39.088,38.474 l 0.424,-0.618 0.467,-0.7 c 2.48,-3.765 -38.206,-41.032 -39.307,-38.584 z" style="fill:url(#B)"/><path id="path39" fill="url(#C)" d="m 137.957,202.083 c -0.1,0.24 -0.885,1.552 -1.594,2.245 -0.12,0.24 37.64,37.688 37.64,37.688 h 3.4 c 0.002,0 -35.446,-38.35 -39.446,-39.933 z" style="fill:url(#C)"/><path id="path41" fill="url(#D)" d="m 255.835,171.568 c -1.766,39.147 -34.152,70.448 -73.72,70.448 h -5.35 l -39.514,-38.928 c 3.25,-4.584 6.272,-9.333 8.962,-14.285 h 35.902 c 11.354,0 20.594,-9.235 20.594,-20.595 0,-11.355 -9.24,-20.595 -20.594,-20.595 H 160.87 c 1.62,-8.557 2.504,-17.38 2.504,-26.408 0,-9.165 -0.9,-18.114 -2.578,-26.808 h 13.197 l 81.6,80.414 a 91.25,91.25 0 0 0 0.233,-3.243 z M 21.467,0 H 0 v 53.213 h 21.467 c 37.493,0 68,30.5 68,67.992 a 67.6,67.6 0 0 1 -6.318,28.576 l 39.163,38.6 a 120.48,120.48 0 0 0 20.376,-67.166 C 142.688,54.373 88.307,0 21.467,0 Z" style="fill:url(#D)"/><path id="path43" fill="url(#E)" d="M 182.115,0 H 95.187 C 116.42,12.963 134,31.344 145.98,53.213 h 36.136 c 11.354,0 20.594,9.235 20.594,20.595 0,11.36 -9.24,20.592 -20.595,20.592 h -8.12 l 81.6,80.413 c 0.192,-2.18 0.312,-4.376 0.312,-6.605 0,-17.94 -6.437,-34.395 -17.125,-47.203 10.688,-12.802 17.125,-29.26 17.125,-47.197 C 255.917,33.112 222.813,0 182.115,0 Z" style="fill:url(#E)"/><path id="path45" fill="url(#F)" d="M 176.765,242.016 H 95.808 c 16.296,-10.064 30.384,-23.35 41.443,-38.928 z m -54.453,-53.645 -39.16,-38.6 c -10.82,23.25 -34.395,39.422 -61.685,39.422 H 0 V 242.4 h 21.467 c 42,0 79.1,-21.488 100.845,-54.04 z" style="fill:url(#F)"/></g></svg>