<svg xmlns="http://www.w3.org/2000/svg" xmlns:xlink="http://www.w3.org/1999/xlink" id="svg49" width="50" height="50" preserveAspectRatio="xMidYMid" version="1.1" viewBox="0 0 25 25">
  <defs id="defs33">
    <linearGradient xlink:href="#G" id="A" x1="105.124" x2="258.888" y1="18.816" y2="180.747">
      <stop id="stop2" offset="0%" stop-color="#f9a03c"/>
      <stop id="stop4" offset="100%" stop-color="#f7974e"/>
    </linearGradient>
    <linearGradient xlink:href="#G" id="B" x1="-21.438" x2="121.931" y1="48.347" y2="188.876">
      <stop id="stop7" offset="0%" stop-color="#f9a03c"/>
      <stop id="stop9" offset="100%" stop-color="#f7974e"/>
    </linearGradient>
    <linearGradient xlink:href="#G" id="C" x1="44.776" x2="174.952" y1="97.471" y2="242.691">
      <stop id="stop12" offset="0%" stop-color="#f9a03c"/>
      <stop id="stop14" offset="100%" stop-color="#f7974e"/>
    </linearGradient>
    <linearGradient xlink:href="#G" id="D" x1="29.009" x2="211.054" y1="-4.41" y2="222.914">
      <stop id="stop17" offset="0%" stop-color="#f26d58"/>
      <stop id="stop19" offset="100%" stop-color="#f9a03c"/>
    </linearGradient>
    <linearGradient xlink:href="#G" id="E" x1="120.653" x2="288.266" y1="6.744" y2="126.53">
      <stop id="stop22" offset="0%" stop-color="#b84e51"/>
      <stop id="stop24" offset="100%" stop-color="#f68e48"/>
    </linearGradient>
    <linearGradient xlink:href="#G" id="F" x1="83.051" x2="91.707" y1="171.518" y2="286.309">
      <stop id="stop27" offset="0%" stop-color="#f9a03c"/>
      <stop id="stop29" offset="100%" stop-color="#f7974e"/>
    </linearGradient>
    <linearGradient id="G" gradientUnits="userSpaceOnUse"/>
  </defs>
  <g id="g47" transform="translate(0 .66) scale(.0977)">
    <path id="path35" fill="url(#A)" d="m255.52 175.62.26-3.37c.078-1.34-80.562-77.85-80.562-77.85H173.3s81.736 86.215 82.23 81.22z" style="fill:url(#A)"/>
    <path id="path37" fill="url(#B)" d="m83.472 149.077-.323.704-.35.734c-2.57 5.36 35.987 43.053 39.088 38.474l.424-.618.467-.7c2.48-3.765-38.206-41.032-39.307-38.584z" style="fill:url(#B)"/>
    <path id="path39" fill="url(#C)" d="M137.957 202.083c-.1.24-.885 1.552-1.594 2.245-.12.24 37.64 37.688 37.64 37.688h3.4c.002 0-35.446-38.35-39.446-39.933z" style="fill:url(#C)"/>
    <path id="path41" fill="url(#D)" d="M255.835 171.568c-1.766 39.147-34.152 70.448-73.72 70.448h-5.35l-39.514-38.928c3.25-4.584 6.272-9.333 8.962-14.285h35.902c11.354 0 20.594-9.235 20.594-20.595 0-11.355-9.24-20.595-20.594-20.595H160.87c1.62-8.557 2.504-17.38 2.504-26.408 0-9.165-.9-18.114-2.578-26.808h13.197l81.6 80.414a91.25 91.25 0 0 0 .233-3.243zM21.467 0H0v53.213h21.467c37.493 0 68 30.5 68 67.992a67.6 67.6 0 0 1-6.318 28.576l39.163 38.6a120.48 120.48 0 0 0 20.376-67.166C142.688 54.373 88.307 0 21.467 0Z" style="fill:url(#D)"/>
    <path id="path43" fill="url(#E)" d="M182.115 0H95.187C116.42 12.963 134 31.344 145.98 53.213h36.136c11.354 0 20.594 9.235 20.594 20.595S193.47 94.4 182.115 94.4h-8.12l81.6 80.413c.192-2.18.312-4.376.312-6.605 0-17.94-6.437-34.395-17.125-47.203 10.688-12.802 17.125-29.26 17.125-47.197C255.917 33.112 222.813 0 182.115 0Z" style="fill:url(#E)"/>
    <path id="path45" fill="url(#F)" d="M176.765 242.016H95.808c16.296-10.064 30.384-23.35 41.443-38.928zm-54.453-53.645-39.16-38.6c-10.82 23.25-34.395 39.422-61.685 39.422H0V242.4h21.467c42 0 79.1-21.488 100.845-54.04z" style="fill:url(#F)"/>
  </g>
</svg>