<?xml version="1.0" encoding="UTF-8" standalone="no"?>
<svg
   width="50"
   height="50"
   viewBox="0 0 25 25"
   preserveAspectRatio="xMidYMid"
   version="1.1"
   id="svg49"
   sodipodi:docname="d3.svg"
   inkscape:version="1.1 (c68e22c387, 2021-05-23)"
   xmlns:inkscape="http://www.inkscape.org/namespaces/inkscape"
   xmlns:sodipodi="http://sodipodi.sourceforge.net/DTD/sodipodi-0.dtd"
   xmlns:xlink="http://www.w3.org/1999/xlink"
   xmlns="http://www.w3.org/2000/svg"
   xmlns:svg="http://www.w3.org/2000/svg">
  <sodipodi:namedview
     id="namedview51"
     pagecolor="#ffffff"
     bordercolor="#111111"
     borderopacity="1"
     inkscape:pageshadow="0"
     inkscape:pageopacity="0"
     inkscape:pagecheckerboard="1"
     showgrid="false"
     width="50px"
     inkscape:zoom="13"
     inkscape:cx="33.192308"
     inkscape:cy="17.961538"
     inkscape:window-width="1920"
     inkscape:window-height="1017"
     inkscape:window-x="-8"
     inkscape:window-y="80"
     inkscape:window-maximized="1"
     inkscape:current-layer="svg49" />
  <defs
     id="defs33">
    <linearGradient
       x1="105.124"
       y1="18.816"
       x2="258.888"
       y2="180.74699"
       id="A"
       xlink:href="#G">
      <stop
         stop-color="#f9a03c"
         offset="0%"
         id="stop2" />
      <stop
         stop-color="#f7974e"
         offset="100%"
         id="stop4" />
    </linearGradient>
    <linearGradient
       x1="-21.438"
       y1="48.347"
       x2="121.931"
       y2="188.87601"
       id="B"
       xlink:href="#G">
      <stop
         stop-color="#f9a03c"
         offset="0%"
         id="stop7" />
      <stop
         stop-color="#f7974e"
         offset="100%"
         id="stop9" />
    </linearGradient>
    <linearGradient
       x1="44.776001"
       y1="97.471001"
       x2="174.952"
       y2="242.69099"
       id="C"
       xlink:href="#G">
      <stop
         stop-color="#f9a03c"
         offset="0%"
         id="stop12" />
      <stop
         stop-color="#f7974e"
         offset="100%"
         id="stop14" />
    </linearGradient>
    <linearGradient
       x1="29.009001"
       y1="-4.4099998"
       x2="211.054"
       y2="222.914"
       id="D"
       xlink:href="#G">
      <stop
         stop-color="#f26d58"
         offset="0%"
         id="stop17" />
      <stop
         stop-color="#f9a03c"
         offset="100%"
         id="stop19" />
    </linearGradient>
    <linearGradient
       x1="120.653"
       y1="6.744"
       x2="288.26599"
       y2="126.53"
       id="E"
       xlink:href="#G">
      <stop
         stop-color="#b84e51"
         offset="0%"
         id="stop22" />
      <stop
         stop-color="#f68e48"
         offset="100%"
         id="stop24" />
    </linearGradient>
    <linearGradient
       x1="83.051003"
       y1="171.51801"
       x2="91.707001"
       y2="286.30899"
       id="F"
       xlink:href="#G">
      <stop
         stop-color="#f9a03c"
         offset="0%"
         id="stop27" />
      <stop
         stop-color="#f7974e"
         offset="100%"
         id="stop29" />
    </linearGradient>
    <linearGradient
       id="G"
       gradientUnits="userSpaceOnUse" />
  </defs>
  <g
     transform="matrix(0.09769174,0,0,0.09769174,0,0.65978624)"
     id="g47">
    <path
       d="m 255.52,175.62 0.26,-3.37 C 255.858,170.91 175.218,94.4 175.218,94.4 H 173.3 c 0,0 81.736,86.215 82.23,81.22 z"
       fill="url(#A)"
       id="path35"
       style="fill:url(#A)" />
    <path
       d="m 83.472,149.077 -0.323,0.704 -0.35,0.734 c -2.57,5.36 35.987,43.053 39.088,38.474 l 0.424,-0.618 0.467,-0.7 c 2.48,-3.765 -38.206,-41.032 -39.307,-38.584 z"
       fill="url(#B)"
       id="path37"
       style="fill:url(#B)" />
    <path
       d="m 137.957,202.083 c -0.1,0.24 -0.885,1.552 -1.594,2.245 -0.12,0.24 37.64,37.688 37.64,37.688 h 3.4 c 0.002,0 -35.446,-38.35 -39.446,-39.933 z"
       fill="url(#C)"
       id="path39"
       style="fill:url(#C)" />
    <path
       d="m 255.835,171.568 c -1.766,39.147 -34.152,70.448 -73.72,70.448 h -5.35 l -39.514,-38.928 c 3.25,-4.584 6.272,-9.333 8.962,-14.285 h 35.902 c 11.354,0 20.594,-9.235 20.594,-20.595 0,-11.355 -9.24,-20.595 -20.594,-20.595 H 160.87 c 1.62,-8.557 2.504,-17.38 2.504,-26.408 0,-9.165 -0.9,-18.114 -2.578,-26.808 h 13.197 l 81.6,80.414 a 91.25,91.25 0 0 0 0.233,-3.243 z M 21.467,0 H 0 v 53.213 h 21.467 c 37.493,0 68,30.5 68,67.992 a 67.6,67.6 0 0 1 -6.318,28.576 l 39.163,38.6 a 120.48,120.48 0 0 0 20.376,-67.166 C 142.688,54.373 88.307,0 21.467,0 Z"
       fill="url(#D)"
       id="path41"
       style="fill:url(#D)" />
    <path
       d="M 182.115,0 H 95.187 C 116.42,12.963 134,31.344 145.98,53.213 h 36.136 c 11.354,0 20.594,9.235 20.594,20.595 0,11.36 -9.24,20.592 -20.595,20.592 h -8.12 l 81.6,80.413 c 0.192,-2.18 0.312,-4.376 0.312,-6.605 0,-17.94 -6.437,-34.395 -17.125,-47.203 10.688,-12.802 17.125,-29.26 17.125,-47.197 C 255.917,33.112 222.813,0 182.115,0 Z"
       fill="url(#E)"
       id="path43"
       style="fill:url(#E)" />
    <path
       d="M 176.765,242.016 H 95.808 c 16.296,-10.064 30.384,-23.35 41.443,-38.928 z m -54.453,-53.645 -39.16,-38.6 c -10.82,23.25 -34.395,39.422 -61.685,39.422 H 0 V 242.4 h 21.467 c 42,0 79.1,-21.488 100.845,-54.04 z"
       fill="url(#F)"
       id="path45"
       style="fill:url(#F)" />
  </g>
</svg>
