<?xml version="1.0" encoding="UTF-8" standalone="no"?>
<svg
   height="50"
   viewBox="0 0 25 25"
   width="50"
   version="1.1"
   id="svg10"
   sodipodi:docname="firebase.svg"
   inkscape:version="1.1 (c68e22c387, 2021-05-23)"
   xmlns:inkscape="http://www.inkscape.org/namespaces/inkscape"
   xmlns:sodipodi="http://sodipodi.sourceforge.net/DTD/sodipodi-0.dtd"
   xmlns="http://www.w3.org/2000/svg"
   xmlns:svg="http://www.w3.org/2000/svg">
  <defs
     id="defs14" />
  <sodipodi:namedview
     id="namedview12"
     pagecolor="#ffffff"
     bordercolor="#999999"
     borderopacity="1"
     inkscape:pageshadow="0"
     inkscape:pageopacity="0"
     inkscape:pagecheckerboard="0"
     showgrid="false"
     width="50px"
     inkscape:zoom="4.5961941"
     inkscape:cx="-25.129487"
     inkscape:cy="29.916056"
     inkscape:window-width="1920"
     inkscape:window-height="1017"
     inkscape:window-x="-8"
     inkscape:window-y="32"
     inkscape:window-maximized="1"
     inkscape:current-layer="svg10" />
  <path
     d="M 15.294026,9.0264529 12.799423,11.353797 10.484731,6.6717741 11.682576,3.9789276 c 0.311534,-0.5466916 0.797526,-0.5404437 1.10127,0 z"
     fill="#ffa000"
     id="path2"
     style="stroke-width:0.779911" />
  <path
     d="m 10.484731,6.6717741 2.314692,4.6820229 -9.3226341,8.696301 z"
     fill="#f57f17"
     id="path4"
     style="stroke-width:0.779911" />
  <path
     d="m 18.022279,5.4690526 c 0.445492,-0.4295434 0.906562,-0.2827176 1.024166,0.325672 l 2.426844,14.1397874 -8.04379,4.842125 C 13.149119,24.932835 12.401439,25 12.401439,25 c 0,0 -0.6807,-0.08122 -0.940051,-0.234296 L 3.4767889,20.050098 Z"
     fill="#ffca28"
     id="path6"
     style="stroke-width:0.779911" />
  <path
     d="M 10.484731,6.6717741 3.4775677,20.050098 6.5983526,0.49806414 C 6.71362,-0.11110648 7.0594219,-0.16968058 7.3678399,0.36763915 Z"
     fill="#ffa000"
     id="path8"
     style="stroke-width:0.779911" />
</svg>
