<svg xmlns="http://www.w3.org/2000/svg" xmlns:svg="http://www.w3.org/2000/svg" id="svg10" width="50" height="50" version="1.1" viewBox="0 0 25 25"><path id="path2" fill="#ffa000" d="M 15.294026,9.0264529 12.799423,11.353797 10.484731,6.6717741 11.682576,3.9789276 c 0.311534,-0.5466916 0.797526,-0.5404437 1.10127,0 z" style="stroke-width:.779911"/><path id="path4" fill="#f57f17" d="m 10.484731,6.6717741 2.314692,4.6820229 -9.3226341,8.696301 z" style="stroke-width:.779911"/><path id="path6" fill="#ffca28" d="m 18.022279,5.4690526 c 0.445492,-0.4295434 0.906562,-0.2827176 1.024166,0.325672 l 2.426844,14.1397874 -8.04379,4.842125 C 13.149119,24.932835 12.401439,25 12.401439,25 c 0,0 -0.6807,-0.08122 -0.940051,-0.234296 L 3.4767889,20.050098 Z" style="stroke-width:.779911"/><path id="path8" fill="#ffa000" d="M 10.484731,6.6717741 3.4775677,20.050098 6.5983526,0.49806414 C 6.71362,-0.11110648 7.0594219,-0.16968058 7.3678399,0.36763915 Z" style="stroke-width:.779911"/></svg>