<svg xmlns="http://www.w3.org/2000/svg" xml:space="preserve"
    style="fill-rule:evenodd;clip-rule:evenodd;stroke-linejoin:round;stroke-miterlimit:2" viewBox="0 0 336 457">
    <path
        d="M52.38 456.09c-26.13-6.53-7.26-29.93 6.46-37.55-13.6-14-27.9-30.8-30.27-51.06-1.3-11.16-.66-22.78-.67-33.98 0-6.13 2.56-83.91 1.67-84.08-1.07-.2-6.27 4.45-6.61 4.67-3.6 2.33-8 4.08-12.37 3.45-5.51-.8-11.22-10.27-10.53-15.6 1.44-11.31 20.58-18.27 30.54-16.73-1.61-31.31-8.06-61.91-6.5-93.43.5-10.04 1.53-20.05 3.06-29.98.82-5.36 4.52-11.94-.67-14.23C11.26 80.85 2.25 67.32 5.42 50.35c2.5-13.3 13-22.27 26.01-24.76 8.5-1.6 17.76-.45 25.74 2.79 5.76.55 5.42-.27 11.3-3.92C94.94 8.03 124.63 3.76 155.01 1.1c33.58-2.95 68.54-.72 98.29 16.63 2.34 1.37 7.98 7.24 10.59 6.14 5.85-2.47 11.6-4.78 18.02-5.25 15.81-1.16 31.79 5.85 36.25 22.22 4.2 15.4-2.11 31.1-16.7 38.3-7.06 3.54-3.1 7-1.46 14.26 2.39 10.6 3.8 21.43 4.67 32.24 2.41 29.91.15 60.05 1.4 90 .43 10.32 23.1 6.42 28.32 17.83 2.77 5.84-.72 14.48-5.85 18.26-5.53 4.07-20.9-5.66-21.06-5.5-1.92 1.9.64 16 .78 18.5.43 8.2.68 16.43.84 24.65.27 13.97.53 28.07-.48 42.01-2.23 30.74-12.9 59.14-32.45 82.81 8.92 4.62 18.2 14.45 18.85 24.91.42 6.66-3.97 11.35-9.77 13.9-7.59 3.3-12.67-.88-17.3-6.48-4.56-5.52-11.34-16.9-19.43-12.95-13.32 6.5-27.5 10.65-42.06 13.3-30.69 5.58-63.8 6.35-94.2-1.27-8.48-2.12-18.82-8.71-27.24-7.12-11.14 3.33-19.87 20.93-32.65 17.6-.89-.21 2.79.73 0 0"
        style="fill:#020203;fill-rule:nonzero" />
    <path
        d="M224.53 106.6c54.5-9.08 36.72-91.86-16.32-82.68-22.3 3.84-38.69 24.23-35.9 47 3.09 25.26 28.44 39.78 52.22 35.68 7.7-1.28-8.4 1.45 0 0m-104.4 3.96c20.83-5.32 35.54-26.31 31.67-47.77-4.39-24.33-30.32-39.93-54.05-33.58-21.23 5.68-34.13 25.65-31.68 47.15 2.86 25.13 31 40.02 54.06 34.2 18.77-4.8-11.48 2.9 0 0m38.33 54.37a13.85 13.85 0 0 0 6.63-6.4c2.31 7.65 13.58 9.05 18.22 2.61 3.75-5.2 1.03-16.84.33-22.95 14.44.25 22.43-12.83 9.91-23.7-6.14-5.32-10.05-4.15-12.01-11.3-1.66-6.03-7.65-8.35-13.18-8.44-6.57-.1-12.38-.46-18.1 3.13-5.62 3.51-3.84 9.92-9.24 12.62-6.87 3.6-13.14 9.92-10.88 18.27.9 3.34 3.1 6.94 6.59 8.08.89.31 10.14.86 10.14.73 0 7.03-6.16 34.6 11.59 27.35 2.34-1-3.96 1.62 0 0M141.08 445.4c-16.53-1.36-34.39-4.67-49.37-12.09-5.57-2.75-8.33-7.95-12.96-11.83-5.41-4.55-12.55-3.33-17.73-7.78-15.6-13.56-27.07-33-27.74-53.82-1.97-61.05 4.59-121.7-2.66-182.4-3.9-32.59-3.03-68.53 6.94-100 11.04-34.88 35.48-54.69 69.9-64.42 57.2-16.17 143.25-16.74 174.4 43.69 16.88 32.74 18.22 67.76 18.63 103.6.52 46.2 3.52 92.32 3.96 138.48.37 39.04-3.5 84.22-33.36 112.85-32.8 31.44-86.44 37.27-130.01 33.72-17.55-1.45 8.18.67 0 0"
        style="fill:#6cd1ef;fill-rule:nonzero" />
    <path
        d="M25.64 81.75c-14.77-7.19-21.4-26.7-11.17-40.62 9.58-13.07 29.1-13.71 42.76-7.35a152.5 152.5 0 0 0-11.2 14.88c-3.66 2.03-8.55-2.02-13.02 2.05-8.56 7.8 4.39 12.6 2.82 17.36-.82 2.48-1.62 4.97-2.45 7.44-2.09 6.6-1.2 9.37-7.74 6.24-10.53-5.12 2.45 1.17 0 0M294.23 73.73c-1.02-2.96-5.81-10.52-5.35-13.76.8-5.64 10.66-7.84 4.28-15.83-4.23-5.3-12.5.5-14.39-2.08-2.19-2.99-11.56-11.01-11.56-14.07 0-3.7 20.07-4.9 22.47-4.6 9.4 1.17 18.26 5.97 22.33 14.84 3.6 7.83 3.6 17.86-.66 25.42-2.2 3.9-14.67 17.71-17.12 10.08-.56-1.62.5 1.56 0 0"
        style="fill:#6cd1ef;fill-rule:nonzero" />
    <path
        d="M51.32 452.91c-9.3-3.44 3.85-13.23 5.38-17.69 1.6-4.63-6.43 4.26-5.93 3.57-1.85 2.6-5.2 6.68-5.3 10.11.16-3.67-5.75-4.69-3.03-11.37 2.65-6.5 8.64-11.43 14.58-14.84 6.11-3.51 14.82-3.91 20.23 1.3 3.12 3.01 10 7.73 10 10.87 0-.1-11.12 5.34-11.87 5.9-6.94 5.03-14.27 15.65-24.06 12.15-3.62-1.34 3.12 1.12 0 0M273.78 448.96c-6.46-6.23-10.36-15.65-19.23-18.55-1.22-.4 12.65-11.7 15.06-12.57 13.92-5 30.61 19.6 18.88 30.67-.8-3.84-2.39-7.4-4.19-10.87-1.1-2.1-7.8-8-5.1-3.43 2.6 4.42 6.95 9.74 6.95 15.2 0 4.73-10.75 1.02-12.37-.45-1.56-1.5 2.62 2.4 0 0M11.2 255.07c-13-1.85 2.02-9.56 1.57-11.25-.63-2.37-15.54 9.66-9.3-4.77 3.07-7.13 17.83-11.44 24.96-11.44 3.18 0 3.01 14.77 1.5 17.5-2.87 5.14-12.82 10.66-18.72 9.96-1.95-.27.95.12 0 0M320.75 250.34c-15.27-3.49-14.17-15.2-14.54-27.19 7.32.16 19.3 3.57 24.34 9.14 1.21 1.35 4.58 10.91.56 11.07-1.46.05-7.8-6.48-9.02-5.05-1.71 3.43 2.98 3.62 5.21 5.48 5 4.16-3.17 8.55-6.55 6.55-2.06-1.22 0 0 0 0ZM182.86 135.63c-6.49-1.01-12.94-6.53-19.65-5.26-8.17 1.55-17.34 6.73-25.8 4.08-13.28-4.16.29-27.6 11.8-21.66 7.4 3.9 17.12 4.89 24.65.83 6.67-3.6 6.68-4.54 13.66-.42 12.36 7.3 13.03 25.5-4.66 22.43-2.5-.4 3.85.67 0 0"
        style="fill:#dcc8bb;fill-rule:nonzero" />
    <path
        d="M151 162.31c-5.87-2.81-2.68-17.59-2-22.08.88-5.74 10.38-6.56 15.2-7.33-.25 6.87 2.23 37.13-13.2 29.41-2.9-1.39 1.77.9 0 0M169.98 161.9c-5.71-3.74-3.78-16.52-3.52-21.79.49-9.87 2.95-6.1 11.12-3.18 10.26 3.68 6.98 34.4-7.6 24.97-2.4-1.57 3.42 2.21 0 0"
        style="fill:#fef6f1;fill-rule:nonzero" />
    <path
        d="M91.71 70.5c-3.34-3.35 1.64-8.36 5.07-5.11 3.38 3.2-1.7 8.47-5.07 5.1-2.22-2.22 2.29 2.3 0 0M199.24 70.05c-3.45-2.76.53-7.45 4.04-5.72 4.6 2.26.15 9.2-4.04 5.72-1.4-1.11 1.62 1.34 0 0"
        style="fill:#fffbfa;fill-rule:nonzero" />
    <path
        d="M94.06 76.13c14.44-8.13 4.9-29.64-10.92-25.94-20.65 4.83-7.83 36.44 10.92 25.94 3.56-2.01-12.43 6.96 0 0m7.13 32.53c-42-8.4-43.92-68.5-.52-77.36 23.8-4.86 48.5 12.24 48.97 37.26.48 25.23-23.27 45.52-48.45 40.1-4.18-.83 5.96 1.28 0 0M199.57 76.52c17.55-7.02 5.15-31.92-11.04-26.02-15.54 5.66-6.14 32.83 11.04 26.02 6.13-2.46-5.9 2.34 0 0m9.14 27.96c-52.17-9.62-42.53-83.1 12.09-78.25 19.77 1.76 35.43 21.67 35.16 43.88-3.06 23.9-23.86 37.3-47.25 34.37-9.3-1.11 12.93 1.62 0 0"
        style="fill:#fef6f1;fill-rule:nonzero" />
</svg>