<?xml version="1.0" encoding="UTF-8" standalone="no"?>
<svg
   width="50"
   height="50"
   version="1.1"
   id="svg12"
   sodipodi:docname="google analytics.svg"
   inkscape:version="1.1 (c68e22c387, 2021-05-23)"
   xmlns:inkscape="http://www.inkscape.org/namespaces/inkscape"
   xmlns:sodipodi="http://sodipodi.sourceforge.net/DTD/sodipodi-0.dtd"
   xmlns="http://www.w3.org/2000/svg"
   xmlns:svg="http://www.w3.org/2000/svg">
  <defs
     id="defs16" />
  <sodipodi:namedview
     id="namedview14"
     pagecolor="#ffffff"
     bordercolor="#111111"
     borderopacity="1"
     inkscape:pageshadow="0"
     inkscape:pageopacity="0"
     inkscape:pagecheckerboard="1"
     showgrid="false"
     width="50px"
     inkscape:zoom="13"
     inkscape:cx="27.192308"
     inkscape:cy="26.5"
     inkscape:window-width="1920"
     inkscape:window-height="1017"
     inkscape:window-x="-8"
     inkscape:window-y="80"
     inkscape:window-maximized="1"
     inkscape:current-layer="svg12" />
  <g
     transform="matrix(0.28409231,0,0,0.28409091,-2.2728618,-2.2727273)"
     id="g10">
    <path
       d="m 130,29 v 132 c 0,14.77 10.2,23 21,23 10,0 21,-7 21,-23 V 30 C 172,16.46 162,8 151,8 140,8 130,17.33 130,29 Z"
       fill="#f9ab00"
       id="path2" />
    <g
       fill="#e37400"
       id="g8">
      <path
         d="m 75,96 v 65 c 0,14.77 10.2,23 21,23 10,0 21,-7 21,-23 V 97 C 117,83.46 107,75 96,75 85,75 75,84.33 75,96 Z"
         id="path4" />
      <circle
         cx="41"
         cy="163"
         r="21"
         id="circle6" />
    </g>
  </g>
</svg>
