<?xml version="1.0" encoding="UTF-8" standalone="no"?>
<svg
   width="50"
   height="50"
   version="1.1"
   id="svg10"
   sodipodi:docname="google cloud.svg"
   inkscape:version="1.1 (c68e22c387, 2021-05-23)"
   xmlns:inkscape="http://www.inkscape.org/namespaces/inkscape"
   xmlns:sodipodi="http://sodipodi.sourceforge.net/DTD/sodipodi-0.dtd"
   xmlns="http://www.w3.org/2000/svg"
   xmlns:svg="http://www.w3.org/2000/svg">
  <defs
     id="defs14" />
  <sodipodi:namedview
     id="namedview12"
     pagecolor="#ffffff"
     bordercolor="#111111"
     borderopacity="1"
     inkscape:pageshadow="0"
     inkscape:pageopacity="0"
     inkscape:pagecheckerboard="1"
     showgrid="false"
     width="50px"
     inkscape:zoom="13"
     inkscape:cx="25.5"
     inkscape:cy="35.961538"
     inkscape:window-width="1920"
     inkscape:window-height="1017"
     inkscape:window-x="-8"
     inkscape:window-y="80"
     inkscape:window-maximized="1"
     inkscape:current-layer="svg10" />
  <path
     d="m 31.81875,16.006319 1.601563,0.02734 4.351562,-4.35159 0.210938,-1.8437609 C 34.53125,6.7632928 29.974219,4.890625 24.994531,4.890625 c -9.015625,0 -16.6249997,6.134413 -18.8773435,14.44384 0.475,-0.331252 1.490625,-0.08281 1.490625,-0.08281 l 8.6953125,-1.429699 c 0,0 0.446875,-0.739848 0.673437,-0.703129 A 10.84375,10.843817 0 0 1 25,13.574273 c 2.578125,0.0055 4.953125,0.916412 6.81875,2.423452 z"
     fill="#ea4335"
     id="path2"
     style="stroke-width:0.781252" />
  <path
     d="M 43.882812,19.351653 C 42.872656,15.625067 40.790625,12.334421 37.980469,9.8383121 L 31.81875,16.000069 c 2.46875,1.9922 4.052344,5.040656 4.052344,8.453178 v 1.087506 c 2.997656,0 5.432812,2.440641 5.432812,5.432846 0,2.997676 -2.440625,5.432847 -5.432812,5.432847 H 25.005469 l -1.0875,1.093757 v 6.520352 l 1.0875,1.082039 H 35.871094 A 14.148438,14.148526 0 0 0 50,30.974381 C 49.9945,26.165757 47.578125,21.911825 43.882812,19.352434 Z"
     fill="#4285f4"
     id="path4"
     style="stroke-width:0.781252" />
  <path
     d="M 14.128906,45.109625 H 24.988281 V 36.406446 H 14.128906 a 5.3828125,5.382846 0 0 1 -2.235937,-0.48594 l -1.567969,0.480471 -4.3515625,4.35159 -0.38125,1.468759 a 14.0625,14.062587 0 0 0 8.5359375,2.882049 z"
     fill="#34a853"
     id="path6"
     style="stroke-width:0.781252" />
  <path
     d="M 14.128906,16.851637 A 14.148438,14.148526 0 0 0 0,30.979849 c 0,4.588311 2.1976563,8.668023 5.5984375,11.252414 L 11.898438,35.932224 A 5.4375,5.4375338 0 0 1 8.6960937,30.979849 c 0,-2.997674 2.4406253,-5.432846 5.4328123,-5.432846 2.203125,0 4.096875,1.328134 4.953125,3.203145 l 6.3,-6.300039 C 22.798437,19.049307 18.717969,16.851637 14.129687,16.851637 Z"
     fill="#fbbc05"
     id="path8"
     style="stroke-width:0.781252" />
</svg>
