<svg width="50" height="50" version="1.1" id="svg10" xmlns="http://www.w3.org/2000/svg">
  <path d="m31.819 16.006 1.601.028 4.352-4.352.21-1.844a19.476 19.476 0 0 0-12.987-4.947c-9.016 0-16.625 6.134-18.878 14.443.475-.33 1.49-.082 1.49-.082l8.696-1.43s.447-.74.674-.703A10.844 10.844 0 0 1 25 13.574a10.87 10.87 0 0 1 6.819 2.424z" fill="#ea4335" id="path2" style="stroke-width:.781252"/>
  <path d="M43.883 19.352a19.588 19.588 0 0 0-5.903-9.514L31.82 16a10.844 10.844 0 0 1 4.052 8.453v1.088a5.44 5.44 0 0 1 5.433 5.433 5.44 5.44 0 0 1-5.433 5.432H25.005L23.918 37.5v6.52l1.087 1.083h10.866A14.148 14.149 0 0 0 50 30.974c-.005-4.808-2.422-9.062-6.117-11.622Z" fill="#4285f4" id="path4" style="stroke-width:.781252"/>
  <path d="M14.129 45.11h10.86v-8.704h-10.86a5.383 5.383 0 0 1-2.236-.485l-1.568.48-4.352 4.352-.38 1.468a14.063 14.063 0 0 0 8.535 2.882z" fill="#34a853" id="path6" style="stroke-width:.781252"/>
  <path d="M14.129 16.852A14.148 14.149 0 0 0 0 30.98c0 4.588 2.198 8.668 5.598 11.252l6.3-6.3a5.438 5.438 0 0 1-3.202-4.952 5.44 5.44 0 0 1 5.433-5.433c2.203 0 4.097 1.328 4.953 3.203l6.3-6.3c-2.584-3.4-6.664-5.598-11.252-5.598Z" fill="#fbbc05" id="path8" style="stroke-width:.781252"/>
</svg>