<?xml version="1.0" encoding="UTF-8" standalone="no"?>
<svg
   viewBox="0 0 50 50"
   version="1.1"
   id="svg14"
   sodipodi:docname="html.svg"
   width="50"
   height="50"
   inkscape:version="1.1 (c68e22c387, 2021-05-23)"
   xmlns:inkscape="http://www.inkscape.org/namespaces/inkscape"
   xmlns:sodipodi="http://sodipodi.sourceforge.net/DTD/sodipodi-0.dtd"
   xmlns="http://www.w3.org/2000/svg"
   xmlns:svg="http://www.w3.org/2000/svg"
   xmlns:rdf="http://www.w3.org/1999/02/22-rdf-syntax-ns#"
   xmlns:cc="http://creativecommons.org/ns#"
   xmlns:dc="http://purl.org/dc/elements/1.1/">
  <defs
     id="defs18" />
  <sodipodi:namedview
     id="namedview16"
     pagecolor="#ffffff"
     bordercolor="#111111"
     borderopacity="1"
     inkscape:pageshadow="0"
     inkscape:pageopacity="0"
     inkscape:pagecheckerboard="1"
     showgrid="false"
     width="50px"
     inkscape:zoom="1.625"
     inkscape:cx="191.69231"
     inkscape:cy="201.53846"
     inkscape:window-width="1920"
     inkscape:window-height="1017"
     inkscape:window-x="-8"
     inkscape:window-y="80"
     inkscape:window-maximized="1"
     inkscape:current-layer="svg14" />
  <title
     id="title2">HTML5 Logo</title>
  <path
     d="m 10.585937,0 h 2.246094 v 2.2265625 h 2.070312 V 0 h 2.246094 V 6.7382812 H 14.902343 V 4.4921875 h -2.050781 v 2.2460937 h -2.265625 m 9.53125,-4.4921874 H 18.134765 V 0 h 6.220703 V 2.2460938 H 22.363281 V 6.7382812 H 20.117187 M 25.341797,0 h 2.353515 L 29.140625,2.3730469 30.585937,0 h 2.353519 V 6.7382812 H 30.693359 V 3.3984375 l -1.572266,2.421875 -1.572265,-2.421875 V 6.7382812 H 25.341797 M 34.052736,0 h 2.24609 v 4.5117187 h 3.1836 v 2.2265625 h -5.42969"
     id="path4"
     style="stroke-width:0.0976562" />
  <path
     fill="#e44d26"
     d="M 10.507812,45.996094 7.2851562,9.8242188 H 42.714846 L 39.492186,45.976562 24.970703,50"
     id="path6"
     style="stroke-width:0.0976562" />
  <path
     fill="#f16529"
     d="M 25,46.923828 V 12.792969 h 14.482426 l -2.76368,30.859375"
     id="path8"
     style="stroke-width:0.0976562" />
  <path
     fill="#ebebeb"
     d="M 13.867187,17.216797 H 25 v 4.433594 h -6.269532 l 0.410157,4.541015 H 25 v 4.423828 h -9.921875 m 0.195312,2.226563 h 4.453125 l 0.3125,3.544922 L 25,37.714844 v 4.628906 l -9.101563,-2.539062"
     id="path10"
     style="stroke-width:0.0976562" />
  <path
     fill="#ffffff"
     d="M 36.093746,17.216797 H 24.980468 v 4.433594 h 10.703128 m -0.40039,4.541015 H 24.980468 V 30.625 h 5.46875 l -0.517578,5.761719 -4.951172,1.328125 v 4.609375 l 9.082028,-2.519532"
     id="path12"
     style="stroke-width:0.0976562" />
  <metadata
     id="metadata20">
    <rdf:RDF>
      <cc:Work
         rdf:about="">
        <dc:title>HTML5 Logo</dc:title>
      </cc:Work>
    </rdf:RDF>
  </metadata>
</svg>
