<svg xmlns="http://www.w3.org/2000/svg" id="svg14" width="50" height="50" version="1.1">
  <path id="path4" d="M10.586 0h2.246v2.227h2.07V0h2.246v6.738h-2.246V4.492h-2.05v2.246h-2.266m9.531-4.492h-1.982V0h6.22v2.246h-1.992v4.492h-2.246M25.342 0h2.353l1.446 2.373L30.586 0h2.353v6.738h-2.246v-3.34L29.121 5.82 27.55 3.398v3.34h-2.207M34.052 0H36.3v4.512h3.183v2.226h-5.43" style="stroke-width:.0976562"/>
  <path id="path6" fill="#e44d26" d="M10.508 45.996 7.285 9.824h35.43l-3.223 36.153L24.971 50" style="stroke-width:.0976562"/>
  <path id="path8" fill="#f16529" d="M25 46.924V12.793h14.482l-2.763 30.86" style="stroke-width:.0976562"/>
  <path id="path10" fill="#ebebeb" d="M13.867 17.217H25v4.433h-6.27l.41 4.541H25v4.424h-9.922m.195 2.227h4.454l.312 3.545L25 37.715v4.629l-9.102-2.54" style="stroke-width:.0976562"/>
  <path id="path12" fill="#fff" d="M36.094 17.217H24.98v4.433h10.704m-.4 4.541H24.98v4.434h5.47l-.518 5.762-4.952 1.328v4.61l9.082-2.52" style="stroke-width:.0976562"/>
</svg>