<svg xmlns="http://www.w3.org/2000/svg" viewBox="0 0 1140 1197"><defs><clipPath id="clip0"><path d="M1264 364h1140v1197H1264z"/></clipPath></defs><g stroke-miterlimit="8" clip-path="url(#clip0)" transform="translate(-1264 -364)"><path fill="none" stroke="#0D0D0D" stroke-width="27.5" d="m1873 1044 263.91 431.02"/><path fill="none" stroke="#000" stroke-width="27.5" d="m1802.92 997-204.924 431.024"/><path fill="none" stroke="#0D0D0D" stroke-width="27.5" d="m1928 602 242.17 262.956"/><path fill="none" stroke="#000" stroke-width="27.5" d="M1833 642v182.263M1738.17 602 1496 868.083"/><path fill="none" stroke="#85B44D" stroke-width="20.625" d="M1833.5 642.5v182.263"/><path fill="none" stroke="#938EE0" stroke-width="20.625" d="M1738.67 602.5 1496.5 868.583"/><path fill="none" stroke="#00BD7E" stroke-width="20.625" d="m1928.5 602.5 242.17 262.956"/><path fill="none" stroke="#4AC4E2" stroke-width="20.625" d="m1839.5 989.5 263.91 431.02"/><path fill="none" stroke="#E54400" stroke-width="20.625" d="m1808.42 989.5-204.924 431.024"/><path fill="#FFCF0A" fill-rule="evenodd" stroke="#0D0D0D" stroke-width="4.583" d="M1698.5 504.5c0-76.215 60.44-138 135-138s135 61.785 135 138-60.44 138-135 138-135-61.785-135-138Z"/><path fill="#938EE0" fill-rule="evenodd" stroke="#0D0D0D" stroke-width="4.583" d="M1266.5 965.5c0-76.215 60.22-138 134.5-138s134.5 61.785 134.5 138c0 76.22-60.22 138-134.5 138s-134.5-61.78-134.5-138Z"/><path fill="#85B44D" fill-rule="evenodd" stroke="#0D0D0D" stroke-width="4.583" d="M1698.5 962.5c0-76.215 60.44-138 135-138s135 61.785 135 138c0 76.22-60.44 138-135 138s-135-61.78-135-138Z"/><path fill="#00BD7E" fill-rule="evenodd" stroke="#0D0D0D" stroke-width="4.583" d="M2131.5 962.5c0-76.215 60.44-138 135-138s135 61.785 135 138c0 76.22-60.44 138-135 138s-135-61.78-135-138Z"/><path fill="#E54400" fill-rule="evenodd" stroke="#0D0D0D" stroke-width="4.583" d="M1429.5 1420.5c0-76.22 60.22-138 134.5-138s134.5 61.78 134.5 138-60.22 138-134.5 138-134.5-61.78-134.5-138Z"/><path fill="#4AC4E2" fill-rule="evenodd" stroke="#0D0D0D" stroke-width="4.583" d="M1969.5 1420.5c0-76.22 60.22-138 134.5-138s134.5 61.78 134.5 138-60.22 138-134.5 138-134.5-61.78-134.5-138Z"/></g></svg>