<svg xmlns="http://www.w3.org/2000/svg" id="svg6" width="50" height="50" version="1.1">
  <path id="rect2" fill="#f7df1e" style="stroke-width:.0793651" d="M0 0h50v50H0z"/>
  <path id="path4" d="M33.587 39.063c1.007 1.644 2.318 2.853 4.635 2.853 1.947 0 3.19-.973 3.19-2.318 0-1.61-1.277-2.181-3.42-3.119l-1.175-.504c-3.39-1.444-5.642-3.254-5.642-7.079 0-3.524 2.685-6.206 6.88-6.206 2.988 0 5.135 1.04 6.683 3.762L41.08 28.8c-.805-1.445-1.674-2.014-3.023-2.014-1.377 0-2.249.873-2.249 2.014 0 1.41.873 1.98 2.889 2.853l1.175.503c3.992 1.712 6.246 3.457 6.246 7.381 0 4.23-3.323 6.548-7.786 6.548-4.364 0-7.183-2.08-8.562-4.805zm-16.597.407c.738 1.31 1.41 2.417 3.023 2.417 1.544 0 2.518-.604 2.518-2.953V22.958h4.698v16.04c0 4.865-2.852 7.079-7.016 7.079-3.761 0-5.94-1.947-7.048-4.292z" style="stroke-width:.0793651"/>
</svg>