<?xml version="1.0" encoding="UTF-8" standalone="no"?>
<svg
   viewBox="0 0 50 50"
   version="1.1"
   id="svg6"
   sodipodi:docname="javascript.svg"
   width="50"
   height="50"
   inkscape:version="1.1 (c68e22c387, 2021-05-23)"
   xmlns:inkscape="http://www.inkscape.org/namespaces/inkscape"
   xmlns:sodipodi="http://sodipodi.sourceforge.net/DTD/sodipodi-0.dtd"
   xmlns="http://www.w3.org/2000/svg"
   xmlns:svg="http://www.w3.org/2000/svg">
  <defs
     id="defs10" />
  <sodipodi:namedview
     id="namedview8"
     pagecolor="#ffffff"
     bordercolor="#111111"
     borderopacity="1"
     inkscape:pageshadow="0"
     inkscape:pageopacity="0"
     inkscape:pagecheckerboard="1"
     showgrid="false"
     width="50px"
     inkscape:zoom="0.93382991"
     inkscape:cx="-3.7480059"
     inkscape:cy="186.86487"
     inkscape:window-width="1920"
     inkscape:window-height="1017"
     inkscape:window-x="-8"
     inkscape:window-y="80"
     inkscape:window-maximized="1"
     inkscape:current-layer="svg6" />
  <rect
     width="50"
     height="50"
     fill="#f7df1e"
     id="rect2"
     x="0"
     y="0"
     style="stroke-width:0.0793651" />
  <path
     d="m 33.587302,39.062698 c 1.007142,1.644445 2.31746,2.853175 4.63492,2.853175 1.946826,0 3.190476,-0.973016 3.190476,-2.31746 0,-1.611111 -1.277777,-2.181746 -3.420635,-3.119048 L 36.81746,35.975397 c -3.390476,-1.444445 -5.642857,-3.253968 -5.642857,-7.079365 0,-3.52381 2.684921,-6.206349 6.880953,-6.206349 2.987301,0 5.13492,1.039682 6.682539,3.761904 l -3.65873,2.349207 c -0.805555,-1.444445 -1.674603,-2.013492 -3.023809,-2.013492 -1.376191,0 -2.248413,0.873015 -2.248413,2.013492 0,1.409523 0.873016,1.980158 2.888889,2.853174 l 1.174603,0.503175 c 3.992063,1.711905 6.246032,3.457143 6.246032,7.380952 0,4.230159 -3.323016,6.547619 -7.785715,6.547619 -4.363492,0 -7.182539,-2.079365 -8.561904,-4.804762 z m -16.597619,0.407143 c 0.738095,1.309524 1.409523,2.416667 3.023809,2.416667 1.543651,0 2.51746,-0.603968 2.51746,-2.952381 v -15.97619 h 4.698413 v 16.039682 c 0,4.865079 -2.852381,7.079365 -7.015873,7.079365 -3.761905,0 -5.940476,-1.946825 -7.048413,-4.291667 z"
     id="path4"
     style="stroke-width:0.0793651" />
</svg>
