<svg xmlns="http://www.w3.org/2000/svg" xmlns:svg="http://www.w3.org/2000/svg" id="svg4" width="50" height="50" fill="#0868ac" version="1.1" viewBox="0 0 25 25"><path id="path2" d="m 1.5873951,6.1167546 c -2.2121286,3.1762268 -1.93854378,7.3076624 -0.247008,10.6914754 0.039083,0.08116 0.082076,0.160762 0.1235041,0.240363 l 0.078167,0.152179 c 0.015633,0.02966 0.03283,0.05853 0.049245,0.0874 0.028922,0.05463 0.058626,0.104574 0.088329,0.157641 l 0.1618058,0.276261 0.092237,0.151398 0.187601,0.29265 0.07973,0.123303 c 0.088329,0.131107 0.1782209,0.262214 0.2712398,0.3902 l 0.053153,0.0718 a 12.811586,12.790752 0 0 0 0.247008,0.327768 l 0.0938,0.118621 0.2282479,0.280944 0.087547,0.104573 c 0.1039622,0.122523 0.2110511,0.244266 0.31814,0.362887 0.010943,0.0117 0.015633,0.01561 0.01876,0.02029 a 15.977353,15.95137 0 0 0 0.3236118,0.340255 l 0.1039622,0.104574 0.2579514,0.252849 0.1055256,0.101451 a 13.272772,13.251188 0 0 0 0.3540969,0.321526 l 0.3877087,0.327768 0.1328841,0.106134 0.2681131,0.209147 0.1430458,0.109257 0.3009433,0.21539 0.1407007,0.09911 c 0.096146,0.06633 0.1938544,0.129547 0.292345,0.192759 l 0.1266307,0.08428 a 16.266572,16.240118 0 0 0 0.4572774,0.279384 l 0.1266307,0.07804 0.3439352,0.191978 c 0.062534,0.03356 0.1266307,0.06555 0.1899461,0.09755 l 0.2454443,0.127205 0.057062,0.02731 0.1016173,0.04838 0.3892717,0.179492 0.082076,0.03668 a 13.937192,13.914527 0 0 0 0.4541507,0.188075 l 0.1094339,0.0437 0.4283558,0.158421 0.054716,0.01873 a 16.977892,16.950282 0 0 0 0.4768186,0.15608 l 0.1156883,0.03434 c 0.156334,0.04917 0.325175,0.109256 0.492453,0.138911 10.7042,1.948658 13.812124,-6.42269 13.812124,-6.42269 -2.610781,3.396301 -7.246089,4.292199 -11.646897,3.294848 -0.166495,-0.03746 -0.328301,-0.08897 -0.490107,-0.13735 l -0.12194,-0.03668 a 14.554712,14.531043 0 0 1 -0.472129,-0.153739 l -0.06488,-0.02341 a 16.313472,16.286942 0 0 1 -0.415847,-0.153728 l -0.11725,-0.04682 A 11.850131,11.830859 0 0 1 10.614911,20.36842 l -0.08989,-0.03902 -0.37911,-0.176371 -0.109434,-0.05228 c -0.09849,-0.04682 -0.1954203,-0.09911 -0.2931293,-0.15608 L 9.5479298,19.843208 C 9.4291159,19.780777 9.3134287,19.713662 9.1961781,19.646548 L 9.0773642,19.580216 A 17.009158,16.981498 0 0 1 8.6200868,19.300833 c -0.041428,-0.02653 -0.082076,-0.05463 -0.1235039,-0.08194 L 8.1714078,19.00272 C 8.1354508,18.97931 8.0932408,18.95277 8.0666639,18.92936 L 7.758687,18.706943 7.6218944,18.60393 7.3444013,18.386979 7.2208972,18.287868 6.8753988,17.996779 a 0.57061975,0.5696918 0 0 0 -0.039083,-0.03121 L 6.4728382,17.635454 6.371221,17.537124 6.1117063,17.279592 6.0100891,17.17814 c -0.109434,-0.111597 -0.2157412,-0.223975 -0.3126684,-0.338694 -0.00547,-0.0055 -0.010943,-0.01093 -0.015633,-0.01716 A 13.272772,13.251188 0 0 1 5.3566122,16.452368 L 5.2784451,16.350916 5.0439439,16.062168 4.9657767,15.955254 4.6953186,15.596269 C 2.2424354,12.27801 1.3654006,7.6908208 3.3148878,3.9292941 M 8.4582821,3.4415443 C 6.8574203,5.7413822 6.9441858,8.8263023 8.1925143,11.251784 a 10.208622,10.19202 0 0 0 0.7081935,1.179964 c 0.2399728,0.343377 0.5057414,0.751526 0.8238815,1.027007 0.1156873,0.127205 0.2360644,0.249728 0.3595687,0.372251 l 0.0938,0.09365 a 10.482207,10.46516 0 0 0 0.366603,0.340254 c 0.0055,0.0039 0.0094,0.0094 0.01563,0.01327 0.142265,0.124864 0.286092,0.23412 0.432264,0.357424 l 0.09693,0.0757 a 10.52129,10.50418 0 0 0 0.448679,0.326987 l 0.01329,0.0094 c 0.06722,0.04682 0.136011,0.08975 0.204798,0.13501 0.03283,0.02107 0.0641,0.0437 0.09693,0.06399 a 9.0986492,9.0838531 0 0 0 0.33221,0.202903 l 0.0469,0.02731 0.293908,0.15608 c 0.03439,0.01951 0.07817,0.0359 0.104744,0.05463 l 0.205579,0.106135 c 0.01016,0.0055 0.02111,0.0094 0.03127,0.01405 a 8.9032313,8.8887526 0 0 0 0.428355,0.199002 l 0.0938,0.03902 a 11.06846,11.05046 0 0 0 0.351751,0.142032 l 0.150082,0.05463 a 11.146627,11.1285 0 0 0 0.32283,0.111597 l 0.146172,0.04682 c 0.153989,0.04682 0.312668,0.109256 0.466657,0.13501 8.264607,1.36726 10.172665,-4.994559 10.172665,-4.994559 -1.719675,2.473868 -5.049594,3.652271 -8.604632,2.731399 a 10.208622,10.19202 0 0 1 -0.468222,-0.135008 c -0.0469,-0.01405 -0.0938,-0.02966 -0.1407,-0.04527 l -0.328301,-0.11241 -0.156333,-0.05463 a 11.787597,11.768428 0 0 1 -0.351752,-0.14203 l -0.09536,-0.03902 A 9.83342,9.8174288 0 0 1 14.423222,13.544598 L 14.2067,13.435342 14.081632,13.371348 a 10.286789,10.270061 0 0 1 -0.273585,-0.15374 l -0.06566,-0.03668 a 9.6458188,9.6301324 0 0 1 -0.331428,-0.202904 c -0.03361,-0.02107 -0.06644,-0.04448 -0.100053,-0.06633 l -0.214961,-0.142032 a 10.349323,10.332492 0 0 1 -0.445552,-0.326207 l -0.101617,-0.07804 C 10.985424,11.138626 9.7597642,9.4623284 9.1735114,7.5628353 8.5591177,5.5923259 8.6912199,3.3798928 9.7558559,1.5849733 M 14.236394,1.4421601 c -0.942696,1.3930136 -1.036495,3.1083322 -0.381455,4.6394765 0.690215,1.6255726 2.105039,2.8999654 3.75671,3.511799 l 0.204798,0.078041 0.09067,0.028093 0.294689,0.078041 C 22.765201,10.6579 24.001804,7.4395328 24.332451,6.9658302 23.248273,8.5242895 21.426199,8.8981006 19.19062,8.3565035 19.013963,8.3135822 18.820108,8.2495889 18.649703,8.1894976 A 6.6129358,6.6021817 0 0 1 18.007174,7.9233804 6.6442026,6.6333977 0 0 1 16.880786,7.2374086 C 14.880491,5.7226527 13.637634,2.8242481 14.943024,0.47056249" style="stroke-width:.781035"/></svg>