<svg xmlns="http://www.w3.org/2000/svg" id="svg4" width="50" height="50" fill="#0868ac" version="1.1" viewBox="0 0 25 25">
  <path id="path2" d="M1.587 6.117C-.625 9.293-.35 13.424 1.34 16.808c.04.081.082.161.124.24l.078.153c.016.03.033.058.05.087.028.055.058.105.088.158l.161.276.093.151.187.293.08.123c.088.132.178.263.271.39l.053.072a12.812 12.79 0 0 0 .247.328l.094.119.228.28.088.105c.104.123.211.245.318.363l.019.02a15.977 15.951 0 0 0 .324.34l.103.105.258.253.106.102a13.273 13.251 0 0 0 .354.321l.388.328.133.106.268.21.143.108.3.216.141.099c.097.066.194.13.293.193l.126.084a16.267 16.24 0 0 0 .458.28l.126.077.344.192c.063.034.127.066.19.098l.246.127.057.027.101.049.39.18.082.036a13.937 13.915 0 0 0 .454.188l.11.044.428.158.054.019a16.978 16.95 0 0 0 .477.156l.116.034c.156.05.325.11.492.14 10.704 1.948 13.812-6.423 13.812-6.423-2.61 3.396-7.246 4.292-11.646 3.294-.167-.037-.329-.089-.49-.137l-.123-.037a14.555 14.531 0 0 1-.472-.153l-.065-.024a16.313 16.287 0 0 1-.415-.153l-.118-.047a11.85 11.83 0 0 1-.45-.188l-.089-.039-.38-.176-.109-.052a3.943 3.943 0 0 1-.293-.156l-.195-.102c-.119-.062-.235-.13-.352-.196l-.119-.067a17.01 16.981 0 0 1-.457-.28l-.123-.081-.326-.216c-.036-.024-.078-.05-.104-.074l-.308-.222-.137-.103-.278-.217-.123-.1-.346-.29a.57.57 0 0 0-.039-.031l-.363-.33-.102-.099-.26-.257-.1-.102a6.265 6.265 0 0 1-.314-.339l-.015-.017a13.273 13.251 0 0 1-.325-.37l-.079-.101-.234-.289-.078-.107-.27-.359C2.241 12.278 1.365 7.691 3.314 3.93m5.143-.487c-1.6 2.3-1.514 5.384-.265 7.81a10.209 10.192 0 0 0 .708 1.18c.24.343.505.751.824 1.027.115.127.236.25.36.372l.093.094a10.482 10.465 0 0 0 .367.34c.005.004.009.01.015.013.142.125.286.234.432.358l.097.075a10.521 10.504 0 0 0 .45.327l.012.01c.068.047.136.09.205.135.033.02.064.043.097.064a9.099 9.084 0 0 0 .332.203l.047.027.294.156c.034.02.078.036.105.055l.205.106.032.014a8.903 8.889 0 0 0 .428.199l.094.039a11.068 11.05 0 0 0 .352.142l.15.054a11.147 11.129 0 0 0 .323.112l.146.047c.154.047.312.11.466.135C23.092 17.903 25 11.54 25 11.54c-1.72 2.474-5.05 3.653-8.605 2.732a10.209 10.192 0 0 1-.468-.135 3.273 3.273 0 0 1-.14-.046l-.329-.112-.156-.055a11.788 11.768 0 0 1-.352-.142l-.095-.039a9.833 9.817 0 0 1-.432-.2l-.216-.109-.125-.064a10.287 10.27 0 0 1-.274-.153l-.066-.037a9.646 9.63 0 0 1-.331-.203c-.034-.021-.066-.044-.1-.066l-.215-.142a10.35 10.332 0 0 1-.446-.327l-.101-.078c-1.564-1.226-2.79-2.903-3.375-4.802-.615-1.97-.483-4.183.582-5.978m4.48-.143c-.942 1.393-1.036 3.108-.381 4.64.69 1.625 2.105 2.9 3.757 3.511l.204.078.091.029.295.078c4.563.88 5.8-2.338 6.13-2.812-1.084 1.558-2.906 1.932-5.141 1.39a5.857 5.857 0 0 1-.541-.167 6.613 6.602 0 0 1-.643-.266 6.644 6.633 0 0 1-1.126-.686c-2-1.514-3.243-4.413-1.938-6.766" style="stroke-width:.781035"/>
</svg>