<svg xmlns="http://www.w3.org/2000/svg" xmlns:svg="http://www.w3.org/2000/svg" id="svg6" width="50" height="50" fill="#000" version="1.1" viewBox="0 0 50 50"><path id="path2" fill="none" d="M 0,0 H 24 V 24 H 0 Z"/><path id="path4" d="M 34.090909,0 H 15.909091 C 12.772727,0 10.227273,2.5454545 10.227273,5.6818182 V 44.318182 C 10.227273,47.454545 12.772727,50 15.909091,50 h 18.181818 c 3.136364,0 5.681819,-2.545455 5.681819,-5.681818 V 5.6818182 C 39.772728,2.5454545 37.227273,0 34.090909,0 Z M 25,47.727273 c -1.886363,0 -3.409091,-1.522728 -3.409091,-3.409091 0,-1.886364 1.522728,-3.409091 3.409091,-3.409091 1.886364,0 3.409091,1.522727 3.409091,3.409091 0,1.886363 -1.522727,3.409091 -3.409091,3.409091 z M 35.227273,38.636364 H 14.772727 V 6.8181818 h 20.454546 z" style="stroke-width:2.27273"/></svg>