<?xml version="1.0" encoding="UTF-8" standalone="no"?>
<svg
   width="50"
   height="50"
   fill="#000000"
   viewBox="0 0 50 50"
   version="1.1"
   id="svg6"
   sodipodi:docname="mobile.svg"
   inkscape:version="1.1 (c68e22c387, 2021-05-23)"
   xmlns:inkscape="http://www.inkscape.org/namespaces/inkscape"
   xmlns:sodipodi="http://sodipodi.sourceforge.net/DTD/sodipodi-0.dtd"
   xmlns="http://www.w3.org/2000/svg"
   xmlns:svg="http://www.w3.org/2000/svg">
  <defs
     id="defs10" />
  <sodipodi:namedview
     id="namedview8"
     pagecolor="#ffffff"
     bordercolor="#111111"
     borderopacity="1"
     inkscape:pageshadow="0"
     inkscape:pageopacity="0"
     inkscape:pagecheckerboard="1"
     showgrid="false"
     width="50px"
     inkscape:zoom="8.6666667"
     inkscape:cx="46.096154"
     inkscape:cy="24.519231"
     inkscape:window-width="1920"
     inkscape:window-height="1017"
     inkscape:window-x="-8"
     inkscape:window-y="80"
     inkscape:window-maximized="1"
     inkscape:current-layer="svg6" />
  <path
     fill="none"
     d="M 0,0 H 24 V 24 H 0 Z"
     id="path2" />
  <path
     d="M 34.090909,0 H 15.909091 C 12.772727,0 10.227273,2.5454545 10.227273,5.6818182 V 44.318182 C 10.227273,47.454545 12.772727,50 15.909091,50 h 18.181818 c 3.136364,0 5.681819,-2.545455 5.681819,-5.681818 V 5.6818182 C 39.772728,2.5454545 37.227273,0 34.090909,0 Z M 25,47.727273 c -1.886363,0 -3.409091,-1.522728 -3.409091,-3.409091 0,-1.886364 1.522728,-3.409091 3.409091,-3.409091 1.886364,0 3.409091,1.522727 3.409091,3.409091 0,1.886363 -1.522727,3.409091 -3.409091,3.409091 z M 35.227273,38.636364 H 14.772727 V 6.8181818 h 20.454546 z"
     id="path4"
     style="stroke-width:2.27273" />
</svg>
