<svg xmlns="http://www.w3.org/2000/svg" id="svg6" width="50" height="50" fill="#000" version="1.1">
  <path id="path2" fill="none" d="M0 0h24v24H0Z"/>
  <path id="path4" d="M34.09 0H15.91a5.684 5.684 0 0 0-5.683 5.682v38.636A5.684 5.684 0 0 0 15.91 50h18.182a5.684 5.684 0 0 0 5.682-5.682V5.682A5.684 5.684 0 0 0 34.09 0ZM25 47.727a3.405 3.405 0 0 1-3.41-3.409A3.405 3.405 0 0 1 25 40.91a3.405 3.405 0 0 1 3.41 3.41A3.405 3.405 0 0 1 25 47.726zm10.227-9.09H14.773V6.817h20.454z" style="stroke-width:2.27273"/>
</svg>