<?xml version="1.0" encoding="UTF-8" standalone="no"?>
<svg
   width="50"
   height="50"
   viewBox="0 0 25 25"
   version="1.1"
   id="svg8"
   sodipodi:docname="mongodb.svg"
   inkscape:version="1.1 (c68e22c387, 2021-05-23)"
   xmlns:inkscape="http://www.inkscape.org/namespaces/inkscape"
   xmlns:sodipodi="http://sodipodi.sourceforge.net/DTD/sodipodi-0.dtd"
   xmlns="http://www.w3.org/2000/svg"
   xmlns:svg="http://www.w3.org/2000/svg">
  <defs
     id="defs12" />
  <sodipodi:namedview
     id="namedview10"
     pagecolor="#ffffff"
     bordercolor="#111111"
     borderopacity="1"
     inkscape:pageshadow="0"
     inkscape:pageopacity="0"
     inkscape:pagecheckerboard="1"
     showgrid="false"
     width="50px"
     inkscape:zoom="13"
     inkscape:cx="31.961538"
     inkscape:cy="32.038462"
     inkscape:window-width="1920"
     inkscape:window-height="1017"
     inkscape:window-x="-8"
     inkscape:window-y="80"
     inkscape:window-maximized="1"
     inkscape:current-layer="svg8" />
  <path
     d="m 12.421772,0.06827847 0.667137,1.25303083 c 0.149989,0.2312327 0.312477,0.4359048 0.503869,0.6265156 0.558553,0.5585517 1.088982,1.143664 1.565509,1.7701795 1.130385,1.4842635 1.892828,3.1325773 2.437319,4.9152555 0.326538,1.0889813 0.503869,2.2060851 0.517149,3.3356871 0.05468,3.377091 -1.103043,6.276873 -3.437245,8.686848 -0.381221,0.381222 -0.789004,0.73432 -1.226471,1.048359 -0.231233,0 -0.3406,-0.17733 -0.435905,-0.3406 -0.177331,-0.299196 -0.285916,-0.640577 -0.3406,-0.980395 -0.08203,-0.408563 -0.135927,-0.817126 -0.109367,-1.238969 V 18.953579 C 12.544417,18.912958 12.340528,0.16436501 12.421772,0.06827847 Z"
     fill="#599636"
     id="path2"
     style="stroke-width:0.781192" />
  <path
     d="m 12.421772,0.02687533 c -0.02734,-0.05468339 -0.05468,-0.01328025 -0.08203,0.01328026 0.01328,0.27341697 -0.08202,0.51714866 -0.231232,0.74994371 -0.164051,0.2312326 -0.381222,0.4085631 -0.599175,0.5991737 -1.210847,1.0483588 -2.1639012,2.31467 -2.9271262,3.7309699 -1.0155494,1.9061068 -1.538948,3.948922 -1.6873745,6.0995421 -0.067964,0.775723 0.2452943,3.513017 0.4898074,4.302802 0.6671379,2.096717 1.8654861,3.853616 3.4177153,5.378502 0.381221,0.36716 0.789004,0.70776 1.210847,1.035078 0.122647,0 0.135928,-0.109366 0.16405,-0.19061 a 3.7340975,3.7340946 0 0 0 0.122648,-0.53121 l 0.273417,-2.042035 z"
     fill="#6cac48"
     id="path4"
     style="stroke-width:0.781192" />
  <path
     d="m 13.088909,22.533779 c 0.02734,-0.312477 0.177331,-0.571832 0.3406,-0.830407 -0.16405,-0.06796 -0.285916,-0.20311 -0.381221,-0.353879 -0.08203,-0.135928 -0.149989,-0.299196 -0.20311,-0.449185 -0.190611,-0.571832 -0.231233,-1.171787 -0.285917,-1.756118 v -0.35388 c -0.06796,0.05468 -0.08202,0.517149 -0.08202,0.585893 a 13.569304,13.569294 0 0 1 -0.245294,1.838144 c -0.04062,0.245294 -0.06796,0.489807 -0.218734,0.707759 0,0.02734 0,0.05468 0.01328,0.0953 0.245295,0.721821 0.312477,1.456922 0.35388,2.206085 v 0.273417 c 0,0.326538 -0.01328,0.257793 0.257794,0.367159 0.109367,0.04062 0.231233,0.05468 0.340599,0.135928 0.08203,0 0.09531,-0.06796 0.09531,-0.122647 l -0.04062,-0.449185 v -1.253031 c -0.01328,-0.218734 0.02734,-0.435905 0.05468,-0.640577 z"
     fill="#c2bfbf"
     id="path6"
     style="stroke-width:0.781192" />
</svg>
