<svg xmlns="http://www.w3.org/2000/svg" id="svg8" width="50" height="50" version="1.1" viewBox="0 0 25 25">
  <path id="path2" fill="#599636" d="m12.422.068.667 1.253c.15.232.312.436.504.627a17.503 17.503 0 0 1 1.565 1.77c1.13 1.484 1.893 3.133 2.438 4.915a12.14 12.14 0 0 1 .517 3.336c.054 3.377-1.103 6.277-3.437 8.687a9.92 9.92 0 0 1-1.227 1.048c-.231 0-.34-.177-.436-.34a2.805 2.805 0 0 1-.34-.98 4.737 4.737 0 0 1-.11-1.24v-.19c-.019-.041-.222-18.79-.141-18.886Z" style="stroke-width:.781192"/>
  <path id="path4" fill="#6cac48" d="M12.422.027c-.028-.055-.055-.013-.082.013.013.274-.082.517-.231.75-.165.231-.382.409-.6.6-1.21 1.048-2.164 2.314-2.927 3.73-1.015 1.906-1.539 3.95-1.687 6.1-.068.776.245 3.513.49 4.303.667 2.096 1.865 3.853 3.417 5.378.382.367.79.708 1.211 1.035.123 0 .136-.11.164-.19a3.734 3.734 0 0 0 .123-.532l.273-2.042z" style="stroke-width:.781192"/>
  <path id="path6" fill="#c2bfbf" d="M13.089 22.534c.027-.313.177-.572.34-.83a.862.862 0 0 1-.38-.355 2.492 2.492 0 0 1-.204-.449c-.19-.572-.231-1.171-.286-1.756v-.354c-.068.055-.082.517-.082.586a13.57 13.57 0 0 1-.245 1.838c-.04.246-.068.49-.219.708 0 .027 0 .055.013.095.246.722.313 1.457.354 2.206v.274c0 .326-.013.258.258.367.11.04.231.055.34.136.083 0 .096-.068.096-.123l-.04-.449v-1.253c-.014-.219.027-.436.054-.64z" style="stroke-width:.781192"/>
</svg>