<svg xmlns="http://www.w3.org/2000/svg" id="svg4" width="50" height="50" version="1.1" viewBox="0 0 20 20">
  <path id="path2" fill="#00678c" fill-rule="evenodd" d="M18.422 15.337c-1.088-.03-1.932.082-2.64.38-.203.081-.53.081-.557.337.11.108.122.284.218.433.163.27.449.635.707.824l.87.622c.531.325 1.13.514 1.647.839.299.189.598.432.898.635.152.109.244.285.435.352v-.041c-.095-.121-.123-.297-.217-.433l-.409-.392a6.42 6.42 0 0 0-1.415-1.365c-.435-.298-1.387-.703-1.564-1.203l-.027-.03c.299-.03.653-.136.939-.217.463-.121.884-.095 1.36-.216l.653-.19v-.12c-.245-.244-.422-.569-.68-.798a18.13 18.13 0 0 0-2.245-1.663c-.422-.27-.966-.447-1.415-.676-.164-.081-.435-.122-.53-.257-.246-.297-.382-.69-.558-1.041l-1.116-2.353c-.245-.527-.395-1.054-.693-1.54-1.402-2.3-2.926-3.692-5.266-5.057-.503-.284-1.101-.407-1.738-.555l-1.02-.055c-.218-.094-.435-.351-.626-.473C2.658.597.658-.457.086.933c-.368.878.544 1.744.854 2.19.231.31.53.662.694 1.014.091.23.122.473.217.716.218.595.422 1.258.708 1.813.152.284.312.581.503.838.109.152.3.216.34.46-.19.27-.204.676-.313 1.014-.49 1.528-.3 3.42.395 4.545.218.338.731 1.082 1.428.798.613-.243.476-1.014.653-1.69.041-.162.014-.27.095-.379v.03l.558 1.123c.422.662 1.157 1.352 1.769 1.812.326.243.584.663.992.811v-.04h-.026c-.082-.122-.205-.177-.314-.271a6.596 6.596 0 0 1-.707-.811 17.407 17.407 0 0 1-1.523-2.461c-.218-.42-.409-.879-.585-1.298-.083-.162-.083-.406-.218-.487-.205.297-.503.555-.654.92-.258.581-.285 1.298-.38 2.041-.055.014-.03 0-.055.03-.435-.107-.585-.554-.748-.932-.408-.96-.476-2.501-.123-3.61.096-.284.504-1.176.341-1.447-.082-.257-.354-.405-.504-.608a5.453 5.453 0 0 1-.49-.865c-.325-.758-.489-1.596-.843-2.353-.163-.352-.449-.717-.68-1.041C1.21 2.43.926 2.173.722 1.74c-.068-.15-.163-.392-.054-.554.026-.108.081-.152.19-.176.176-.151.68.04.857.121.503.203.925.393 1.347.676.19.135.394.392.64.46h.285c.436.095.925.03 1.333.152a8.78 8.78 0 0 1 1.96.933 12.02 12.02 0 0 1 4.244 4.624c.163.311.23.595.38.92.287.662.64 1.338.926 1.987.286.636.558 1.285.966 1.813.204.284 1.02.432 1.387.58.272.122.694.231.94.38a24.3 24.3 0 0 1 1.359.919c.217.162.898.5.939.77zM4.548 3.588a2.162 2.148 0 0 0-.557.068v.03h.027c.109.217.3.365.435.555l.313.649.027-.03c.19-.136.286-.352.286-.676-.082-.095-.095-.19-.163-.284-.082-.135-.259-.203-.368-.311Z" style="stroke-width:.303972"/>
</svg>