<?xml version="1.0" encoding="UTF-8" standalone="no"?>
<svg
   width="50"
   height="50"
   viewBox="0 0 20 20"
   version="1.1"
   id="svg4"
   sodipodi:docname="mysql.svg"
   inkscape:version="1.1 (c68e22c387, 2021-05-23)"
   xmlns:inkscape="http://www.inkscape.org/namespaces/inkscape"
   xmlns:sodipodi="http://sodipodi.sourceforge.net/DTD/sodipodi-0.dtd"
   xmlns="http://www.w3.org/2000/svg"
   xmlns:svg="http://www.w3.org/2000/svg">
  <defs
     id="defs8" />
  <sodipodi:namedview
     id="namedview6"
     pagecolor="#ffffff"
     bordercolor="#111111"
     borderopacity="1"
     inkscape:pageshadow="0"
     inkscape:pageopacity="0"
     inkscape:pagecheckerboard="1"
     showgrid="false"
     width="50px"
     inkscape:zoom="13"
     inkscape:cx="31.961538"
     inkscape:cy="32.038462"
     inkscape:window-width="1920"
     inkscape:window-height="1017"
     inkscape:window-x="-8"
     inkscape:window-y="80"
     inkscape:window-maximized="1"
     inkscape:current-layer="svg4" />
  <path
     d="m 18.422054,15.337393 c -1.087944,-0.0303 -1.931955,0.08121 -2.639363,0.378787 -0.203684,0.08182 -0.530556,0.08182 -0.557388,0.33818 0.108855,0.107576 0.121967,0.283636 0.217406,0.432726 0.16313,0.270605 0.449143,0.635149 0.707407,0.82424 l 0.870539,0.622119 c 0.530555,0.324241 1.129108,0.513634 1.645942,0.838178 0.299429,0.189393 0.598553,0.432726 0.897981,0.635755 0.152459,0.108182 0.244849,0.284241 0.435422,0.351514 v -0.04091 C 19.90487,19.596767 19.877423,19.42101 19.782594,19.285253 l -0.408589,-0.391816 c -0.394258,-0.527271 -0.88426,-0.98727 -1.414815,-1.36545 -0.435422,-0.297575 -1.387373,-0.703027 -1.564225,-1.203025 l -0.02683,-0.0303 c 0.298819,-0.0303 0.652523,-0.135453 0.938535,-0.216666 0.462864,-0.121212 0.88426,-0.09454 1.35993,-0.21606 l 0.653438,-0.189392 V 15.551332 C 19.075189,15.308 18.898337,14.983455 18.640073,14.753759 17.946386,14.158913 17.184093,13.5774 16.394968,13.090735 15.973267,12.820433 15.42899,12.644373 14.980152,12.41498 14.816412,12.33377 14.544731,12.293163 14.449597,12.158012 14.204138,11.861043 14.06845,11.46862 13.891598,11.116804 L 12.776208,8.7643878 C 12.53136,8.2371172 12.381341,7.7098467 12.082522,7.223182 10.681123,4.924706 9.1571474,3.5322871 6.8172135,2.1665347 6.3141003,1.8825965 5.715548,1.7604758 5.0791859,1.6119914 L 4.0589333,1.5574462 C 3.8409175,1.4629011 3.6235116,1.2059324 3.4329384,1.0841147 2.6575342,0.59744996 0.65758282,-0.45709142 0.08586322,0.93260022 -0.2815619,1.8113846 0.63014028,2.6765328 0.93963115,3.1228948 1.1713682,3.4338026 1.470187,3.7853164 1.6339275,4.1368302 c 0.091475,0.2296961 0.1219668,0.4733315 0.2174059,0.716664 0.2174059,0.5948462 0.4217003,1.2575709 0.7074077,1.8121142 0.1524585,0.2839382 0.31254,0.5818159 0.5031132,0.8384815 0.1088554,0.151515 0.2994286,0.2163626 0.3399826,0.459695 C 3.2112637,8.2343902 3.1981523,8.6395402 3.0892968,8.9780234 2.599295,10.505897 2.7898682,12.398617 3.4835547,13.52346 c 0.2180157,0.337879 0.7318011,1.081815 1.4288416,0.797574 0.6122735,-0.243332 0.4756707,-1.013936 0.6525226,-1.689994 0.041164,-0.16212 0.013721,-0.270301 0.095134,-0.378786 v 0.0303 l 0.5579984,1.122117 c 0.4217003,0.662422 1.1565506,1.352116 1.7685192,1.812114 0.3262613,0.243333 0.5848311,0.662725 0.9928102,0.811209 v -0.04091 H 8.9525481 C 8.8708303,15.865876 8.7482536,15.811331 8.6393982,15.716786 8.3945497,15.473454 8.1225637,15.175879 7.9319905,14.905577 7.3608807,14.14861 6.8577675,13.310128 6.4086246,12.44498 6.1906088,12.025891 6.0000356,11.566196 5.8237935,11.147107 c -0.082328,-0.162424 -0.082328,-0.40606 -0.2180157,-0.486665 -0.2042945,0.296968 -0.5031132,0.554544 -0.6534374,0.91939 -0.2585697,0.58121 -0.2854024,1.297874 -0.3805365,2.041507 -0.054885,0.01364 -0.030492,0 -0.054885,0.0303 C 4.082107,13.543764 3.9320878,13.097099 3.7689571,12.718919 3.360978,11.758922 3.2926766,10.217716 3.6463804,9.1089323 3.7415146,8.8249941 4.1501035,7.932573 3.9869728,7.6622709 3.9046452,7.4053025 3.633269,7.2568182 3.4832498,7.0537887 3.3063978,6.79682 3.1164345,6.4725788 2.9938578,6.1886405 2.6675965,5.4310677 2.5044658,4.5931921 2.1504571,3.8359224 1.9867166,3.4844086 1.7013141,3.1192584 1.469882,2.7950172 1.2113123,2.4298671 0.92621479,2.1728984 0.72192033,1.7404758 0.65392381,1.5889613 0.55878967,1.3483561 0.66764508,1.1859325 0.69447779,1.0777511 0.74936287,1.0344179 0.85760844,1.0101756 1.0344604,0.85866102 1.5381835,1.0507816 1.7150354,1.1313872 2.2181487,1.3344167 2.639849,1.523507 3.0615494,1.8071423 3.2521226,1.9422932 3.4564171,2.1992619 3.7012655,2.2671405 h 0.2860123 c 0.4354216,0.094545 0.9248136,0.030303 1.3324877,0.1515146 0.721129,0.2303022 1.3739566,0.5678766 1.9593974,0.9333296 1.7819356,1.122117 3.2516361,2.7175653 4.2444461,4.6242244 0.163131,0.3109079 0.231127,0.5948468 0.381146,0.9193908 0.286013,0.6627248 0.639716,1.3384801 0.924814,1.9878721 0.286012,0.635452 0.557998,1.284843 0.965977,1.812114 0.204295,0.283938 1.020253,0.432422 1.387373,0.581209 0.272291,0.121212 0.693687,0.230302 0.939145,0.378787 0.462254,0.283938 0.924814,0.608482 1.35993,0.91939 0.217406,0.161818 0.897981,0.499998 0.938535,0.769693 z M 4.5483252,3.5883476 a 2.1618623,2.1484765 0 0 0 -0.5573884,0.067576 v 0.030303 h 0.026833 C 4.1266249,3.902589 4.3171981,4.0513763 4.4531911,4.2407696 L 4.766341,4.8898579 4.793174,4.8595547 C 4.9837469,4.7244037 5.0791859,4.508041 5.0791859,4.1837997 4.9974682,4.0892546 4.9840518,3.9944066 4.9160553,3.8998614 4.8343375,3.7647104 4.6574856,3.696832 4.5483252,3.5889536 Z"
     fill-rule="evenodd"
     fill="#00678c"
     id="path2"
     style="stroke-width:0.303972" />
</svg>
