<svg xmlns="http://www.w3.org/2000/svg" xmlns:svg="http://www.w3.org/2000/svg" style="overflow:hidden;fill:currentColor" id="svg6" width="50" height="50" class="svg-icon" version="1.1" viewBox="0 0 50 50"><path id="path2" fill="#347dff" d="m 34.750559,19.727891 c -0.79365,0 -1.5873,0.680272 -1.5873,1.587302 v 2.040816 c -0.11338,0.907029 -0.79365,1.587301 -1.70068,1.587301 -0.90703,0 -1.81405,-0.680272 -1.81405,-1.70068 v -6.122449 c 0,-0.79365 -0.68028,-1.587301 -1.58731,-1.587301 -0.79365,0 -1.5873,0.680272 -1.5873,1.587301 v 3.854876 c 0,0.907029 -0.79365,1.814059 -1.81405,1.814059 -0.90703,0 -1.70068,-0.680272 -1.81406,-1.700681 v -4.988662 c 0,-0.793651 -0.68027,-1.587301 -1.5873,-1.587301 -0.79365,0 -1.58731,0.680272 -1.58731,1.587301 v 7.029479 c 0,0.907029 -0.79365,1.814058 -1.81405,1.814058 -0.907033,0 -1.700683,-0.680272 -1.700683,-1.814058 v -1.814059 c 0,-0.793651 -0.680272,-1.587302 -1.587301,-1.587302 -0.907029,0 -1.587301,0.680272 -1.587301,1.587302 v 7.823129 c 0,0.793651 0.680272,1.587301 1.587301,1.587301 0.907029,0 1.587301,-0.680272 1.587301,-1.587301 v -0.793651 c 0,-0.907029 0.79365,-1.814059 1.814063,-1.814059 0.90702,0 1.81405,0.793651 1.81405,1.814059 v 2.947846 c 0,0.793651 0.68028,1.587302 1.5873,1.587302 0.90703,0 1.58731,-0.680272 1.58731,-1.587302 v -5.102041 c 0,-0.907029 0.79365,-1.70068 1.81405,-1.70068 0.90703,0 1.81406,0.793651 1.81406,1.814059 v 6.122449 c 0,0.793651 0.68027,1.587301 1.5873,1.587301 0.79365,0 1.5873,-0.680272 1.5873,-1.587301 V 28.45805 c 0,-0.90703 0.68028,-1.70068 1.81406,-1.70068 0.90703,0 1.70068,0.680272 1.70068,1.587301 v 0.793651 c 0,0.793651 0.68027,1.587301 1.5873,1.587301 0.79365,0 1.5873,-0.680272 1.5873,-1.587301 v -7.823129 c -0.22675,-0.90703 -0.90703,-1.587302 -1.70068,-1.587302 z m -23.469374,3.174603 c -0.793651,0 -1.5873011,0.680272 -1.5873011,1.587302 v 1.587302 c 0,0.79365 0.6802711,1.587301 1.5873011,1.587301 0.79365,0 1.5873,-0.680272 1.5873,-1.587301 v -1.587302 c -0.226757,-0.90703 -0.907028,-1.587302 -1.5873,-1.587302 z m 27.437634,0 c -0.79365,0 -1.5873,0.680272 -1.5873,1.587302 v 1.587302 c 0,0.79365 0.68027,1.587301 1.5873,1.587301 0.90703,0 1.5873,-0.680272 1.5873,-1.587301 v -1.587302 c 0,-0.90703 -0.68027,-1.587302 -1.5873,-1.587302 z" style="stroke-width:.0531463"/><path id="path4" fill="#347dff" d="m 45.181399,31.859411 v -13.8322 c 1.47392,-0.680272 2.38095,-2.154195 2.38095,-3.741497 0,-2.267574 -1.81406,-4.081632 -4.08163,-4.081632 -0.79365,0 -1.70068,0.226757 -2.38095,0.79365 L 29.081629,4.195011 V 4.081633 C 29.081629,1.814059 27.267569,0 24.999999,0 c -2.26757,0 -4.08163,1.814059 -4.08163,4.081633 V 4.195011 L 8.9002329,11.22449 c -0.793651,-0.566894 -1.587301,-0.793651 -2.49433,-0.793651 -2.267573,-0.113379 -4.081631,1.70068 -4.081631,3.968254 0,1.70068 1.020408,3.174603 2.607709,3.854875 v 13.718821 c -1.587301,0.453515 -2.607709,1.927438 -2.607709,3.514739 0,2.267574 1.814058,4.081633 4.081631,4.081633 0.793651,0 1.700679,-0.226757 2.380951,-0.680272 l 12.2448951,7.029478 c 0,2.267574 1.81406,4.081633 4.08163,4.081633 2.26757,0 4.08163,-1.814059 4.08163,-4.081633 l 12.13152,-7.029478 c 0.68027,0.453515 1.47392,0.680272 2.26757,0.680272 2.26757,0 4.08163,-1.814059 4.08163,-4.081633 -0.11338,-1.473923 -1.02041,-2.947845 -2.49433,-3.628117 z m -2.60771,-0.226758 c -0.45351,0.113379 -0.90703,0.340136 -1.36054,0.566894 l -3.06123,-1.700681 c -0.11338,0 -0.34013,-0.113379 -0.45351,-0.113379 -0.68027,0 -1.36055,0.566894 -1.36055,1.360545 0,0.453515 0.22676,0.793651 0.5669,1.020408 l 2.72109,1.587301 c -0.11338,0.453515 -0.22676,0.793651 -0.22676,1.360545 0,0.566893 0.11338,0.79365 0.22676,1.360544 l -11.45125,6.575963 c -0.45351,-0.566893 -1.0204,-1.020408 -1.92743,-1.473922 V 38.77551 c -0.11338,-0.680272 -0.5669,-1.247166 -1.36055,-1.247166 -0.79365,0 -1.24716,0.453516 -1.36054,1.247166 v 3.287982 c -0.79365,0.226757 -1.5873,0.680272 -2.04082,1.473923 L 9.9206409,36.848072 c 0.1133791,-0.453514 0.2267571,-0.79365 0.2267571,-1.247165 0,-0.340136 0,-0.566893 -0.113378,-0.793651 l 2.721087,-1.70068 0.113378,-0.113379 c 0.340136,-0.226757 0.566894,-0.566893 0.566894,-1.020408 0,-0.680272 -0.566894,-1.360544 -1.360544,-1.360544 -0.226757,0 -0.453514,0.113378 -0.680272,0.226757 L 8.6734759,32.539683 C 8.2199609,32.199547 7.7664469,31.972789 7.0861749,31.746032 V 18.253968 c 0.566893,-0.226757 1.020407,-0.453515 1.473922,-0.793651 l 2.8344661,1.587302 c 0.113379,0.113379 0.340136,0.113379 0.453515,0.113379 0.680271,0 1.360543,-0.566894 1.360543,-1.360545 0,-0.340136 -0.226757,-0.680272 -0.453514,-1.020408 l -2.49433,-1.587301 c 0.113378,-0.226758 0.113378,-0.566894 0.113378,-0.793651 0,-0.340136 0,-0.680272 -0.113378,-1.020408 L 21.825399,6.689343 c 0.45351,0.566893 1.24716,1.020408 1.92744,1.360544 v 3.40136 c 0,0.680272 0.56689,1.360545 1.36054,1.360545 0.79365,0 1.36054,-0.566894 1.36054,-1.360545 v -3.40136 c 0.68028,-0.226758 1.36055,-0.680272 1.81406,-1.360544 l 11.45124,6.575963 c -0.11337,0.453515 -0.11337,0.793651 -0.11337,1.020408 v 0.566894 l -2.72109,1.70068 c -0.34014,0.226757 -0.5669,0.566893 -0.5669,1.020408 0,0.680272 0.5669,1.360545 1.36055,1.360545 0.22676,0 0.34013,0 0.56689,-0.113379 l 2.60771,-1.587302 c 0.45352,0.453515 1.24717,0.793651 1.92744,1.020408 v 13.378685 z" style="stroke-width:.0531463"/></svg>