<svg class="svg-icon" style="width: 1em; height: 1em;vertical-align: middle;fill: currentColor;overflow: hidden;" viewBox="0 0 1024 1024" version="1.1" xmlns="http://www.w3.org/2000/svg"><path d="M695.466667 409.6c-14.933333 0-29.866667 12.8-29.866667 29.866667v38.4c-2.133333 17.066667-14.933333 29.866667-32 29.866666s-34.133333-12.8-34.133333-32v-115.2c0-14.933333-12.8-29.866667-29.866667-29.866666-14.933333 0-29.866667 12.8-29.866667 29.866666v72.533334c0 17.066667-14.933333 34.133333-34.133333 34.133333-17.066667 0-32-12.8-34.133333-32V341.333333c0-14.933333-12.8-29.866667-29.866667-29.866666-14.933333 0-29.866667 12.8-29.866667 29.866666v132.266667c0 17.066667-14.933333 34.133333-34.133333 34.133333-17.066667 0-32-12.8-32-34.133333v-34.133333c0-14.933333-12.8-29.866667-29.866667-29.866667s-29.866667 12.8-29.866666 29.866667v147.2c0 14.933333 12.8 29.866667 29.866666 29.866666s29.866667-12.8 29.866667-29.866666v-14.933334c0-17.066667 14.933333-34.133333 34.133333-34.133333 17.066667 0 34.133333 14.933333 34.133334 34.133333v55.466667c0 14.933333 12.8 29.866667 29.866666 29.866667s29.866667-12.8 29.866667-29.866667v-96c0-17.066667 14.933333-32 34.133333-32 17.066667 0 34.133333 14.933333 34.133334 34.133333v115.2c0 14.933333 12.8 29.866667 29.866666 29.866667 14.933333 0 29.866667-12.8 29.866667-29.866667v-74.666666c0-17.066667 12.8-32 34.133333-32 17.066667 0 32 12.8 32 29.866666v14.933334c0 14.933333 12.8 29.866667 29.866667 29.866666 14.933333 0 29.866667-12.8 29.866667-29.866666v-147.2c-4.266667-17.066667-17.066667-29.866667-32-29.866667zM253.866667 469.333333c-14.933333 0-29.866667 12.8-29.866667 29.866667v29.866667c0 14.933333 12.8 29.866667 29.866667 29.866666 14.933333 0 29.866667-12.8 29.866666-29.866666v-29.866667c-4.266667-17.066667-17.066667-29.866667-29.866666-29.866667zM770.133333 469.333333c-14.933333 0-29.866667 12.8-29.866666 29.866667v29.866667c0 14.933333 12.8 29.866667 29.866666 29.866666s29.866667-12.8 29.866667-29.866666v-29.866667c0-17.066667-12.8-29.866667-29.866667-29.866667z" fill="#347DFF" /><path d="M891.733333 637.866667V377.6c27.733333-12.8 44.8-40.533333 44.8-70.4 0-42.666667-34.133333-76.8-76.8-76.8-14.933333 0-32 4.266667-44.8 14.933333l-226.133333-128v-2.133333c0-42.666667-34.133333-76.8-76.8-76.8s-76.8 34.133333-76.8 76.8v2.133333L209.066667 249.6c-14.933333-10.666667-29.866667-14.933333-46.933334-14.933333-42.666667-2.133333-76.8 32-76.8 74.666666 0 32 19.2 59.733333 49.066667 72.533334V640c-29.866667 8.533333-49.066667 36.266667-49.066667 66.133333 0 42.666667 34.133333 76.8 76.8 76.8 14.933333 0 32-4.266667 44.8-12.8l230.4 132.266667c0 42.666667 34.133333 76.8 76.8 76.8s76.8-34.133333 76.8-76.8l228.266667-132.266667c12.8 8.533333 27.733333 12.8 42.666667 12.8 42.666667 0 76.8-34.133333 76.8-76.8-2.133333-27.733333-19.2-55.466667-46.933334-68.266666z m-49.066666-4.266667c-8.533333 2.133333-17.066667 6.4-25.6 10.666667l-57.6-32c-2.133333 0-6.4-2.133333-8.533334-2.133334-12.8 0-25.6 10.666667-25.6 25.6 0 8.533333 4.266667 14.933333 10.666667 19.2l51.2 29.866667c-2.133333 8.533333-4.266667 14.933333-4.266667 25.6s2.133333 14.933333 4.266667 25.6l-215.466667 123.733333c-8.533333-10.666667-19.2-19.2-36.266666-27.733333v-64c-2.133333-12.8-10.666667-23.466667-25.6-23.466667s-23.466667 8.533333-25.6 23.466667v61.866667c-14.933333 4.266667-29.866667 12.8-38.4 27.733333l-217.6-125.866667c2.133333-8.533333 4.266667-14.933333 4.266666-23.466666 0-6.4 0-10.666667-2.133333-14.933334l51.2-32 2.133333-2.133333c6.4-4.266667 10.666667-10.666667 10.666667-19.2 0-12.8-10.666667-25.6-25.6-25.6-4.266667 0-8.533333 2.133333-12.8 4.266667l-51.2 32c-8.533333-6.4-17.066667-10.666667-29.866667-14.933334V381.866667c10.666667-4.266667 19.2-8.533333 27.733334-14.933334l53.333333 29.866667c2.133333 2.133333 6.4 2.133333 8.533333 2.133333 12.8 0 25.6-10.666667 25.6-25.6 0-6.4-4.266667-12.8-8.533333-19.2L234.666667 324.266667c2.133333-4.266667 2.133333-10.666667 2.133333-14.933334 0-6.4 0-12.8-2.133333-19.2l217.6-125.866666c8.533333 10.666667 23.466667 19.2 36.266666 25.6v64c0 12.8 10.666667 25.6 25.6 25.6s25.6-10.666667 25.6-25.6v-64c12.8-4.266667 25.6-12.8 34.133334-25.6L789.333333 288c-2.133333 8.533333-2.133333 14.933333-2.133333 19.2v10.666667l-51.2 32c-6.4 4.266667-10.666667 10.666667-10.666667 19.2 0 12.8 10.666667 25.6 25.6 25.6 4.266667 0 6.4 0 10.666667-2.133334L810.666667 362.666667c8.533333 8.533333 23.466667 14.933333 36.266666 19.2v251.733333z" fill="#347DFF" /></svg>