<svg xmlns="http://www.w3.org/2000/svg" style="overflow:hidden;fill:currentColor" id="svg6" width="50" height="50" class="svg-icon" version="1.1">
  <path id="path2" fill="#347dff" d="M34.75 19.728c-.793 0-1.587.68-1.587 1.587v2.041c-.113.907-.793 1.587-1.7 1.587-.907 0-1.814-.68-1.814-1.7V17.12c0-.793-.68-1.587-1.588-1.587-.793 0-1.587.68-1.587 1.587v3.855c0 .907-.794 1.814-1.814 1.814-.907 0-1.7-.68-1.814-1.7v-4.99c0-.793-.68-1.587-1.587-1.587-.794 0-1.588.68-1.588 1.588v7.03c0 .906-.793 1.813-1.814 1.813-.907 0-1.7-.68-1.7-1.814v-1.814c0-.793-.68-1.587-1.588-1.587-.907 0-1.587.68-1.587 1.587v7.823c0 .794.68 1.588 1.587 1.588.907 0 1.587-.68 1.587-1.588v-.793c0-.907.794-1.814 1.815-1.814.907 0 1.814.793 1.814 1.814v2.948c0 .793.68 1.587 1.587 1.587.907 0 1.587-.68 1.587-1.587V26.19c0-.907.794-1.7 1.814-1.7.907 0 1.814.793 1.814 1.814v6.122c0 .794.68 1.588 1.588 1.588.793 0 1.587-.68 1.587-1.588v-3.968c0-.907.68-1.7 1.814-1.7.907 0 1.7.68 1.7 1.587v.793c0 .794.68 1.588 1.588 1.588.794 0 1.587-.68 1.587-1.588v-7.823c-.227-.907-.907-1.587-1.7-1.587zm-23.469 3.174c-.793 0-1.587.68-1.587 1.588v1.587c0 .794.68 1.587 1.587 1.587.794 0 1.587-.68 1.587-1.587V24.49c-.226-.907-.907-1.588-1.587-1.588zm27.438 0c-.794 0-1.587.68-1.587 1.588v1.587c0 .794.68 1.587 1.587 1.587.907 0 1.587-.68 1.587-1.587V24.49c0-.907-.68-1.588-1.587-1.588z" style="stroke-width:.0531463"/>
  <path id="path4" fill="#347dff" d="M45.181 31.86V18.026a4.113 4.113 0 0 0 2.381-3.741 4.065 4.065 0 0 0-4.081-4.082c-.794 0-1.701.227-2.381.794L29.082 4.195v-.113A4.065 4.065 0 0 0 25 0a4.065 4.065 0 0 0-4.082 4.082v.113L8.9 11.225c-.793-.567-1.587-.794-2.494-.794-2.268-.114-4.082 1.7-4.082 3.968 0 1.7 1.02 3.175 2.608 3.855v13.719c-1.587.453-2.608 1.927-2.608 3.515a4.065 4.065 0 0 0 4.082 4.081c.794 0 1.7-.227 2.38-.68l12.246 7.03A4.065 4.065 0 0 0 25.113 50a4.065 4.065 0 0 0 4.082-4.082l12.132-7.03c.68.454 1.473.681 2.267.681a4.065 4.065 0 0 0 4.082-4.081c-.114-1.474-1.02-2.948-2.495-3.629zm-2.607-.227c-.454.113-.907.34-1.36.567l-3.062-1.701c-.113 0-.34-.114-.454-.114-.68 0-1.36.567-1.36 1.361 0 .454.227.794.567 1.02l2.72 1.588c-.113.453-.226.793-.226 1.36 0 .567.113.794.227 1.36l-11.451 6.577c-.454-.567-1.02-1.02-1.928-1.474v-3.401c-.113-.68-.567-1.248-1.36-1.248-.794 0-1.248.454-1.36 1.248v3.287c-.795.227-1.588.68-2.042 1.474L9.921 36.848c.113-.453.226-.794.226-1.247 0-.34 0-.567-.113-.794l2.721-1.7.113-.114c.34-.227.567-.567.567-1.02 0-.68-.567-1.36-1.36-1.36-.227 0-.454.113-.68.226l-2.722 1.7c-.453-.34-.907-.566-1.587-.793V18.254c.567-.227 1.02-.454 1.474-.794l2.835 1.588c.113.113.34.113.453.113.68 0 1.36-.567 1.36-1.36 0-.34-.226-.68-.453-1.021l-2.494-1.587c.113-.227.113-.567.113-.794 0-.34 0-.68-.113-1.02l11.564-6.69c.454.567 1.248 1.02 1.928 1.36v3.402c0 .68.567 1.36 1.36 1.36.794 0 1.36-.566 1.36-1.36V8.05c.681-.227 1.361-.68 1.815-1.36l11.451 6.575c-.113.454-.113.794-.113 1.02v.568l-2.721 1.7c-.34.227-.567.567-.567 1.02 0 .681.567 1.361 1.36 1.361.227 0 .34 0 .567-.113l2.608-1.587c.454.453 1.247.793 1.927 1.02v13.379z" style="stroke-width:.0531463"/>
</svg>