<?xml version="1.0" encoding="UTF-8" standalone="no"?>
<svg
   height="50"
   viewBox="0 0 25 25"
   width="50"
   version="1.1"
   id="svg46"
   sodipodi:docname="php.svg"
   inkscape:version="1.1 (c68e22c387, 2021-05-23)"
   xmlns:inkscape="http://www.inkscape.org/namespaces/inkscape"
   xmlns:sodipodi="http://sodipodi.sourceforge.net/DTD/sodipodi-0.dtd"
   xmlns="http://www.w3.org/2000/svg"
   xmlns:svg="http://www.w3.org/2000/svg">
  <sodipodi:namedview
     id="namedview48"
     pagecolor="#ffffff"
     bordercolor="#111111"
     borderopacity="1"
     inkscape:pageshadow="0"
     inkscape:pageopacity="0"
     inkscape:pagecheckerboard="1"
     showgrid="false"
     width="50px"
     inkscape:zoom="13"
     inkscape:cx="31.961538"
     inkscape:cy="32.038462"
     inkscape:window-width="1920"
     inkscape:window-height="1017"
     inkscape:window-x="-8"
     inkscape:window-y="80"
     inkscape:window-maximized="1"
     inkscape:current-layer="svg46" />
  <defs
     id="defs20">
    <clipPath
       id="A">
      <path
         d="M 11.52,162 C 11.52,81.677 135.307,16.56 288,16.56 440.693,16.56 564.48,81.677 564.48,162 564.48,242.323 440.693,307.44 288,307.44 135.307,307.44 11.52,242.322 11.52,162"
         id="path2" />
    </clipPath>
    <radialGradient
       cx="0"
       cy="0"
       fx="0"
       fy="0"
       gradientTransform="matrix(363.05789,0,0,-363.05789,177.52002,256.30713)"
       gradientUnits="userSpaceOnUse"
       id="B"
       r="1"
       spreadMethod="pad">
      <stop
         offset="0"
         stop-color="#aeb2d5"
         id="stop5" />
      <stop
         offset=".3"
         stop-color="#aeb2d5"
         id="stop7" />
      <stop
         offset=".75"
         stop-color="#484c89"
         id="stop9" />
      <stop
         offset="1"
         stop-color="#484c89"
         id="stop11" />
    </radialGradient>
    <clipPath
       id="C">
      <path
         d="M 0,324 H 576 V 0 H 0 Z"
         id="path14" />
    </clipPath>
    <clipPath
       id="D">
      <path
         d="M 0,324 H 576 V 0 H 0 Z"
         id="path17" />
    </clipPath>
  </defs>
  <g
     transform="matrix(0.04521123,0,0,-0.04459259,-0.52083337,19.723999)"
     id="g44">
    <g
       clip-path="url(#A)"
       id="g24">
      <path
         d="M 11.52,162 C 11.52,81.677 135.307,16.56 288,16.56 440.693,16.56 564.48,81.677 564.48,162 564.48,242.323 440.693,307.44 288,307.44 135.307,307.44 11.52,242.322 11.52,162"
         fill="url(#B)"
         id="path22"
         style="fill:url(#B)" />
    </g>
    <g
       clip-path="url(#C)"
       id="g28">
      <path
         d="M 288,27.36 C 434.73,27.36 553.68,87.64 553.68,162 553.68,236.36 434.73,296.64 288,296.64 141.27,296.64 22.32,236.36 22.32,162 22.32,87.64 141.27,27.36 288,27.36"
         fill="#777bb3"
         id="path26" />
    </g>
    <g
       clip-path="url(#D)"
       id="g42">
      <path
         d="m 161.734,145.307 c 12.065,0 21.072,2.225 26.77,6.61 5.638,4.34 9.532,11.862 11.573,22.353 1.903,9.806 1.178,16.653 -2.154,20.348 -3.407,3.774 -10.773,5.688 -21.893,5.688 h -19.28 l -10.69,-55 h 15.673 z M 98.67,77.557 c -0.895,0 -1.745,0.4 -2.314,1.092 a 3,3 0 0 0 -0.63,2.48 l 28.328,145.75 a 3,3 0 0 0 2.945,2.427 h 61.054 c 19.188,0 33.47,-5.2 42.447,-15.487 9.025,-10.33 11.812,-24.772 8.283,-42.92 -1.436,-7.394 -3.906,-14.26 -7.34,-20.41 -3.44,-6.155 -7.984,-11.85 -13.51,-16.93 -6.616,-6.192 -14.104,-10.682 -22.236,-13.324 -8.003,-2.607 -18.28,-3.93 -30.548,-3.93 h -24.722 l -7.06,-36.322 a 3,3 0 0 0 -2.944,-2.428 H 98.67 Z"
         id="path30" />
      <path
         d="m 159.224,197.307 h 16.808 c 13.42,0 18.083,-2.945 19.667,-4.7 2.628,-2.914 3.124,-9.058 1.435,-17.767 -1.898,-9.75 -5.416,-16.663 -10.458,-20.545 -5.162,-3.974 -13.554,-5.988 -24.94,-5.988 H 149.7 l 9.523,49 z m 28.83,35 H 127 a 6,6 0 0 1 -5.889,-4.855 L 92.783,81.7 a 6,6 0 0 1 5.889,-7.144 h 31.75 a 6,6 0 0 1 5.89,4.855 l 6.588,33.895 h 22.25 c 12.582,0 23.174,1.372 31.48,4.077 8.54,2.775 16.4,7.48 23.354,13.984 5.752,5.292 10.5,11.232 14.08,17.657 3.58,6.425 6.17,13.594 7.668,21.302 3.715,19.104 0.697,34.402 -8.97,45.466 -9.572,10.958 -24.614,16.514 -44.706,16.514 m -45.633,-90 h 19.313 c 12.8,0 22.336,2.41 28.6,7.234 6.264,4.824 10.492,12.875 12.688,24.157 2.1,10.832 1.144,18.476 -2.87,22.93 -4.014,4.454 -12.06,6.68 -24.12,6.68 H 154.28 l -11.856,-61 m 45.633,84 c 18.367,0 31.766,-4.82 40.188,-14.46 8.422,-9.64 10.957,-23.098 7.597,-40.375 -1.383,-7.117 -3.722,-13.624 -7.015,-19.52 -3.293,-5.896 -7.602,-11.293 -12.922,-16.184 -6.34,-5.933 -13.383,-10.16 -21.133,-12.68 -7.75,-2.525 -17.62,-3.782 -29.62,-3.782 h -27.196 l -7.53,-38.75 H 98.676 L 127,226.307 h 61.055"
         fill="#ffffff"
         id="path32" />
      <path
         d="m 311.583,116.307 c -0.896,0 -1.745,0.4 -2.314,1.092 -0.569,0.692 -0.802,1.6 -0.63,2.48 l 12.53,64.49 c 1.192,6.133 0.898,10.535 -0.827,12.395 -1.056,1.137 -4.228,3.044 -13.607,3.044 h -22.702 l -15.755,-81.072 a 3,3 0 0 0 -2.945,-2.428 h -31.5 a 3,3 0 0 0 -2.945,3.572 l 28.328,145.75 a 3,3 0 0 0 2.945,2.427 h 31.5 a 3,3 0 0 0 2.945,-3.572 l -6.836,-35.178 h 24.422 c 18.605,0 31.22,-3.28 38.57,-10.028 7.5,-6.884 9.827,-17.89 6.947,-32.72 l -13.18,-67.825 a 3,3 0 0 0 -2.945,-2.428 h -32 z"
         id="path34" />
      <path
         d="m 293.66,271.057 h -31.5 a 6,6 0 0 1 -5.89,-4.855 l -28.328,-145.75 a 6,6 0 0 1 5.89,-7.144 h 31.5 a 6,6 0 0 1 5.89,4.855 l 15.283,78.645 h 20.23 c 9.363,0 11.328,-2 11.407,-2.086 0.568,-0.61 1.315,-3.44 0.082,-9.78 l -12.53,-64.49 a 6,6 0 0 1 5.89,-7.144 h 32 a 6,6 0 0 1 5.89,4.855 l 13.18,67.825 c 3.093,15.92 0.447,27.864 -7.86,35.5 -7.928,7.28 -21.208,10.82 -40.6,10.82 H 293.41 l 6.143,31.605 a 6,6 0 0 1 -5.89,7.145 m 0,-6 -7.53,-38.75 h 28.062 c 17.657,0 29.836,-3.082 36.54,-9.238 6.704,-6.156 8.71,-16.14 6.032,-29.938 l -13.18,-67.824 h -32 l 12.53,64.488 c 1.426,7.336 0.902,12.34 -1.574,15.008 -2.476,2.668 -7.746,4.004 -15.805,4.004 H 281.56 l -16.226,-83.5 h -31.5 l 28.328,145.75 h 31.5"
         fill="#ffffff"
         id="path36" />
      <path
         d="m 409.55,145.307 c 12.065,0 21.072,2.225 26.77,6.61 5.638,4.34 9.532,11.86 11.574,22.353 1.903,9.806 1.178,16.653 -2.155,20.348 -3.407,3.774 -10.773,5.688 -21.893,5.688 h -19.28 l -10.69,-55 h 15.673 z m -63.062,-67.75 c -0.895,0 -1.745,0.4 -2.314,1.092 a 3,3 0 0 0 -0.631,2.48 l 28.328,145.75 a 3,3 0 0 0 2.946,2.427 h 61.053 c 19.19,0 33.47,-5.2 42.448,-15.487 9.025,-10.33 11.81,-24.77 8.283,-42.92 -1.438,-7.394 -3.907,-14.26 -7.342,-20.41 -3.44,-6.155 -7.984,-11.85 -13.51,-16.93 -6.616,-6.192 -14.104,-10.682 -22.236,-13.324 -8.003,-2.607 -18.28,-3.93 -30.548,-3.93 H 388.24 l -7.057,-36.322 a 3,3 0 0 0 -2.946,-2.428 h -31.75 z"
         id="path38" />
      <path
         d="m 407.04,197.307 h 16.808 c 13.42,0 18.083,-2.945 19.667,-4.7 2.63,-2.914 3.125,-9.058 1.435,-17.766 -1.898,-9.75 -5.417,-16.664 -10.458,-20.546 -5.162,-3.974 -13.554,-5.988 -24.94,-5.988 h -12.033 l 9.522,49 z m 28.83,35 h -61.054 a 6,6 0 0 1 -5.889,-4.855 L 340.6,81.7 a 6,6 0 0 1 5.889,-7.144 h 31.75 a 6,6 0 0 1 5.89,4.855 l 6.587,33.895 h 22.25 c 12.582,0 23.174,1.372 31.48,4.077 8.54,2.775 16.4,7.48 23.356,13.986 5.752,5.29 10.488,11.23 14.078,17.655 3.59,6.425 6.17,13.594 7.668,21.302 3.715,19.105 0.697,34.403 -8.97,45.467 -9.572,10.957 -24.613,16.513 -44.706,16.513 m -45.632,-90 h 19.312 c 12.8,0 22.336,2.41 28.6,7.234 6.264,4.824 10.492,12.875 12.688,24.157 2.102,10.832 1.145,18.476 -2.87,22.93 -4.015,4.454 -12.06,6.68 -24.12,6.68 h -21.754 l -11.855,-61 m 45.632,84 c 18.367,0 31.766,-4.82 40.188,-14.46 8.422,-9.64 10.957,-23.098 7.597,-40.375 -1.383,-7.117 -3.722,-13.624 -7.015,-19.52 -3.293,-5.896 -7.602,-11.293 -12.922,-16.184 -6.34,-5.933 -13.383,-10.16 -21.133,-12.68 -7.75,-2.525 -17.62,-3.782 -29.62,-3.782 h -27.196 l -7.53,-38.75 h -31.75 l 28.328,145.75 h 61.054"
         fill="#ffffff"
         id="path40" />
    </g>
  </g>
</svg>
