<svg xmlns="http://www.w3.org/2000/svg" xml:space="preserve" version="1.1" viewBox="0 0 32 32" >
  <path d="M11.5 9.5A.5.5 0 0 1 12 9h5a.5.5 0 0 1 0 1h-5a.5.5 0 0 1-.5-.5zM17 13h-5a.5.5 0 0 0 0 1h5a.5.5 0 0 0 0-1zm1-2h-7a.5.5 0 0 0 0 1h7a.5.5 0 0 0 0-1zm10-7v24a3 3 0 0 1-3 3H7a3 3 0 0 1-3-3V4a3 3 0 0 1 3-3h18a3 3 0 0 1 3 3zm-6 26c1.103 0 2-.897 2-2V4c0-1.103-.897-2-2-2H7c-1.103 0-2 .897-2 2v24c0 1.103.897 2 2 2h15zm5-26c0-1.103-.897-2-2-2h-.779c.479.532.779 1.228.779 2v24c0 .772-.3 1.468-.779 2H25c1.103 0 2-.897 2-2V4z" style="fill:#fff"/>
</svg>