<?xml version="1.0" encoding="UTF-8" standalone="no"?>
<svg
   width="50"
   height="50"
   viewBox="0 0 25 25"
   version="1.1"
   id="svg22"
   sodipodi:docname="python.svg"
   inkscape:version="1.1 (c68e22c387, 2021-05-23)"
   xmlns:inkscape="http://www.inkscape.org/namespaces/inkscape"
   xmlns:sodipodi="http://sodipodi.sourceforge.net/DTD/sodipodi-0.dtd"
   xmlns="http://www.w3.org/2000/svg"
   xmlns:svg="http://www.w3.org/2000/svg">
  <sodipodi:namedview
     id="namedview24"
     pagecolor="#ffffff"
     bordercolor="#111111"
     borderopacity="1"
     inkscape:pageshadow="0"
     inkscape:pageopacity="0"
     inkscape:pagecheckerboard="1"
     showgrid="false"
     width="50px"
     inkscape:zoom="9.1923882"
     inkscape:cx="11.91203"
     inkscape:cy="36.171231"
     inkscape:window-width="1920"
     inkscape:window-height="1017"
     inkscape:window-x="-8"
     inkscape:window-y="80"
     inkscape:window-maximized="1"
     inkscape:current-layer="svg22" />
  <defs
     id="defs12">
    <linearGradient
       id="A"
       x1="811.52698"
       y1="574.89502"
       x2="665.255"
       y2="573.73199"
       gradientUnits="userSpaceOnUse">
      <stop
         offset="0"
         stop-color="#366a96"
         id="stop2" />
      <stop
         offset="1"
         stop-color="#3679b0"
         id="stop4" />
    </linearGradient>
    <linearGradient
       id="B"
       x1="862.82397"
       y1="642.17603"
       x2="573.276"
       y2="642.17603"
       gradientUnits="userSpaceOnUse">
      <stop
         offset="0"
         stop-color="#ffc836"
         id="stop7" />
      <stop
         offset="1"
         stop-color="#ffe873"
         id="stop9" />
    </linearGradient>
  </defs>
  <g
     transform="matrix(0.12653674,0,0,0.12371032,-84.179054,-63.822772)"
     id="g20">
    <path
       d="m 716.255,544.487 c 0,-13.623 3.653,-21.034 23.822,-24.563 13.693,-2.4 31.25,-2.7 47.627,0 12.935,2.135 23.822,11.77 23.822,24.563 v 44.945 c 0,13.182 -10.57,23.98 -23.822,23.98 h -47.627 c -16.164,0 -29.787,13.782 -29.787,29.363 v 21.564 h -16.376 c -13.852,0 -21.917,-9.988 -25.305,-23.964 -4.57,-18.776 -4.376,-29.963 0,-47.945 3.794,-15.687 15.917,-23.964 29.77,-23.964 h 65.52 v -6 h -47.645 v -17.98 z"
       fill="url(#A)"
       id="path14"
       style="fill:url(#A)" />
    <path
       d="m 811.527,688.32 c 0,13.623 -11.823,20.523 -23.822,23.964 -18.052,5.188 -32.54,4.394 -47.627,0 -12.6,-3.67 -23.822,-11.17 -23.822,-23.964 v -44.945 c 0,-12.935 10.782,-23.98 23.822,-23.98 h 47.627 c 15.864,0 29.787,-13.71 29.787,-29.963 v -20.964 h 17.858 c 13.87,0 20.4,10.305 23.822,23.964 4.764,18.97 4.976,33.157 0,47.945 -4.817,14.364 -9.97,23.964 -23.822,23.964 H 763.9 v 6 h 47.627 v 17.98 z"
       fill="url(#B)"
       id="path16"
       style="fill:url(#B)" />
    <path
       d="m 728.166,541.505 c 0,-4.976 3.988,-9 8.93,-9 4.923,0 8.93,4.023 8.93,9 0,4.96 -4.006,8.982 -8.93,8.982 -4.94,0 -8.93,-4.023 -8.93,-8.982 z m 53.59,149.798 c 0,-4.96 4.006,-8.982 8.93,-8.982 4.94,0 8.93,4.023 8.93,8.982 0,4.976 -3.988,9 -8.93,9 -4.923,0 -8.93,-4.023 -8.93,-9 z"
       fill="#ffffff"
       id="path18" />
  </g>
</svg>
