<?xml version="1.0" encoding="UTF-8" standalone="no"?>
<svg
   preserveAspectRatio="xMidYMid"
   width="50"
   height="50"
   version="1.1"
   id="svg20"
   sodipodi:docname="r.svg"
   inkscape:version="1.1 (c68e22c387, 2021-05-23)"
   xmlns:inkscape="http://www.inkscape.org/namespaces/inkscape"
   xmlns:sodipodi="http://sodipodi.sourceforge.net/DTD/sodipodi-0.dtd"
   xmlns="http://www.w3.org/2000/svg"
   xmlns:svg="http://www.w3.org/2000/svg">
  <sodipodi:namedview
     id="namedview22"
     pagecolor="#ffffff"
     bordercolor="#111111"
     borderopacity="1"
     inkscape:pageshadow="0"
     inkscape:pageopacity="0"
     inkscape:pagecheckerboard="1"
     showgrid="false"
     inkscape:zoom="9.1923882"
     inkscape:cx="23.225738"
     inkscape:cy="39.326016"
     inkscape:window-width="1920"
     inkscape:window-height="1017"
     inkscape:window-x="-8"
     inkscape:window-y="80"
     inkscape:window-maximized="1"
     inkscape:current-layer="svg20" />
  <defs
     id="defs12">
    <linearGradient
       id="A"
       x1="-29.929001"
       x2="129.043"
       y1="-174.802"
       y2="62.564999"
       gradientUnits="userSpaceOnUse"
       spreadMethod="pad">
      <stop
         offset="0"
         stop-color="#cbced0"
         id="stop2" />
      <stop
         offset="1"
         stop-color="#84838b"
         id="stop4" />
    </linearGradient>
    <linearGradient
       id="B"
       x1="35.568001"
       x2="123.311"
       y1="-76.296997"
       y2="13.236"
       gradientUnits="userSpaceOnUse"
       spreadMethod="pad">
      <stop
         offset="0"
         stop-color="#276dc3"
         id="stop7" />
      <stop
         offset="1"
         stop-color="#165caa"
         id="stop9" />
    </linearGradient>
  </defs>
  <g
     transform="matrix(0.3145208,0,0,0.31452554,9.4132437,40.115405)"
     fill-rule="evenodd"
     id="g18">
    <path
       d="m 49.557,-2.885 c -43.9,0 -79.486,-23.834 -79.486,-53.234 0,-29.4 35.587,-53.234 79.486,-53.234 43.899,0 79.486,23.834 79.486,53.234 0,29.4 -35.587,53.234 -79.486,53.234 z M 61.724,-88.54 c -33.367,0 -60.416,16.294 -60.416,36.393 0,20.099 27.05,36.393 60.416,36.393 33.366,0 57.99,-11.14 57.99,-36.393 0,-25.245 -24.624,-36.393 -57.99,-36.393 z"
       fill="url(#A)"
       id="path14"
       style="fill:url(#A)" />
    <path
       d="m 91.124,-26.9 c 0,0 4.81,1.452 7.606,2.866 0.97,0.49 2.648,1.47 3.858,2.756 1.186,1.26 1.764,2.535 1.764,2.535 l 18.96,31.967 -30.644,0.014 -14.33,-26.9 c 0,0 -2.934,-5.042 -4.74,-6.504 -1.506,-1.22 -2.148,-1.653 -3.638,-1.653 h -7.28 l 0.006,35.047 -27.116,0.01 v -89.526 h 54.45 c 0,0 24.802,0.447 24.802,24.044 0,23.597 -23.7,25.353 -23.7,25.353 z m -11.794,-29.978 -16.416,-0.01 -0.008,15.223 16.424,-0.006 c 0,0 7.606,-0.024 7.606,-7.744 0,-7.875 -7.606,-7.463 -7.606,-7.463 z"
       fill="url(#B)"
       id="path16"
       style="fill:url(#B)" />
  </g>
</svg>
