<svg xmlns="http://www.w3.org/2000/svg" xmlns:svg="http://www.w3.org/2000/svg" id="svg20" width="50" height="50" preserveAspectRatio="xMidYMid" version="1.1"><defs id="defs12"><linearGradient id="A" x1="-29.929" x2="129.043" y1="-174.802" y2="62.565" gradientUnits="userSpaceOnUse" spreadMethod="pad"><stop id="stop2" offset="0" stop-color="#cbced0"/><stop id="stop4" offset="1" stop-color="#84838b"/></linearGradient><linearGradient id="B" x1="35.568" x2="123.311" y1="-76.297" y2="13.236" gradientUnits="userSpaceOnUse" spreadMethod="pad"><stop id="stop7" offset="0" stop-color="#276dc3"/><stop id="stop9" offset="1" stop-color="#165caa"/></linearGradient></defs><g id="g18" fill-rule="evenodd" transform="matrix(0.3145208,0,0,0.31452554,9.4132437,40.115405)"><path id="path14" fill="url(#A)" d="m 49.557,-2.885 c -43.9,0 -79.486,-23.834 -79.486,-53.234 0,-29.4 35.587,-53.234 79.486,-53.234 43.899,0 79.486,23.834 79.486,53.234 0,29.4 -35.587,53.234 -79.486,53.234 z M 61.724,-88.54 c -33.367,0 -60.416,16.294 -60.416,36.393 0,20.099 27.05,36.393 60.416,36.393 33.366,0 57.99,-11.14 57.99,-36.393 0,-25.245 -24.624,-36.393 -57.99,-36.393 z" style="fill:url(#A)"/><path id="path16" fill="url(#B)" d="m 91.124,-26.9 c 0,0 4.81,1.452 7.606,2.866 0.97,0.49 2.648,1.47 3.858,2.756 1.186,1.26 1.764,2.535 1.764,2.535 l 18.96,31.967 -30.644,0.014 -14.33,-26.9 c 0,0 -2.934,-5.042 -4.74,-6.504 -1.506,-1.22 -2.148,-1.653 -3.638,-1.653 h -7.28 l 0.006,35.047 -27.116,0.01 v -89.526 h 54.45 c 0,0 24.802,0.447 24.802,24.044 0,23.597 -23.7,25.353 -23.7,25.353 z m -11.794,-29.978 -16.416,-0.01 -0.008,15.223 16.424,-0.006 c 0,0 7.606,-0.024 7.606,-7.744 0,-7.875 -7.606,-7.463 -7.606,-7.463 z" style="fill:url(#B)"/></g></svg>