<svg xmlns="http://www.w3.org/2000/svg" id="svg20" width="50" height="50" preserveAspectRatio="xMidYMid" version="1.1">
  <defs id="defs12">
    <linearGradient id="A" x1="-29.929" x2="129.043" y1="-174.802" y2="62.565" gradientUnits="userSpaceOnUse" spreadMethod="pad">
      <stop id="stop2" offset="0" stop-color="#cbced0"/>
      <stop id="stop4" offset="1" stop-color="#84838b"/>
    </linearGradient>
    <linearGradient id="B" x1="35.568" x2="123.311" y1="-76.297" y2="13.236" gradientUnits="userSpaceOnUse" spreadMethod="pad">
      <stop id="stop7" offset="0" stop-color="#276dc3"/>
      <stop id="stop9" offset="1" stop-color="#165caa"/>
    </linearGradient>
  </defs>
  <g id="g18" fill-rule="evenodd" transform="matrix(.31452 0 0 .31453 9.413 40.115)">
    <path id="path14" fill="url(#A)" d="M49.557-2.885c-43.9 0-79.486-23.834-79.486-53.234 0-29.4 35.587-53.234 79.486-53.234s79.486 23.834 79.486 53.234c0 29.4-35.587 53.234-79.486 53.234zM61.724-88.54c-33.367 0-60.416 16.294-60.416 36.393s27.05 36.393 60.416 36.393 57.99-11.14 57.99-36.393c0-25.245-24.624-36.393-57.99-36.393z" style="fill:url(#A)"/>
    <path id="path16" fill="url(#B)" d="M91.124-26.9s4.81 1.452 7.606 2.866c.97.49 2.648 1.47 3.858 2.756a10.43 10.43 0 0 1 1.764 2.535l18.96 31.967-30.644.014-14.33-26.9s-2.934-5.042-4.74-6.504c-1.506-1.22-2.148-1.653-3.638-1.653h-7.28l.006 35.047-27.116.01v-89.526h54.45s24.802.447 24.802 24.044-23.7 25.353-23.7 25.353zM79.33-56.878l-16.416-.01-.008 15.223 16.424-.006s7.606-.024 7.606-7.744c0-7.875-7.606-7.463-7.606-7.463z" style="fill:url(#B)"/>
  </g>
</svg>