<svg xmlns="http://www.w3.org/2000/svg" xmlns:svg="http://www.w3.org/2000/svg" id="svg14" width="50" height="50" version="1.1" viewBox="0 0 25 25"><g id="g12" fill="none" fill-rule="evenodd" transform="matrix(0.04447372,0,0,0.04419693,0.50611305,1.901704)"><circle id="circle2" cx="269.529" cy="237.628" r="50.167" fill="#00d8ff"/><g id="g10" stroke="#00d8ff" stroke-width="24"><path id="path4" d="m 269.53,135.628 c 67.356,0 129.928,9.665 177.107,25.907 56.844,19.57 91.794,49.233 91.794,76.093 0,27.99 -37.04,59.503 -98.083,79.728 -46.15,15.29 -106.88,23.272 -170.818,23.272 -65.554,0 -127.63,-7.492 -174.3,-23.44 -59.046,-20.182 -94.61,-52.103 -94.61,-79.56 0,-26.642 33.37,-56.076 89.415,-75.616 47.355,-16.51 111.472,-26.384 179.486,-26.384 z"/><path id="path6" d="m 180.736,186.922 c 33.65,-58.348 73.28,-107.724 110.92,-140.48 45.35,-39.466 88.507,-54.922 111.774,-41.505 24.248,13.983 33.042,61.814 20.067,124.796 -9.8,47.618 -33.234,104.212 -65.176,159.6 -32.75,56.788 -70.25,106.82 -107.377,139.272 -46.98,41.068 -92.4,55.93 -116.185,42.213 -23.08,-13.3 -31.906,-56.92 -20.834,-115.233 9.355,-49.27 32.832,-109.745 66.8,-168.664 z"/><path id="path8" d="M 180.82,289.482 C 147.075,231.2 124.1,172.195 114.51,123.227 c -11.544,-59 -3.382,-104.11 19.864,-117.566 24.224,-14.024 70.055,2.244 118.14,44.94 36.356,32.28 73.688,80.837 105.723,136.173 32.844,56.733 57.46,114.21 67.036,162.582 12.117,61.213 2.31,107.984 -21.453,121.74 -23.057,13.348 -65.25,-0.784 -110.24,-39.5 -38.013,-32.71 -78.682,-83.253 -112.76,-142.115 z"/></g></g></svg>