<?xml version="1.0" encoding="UTF-8" standalone="no"?>
<svg
   id="Layer_1"
   x="0"
   y="0"
   version="1.1"
   viewBox="0 0 50 50"
   xml:space="preserve"
   sodipodi:docname="science.svg"
   width="50"
   height="50"
   inkscape:version="1.1 (c68e22c387, 2021-05-23)"
   xmlns:inkscape="http://www.inkscape.org/namespaces/inkscape"
   xmlns:sodipodi="http://sodipodi.sourceforge.net/DTD/sodipodi-0.dtd"
   xmlns="http://www.w3.org/2000/svg"
   xmlns:svg="http://www.w3.org/2000/svg"><defs
     id="defs17" /><sodipodi:namedview
     id="namedview15"
     pagecolor="#ffffff"
     bordercolor="#111111"
     borderopacity="1"
     inkscape:pageshadow="0"
     inkscape:pageopacity="0"
     inkscape:pagecheckerboard="1"
     showgrid="false"
     width="50px"
     inkscape:zoom="1.1490485"
     inkscape:cx="170.14077"
     inkscape:cy="284.14814"
     inkscape:window-width="1920"
     inkscape:window-height="1017"
     inkscape:window-x="-8"
     inkscape:window-y="80"
     inkscape:window-maximized="1"
     inkscape:current-layer="Layer_1" /><path
     style="fill:#80d0e1;stroke-width:0.0976562"
     d="M 31.462138,1.2298828 H 18.538404 c -1.305371,0 -2.363574,1.0582031 -2.363574,2.3633789 v 0 c 0,1.3053711 1.058203,2.3635742 2.363574,2.3635742 h 12.923734 c 1.305372,0 2.363575,-1.0582031 2.363575,-2.3635742 v 0 c 0,-1.3051758 -1.058301,-2.3633789 -2.363575,-2.3633789 z"
     id="path2" /><polygon
     style="fill:#ffffff"
     points="372.218,356.555 310.746,283.308 310.746,60.998 201.258,60.998 201.258,283.308 139.788,356.555 "
     id="polygon4"
     transform="matrix(0.09765627,0,0,0.09765625,2.1278979e-5,0)" /><path
     style="fill:#ffda79;stroke-width:0.0976562"
     d="M 36.349444,34.819824 H 13.651196 l -6.4447277,7.679395 c -2.084473,2.483789 -0.318652,6.270898 2.9239267,6.270898 h 29.739948 c 3.242579,0 5.0084,-3.787109 2.923927,-6.270898 z"
     id="path6" /><g
     id="g12"
     transform="matrix(0.09765627,0,0,0.09765625,2.1278979e-5,0)"><path
       style="fill:#58595b"
       d="M 447.859,427.096 C 435.473,412.337 335.012,292.631 323.342,278.723 V 73.564 C 343.09,72.943 358.969,56.694 358.969,36.797 358.967,16.507 342.46,0 322.172,0 H 189.833 c -20.289,0 -36.797,16.507 -36.797,36.795 0,19.899 15.877,36.147 35.627,36.767 V 278.721 C 168.395,302.871 77.218,411.518 64.145,427.094 35.908,460.746 59.864,512 103.735,512 h 304.537 c 43.928,0 67.788,-51.297 39.587,-84.904 z M 178.226,36.795 c 0,-6.401 5.207,-11.607 11.609,-11.607 h 132.339 c 6.401,0 11.607,5.207 11.607,11.607 0,6.4 -5.207,11.609 -11.607,11.609 -12.685,0 -119.369,0 -132.339,0 -6.402,0 -11.609,-5.207 -11.609,-11.609 z m 32.679,254.608 c 1.903,-2.269 2.947,-5.135 2.947,-8.096 V 249.92 h 29.061 c 6.955,0 12.594,-5.637 12.594,-12.594 0,-6.957 -5.639,-12.594 -12.594,-12.594 h -29.061 v -20.238 h 29.061 c 6.955,0 12.594,-5.637 12.594,-12.594 0,-6.957 -5.639,-12.594 -12.594,-12.594 h -29.061 v -20.237 h 29.061 c 6.955,0 12.594,-5.637 12.594,-12.594 0,-6.957 -5.639,-12.594 -12.594,-12.594 H 213.852 V 73.593 h 84.299 v 209.715 c 0,2.962 1.043,5.829 2.947,8.096 l 44.109,52.557 H 166.8 Z M 408.271,486.811 H 103.735 c -22.557,0 -34.804,-26.233 -20.294,-43.524 l 62.219,-74.138 h 220.686 l 62.219,74.138 c 14.5,17.28 2.279,43.524 -20.294,43.524 z"
       id="path8" /><path
       style="fill:#58595b"
       d="m 317.221,389.978 c -20.955,0 -38.003,17.046 -38.003,38.001 0,20.955 17.048,38.003 38.003,38.003 20.955,0 38.001,-17.048 38.001,-38.003 0,-20.953 -17.046,-38.001 -38.001,-38.001 z m 0,50.816 c -7.066,0 -12.814,-5.748 -12.814,-12.814 0,-7.065 5.748,-12.813 12.814,-12.813 7.065,0 12.813,5.748 12.813,12.813 0,7.066 -5.748,12.814 -12.813,12.814 z"
       id="path10" /></g></svg>
