<?xml version="1.0" encoding="iso-8859-1"?>
<!-- Generator: Adobe Illustrator 19.0.0, SVG Export Plug-In . SVG Version: 6.00 Build 0)  -->
<svg version="1.1" id="Layer_1" xmlns="http://www.w3.org/2000/svg" xmlns:xlink="http://www.w3.org/1999/xlink" x="0px" y="0px"
	 viewBox="0 0 512 512" style="enable-background:new 0 0 512 512;" xml:space="preserve">
<path style="fill:#80D0E1;" d="M322.172,12.594H189.833c-13.367,0-24.203,10.836-24.203,24.201l0,0
	c0,13.367,10.836,24.203,24.203,24.203h132.339c13.367,0,24.203-10.836,24.203-24.203l0,0
	C346.375,23.43,335.538,12.594,322.172,12.594z"/>
<polygon style="fill:#FFFFFF;" points="310.746,283.308 310.746,60.998 201.258,60.998 201.258,283.308 139.788,356.555 
	372.218,356.555 "/>
<path style="fill:#FFDA79;" d="M372.218,356.555h-232.43l-65.994,78.637c-21.345,25.434-3.263,64.214,29.941,64.214h304.537
	c33.204,0,51.286-38.78,29.941-64.214L372.218,356.555z"/>
<g>
	<path style="fill:#58595B;" d="M447.859,427.096c-12.386-14.759-112.847-134.465-124.517-148.373V73.564
		c19.748-0.621,35.627-16.87,35.627-36.767C358.967,16.507,342.46,0,322.172,0H189.833c-20.289,0-36.797,16.507-36.797,36.795
		c0,19.899,15.877,36.147,35.627,36.767v205.159C168.395,302.871,77.218,411.518,64.145,427.094
		C35.908,460.746,59.864,512,103.735,512h304.537C452.2,512,476.06,460.703,447.859,427.096z M178.226,36.795
		c0-6.401,5.207-11.607,11.609-11.607h132.339c6.401,0,11.607,5.207,11.607,11.607s-5.207,11.609-11.607,11.609
		c-12.685,0-119.369,0-132.339,0C183.433,48.404,178.226,43.197,178.226,36.795z M210.905,291.403
		c1.903-2.269,2.947-5.135,2.947-8.096v-33.387h29.061c6.955,0,12.594-5.637,12.594-12.594s-5.639-12.594-12.594-12.594h-29.061
		v-20.238h29.061c6.955,0,12.594-5.637,12.594-12.594c0-6.957-5.639-12.594-12.594-12.594h-29.061v-20.237h29.061
		c6.955,0,12.594-5.637,12.594-12.594c0-6.957-5.639-12.594-12.594-12.594h-29.061V73.593h84.299v209.715
		c0,2.962,1.043,5.829,2.947,8.096l44.109,52.557H166.8L210.905,291.403z M408.271,486.811H103.735
		c-22.557,0-34.804-26.233-20.294-43.524l62.219-74.138h220.686l62.219,74.138C443.065,460.567,430.844,486.811,408.271,486.811z"/>
	<path style="fill:#58595B;" d="M317.221,389.978c-20.955,0-38.003,17.046-38.003,38.001c0,20.955,17.048,38.003,38.003,38.003
		c20.955,0,38.001-17.048,38.001-38.003C355.222,407.026,338.176,389.978,317.221,389.978z M317.221,440.794
		c-7.066,0-12.814-5.748-12.814-12.814c0-7.065,5.748-12.813,12.814-12.813c7.065,0,12.813,5.748,12.813,12.813
		C330.034,435.046,324.286,440.794,317.221,440.794z"/>
</g>
<g>
</g>
<g>
</g>
<g>
</g>
<g>
</g>
<g>
</g>
<g>
</g>
<g>
</g>
<g>
</g>
<g>
</g>
<g>
</g>
<g>
</g>
<g>
</g>
<g>
</g>
<g>
</g>
<g>
</g>
</svg>
