<svg xmlns="http://www.w3.org/2000/svg" id="Layer_1" width="50" height="50" x="0" y="0" version="1.1" xml:space="preserve">
  <path style="fill:#80d0e1;stroke-width:.0976562" id="path2" d="M31.462 1.23H18.538a2.364 2.364 0 1 0 0 4.727h12.924a2.364 2.364 0 0 0 0-4.727z"/>
  <path style="fill:#fff" id="polygon4" transform="scale(.09766)" d="m372.218 356.555-61.472-73.247V60.998H201.258v222.31l-61.47 73.247z"/>
  <path style="fill:#ffda79;stroke-width:.0976562" id="path6" d="M36.35 34.82h-22.7L7.206 42.5c-2.084 2.483-.318 6.27 2.924 6.27h29.74c3.243 0 5.009-3.787 2.924-6.27z"/>
  <g id="g12" transform="scale(.09766)">
    <path style="fill:#58595b" id="path8" d="M447.859 427.096c-12.386-14.759-112.847-134.465-124.517-148.373V73.564c19.748-.621 35.627-16.87 35.627-36.767C358.967 16.507 342.46 0 322.172 0H189.833c-20.289 0-36.797 16.507-36.797 36.795 0 19.899 15.877 36.147 35.627 36.767v205.159L64.145 427.094C35.908 460.746 59.864 512 103.735 512h304.537c43.928 0 67.788-51.297 39.587-84.904zM178.226 36.795c0-6.401 5.207-11.607 11.609-11.607h132.339c6.401 0 11.607 5.207 11.607 11.607 0 6.4-5.207 11.609-11.607 11.609H189.835c-6.402 0-11.609-5.207-11.609-11.609zm32.679 254.608a12.6 12.6 0 0 0 2.947-8.096V249.92h29.061c6.955 0 12.594-5.637 12.594-12.594s-5.639-12.594-12.594-12.594h-29.061v-20.238h29.061c6.955 0 12.594-5.637 12.594-12.594s-5.639-12.594-12.594-12.594h-29.061v-20.237h29.061c6.955 0 12.594-5.637 12.594-12.594s-5.639-12.594-12.594-12.594h-29.061V73.593h84.299v209.715c0 2.962 1.043 5.829 2.947 8.096l44.109 52.557H166.8Zm197.366 195.408H103.735c-22.557 0-34.804-26.233-20.294-43.524l62.219-74.138h220.686l62.219 74.138c14.5 17.28 2.279 43.524-20.294 43.524z"/>
    <path style="fill:#58595b" id="path10" d="M317.221 389.978c-20.955 0-38.003 17.046-38.003 38.001s17.048 38.003 38.003 38.003c20.955 0 38.001-17.048 38.001-38.003 0-20.953-17.046-38.001-38.001-38.001zm0 50.816c-7.066 0-12.814-5.748-12.814-12.814 0-7.065 5.748-12.813 12.814-12.813 7.065 0 12.813 5.748 12.813 12.813 0 7.066-5.748 12.814-12.813 12.814z"/>
  </g>
</svg>