<?xml version="1.0" encoding="UTF-8" standalone="no"?>
<svg
   width="50"
   height="50"
   viewBox="0 0 50 50"
   version="1.1"
   id="svg30"
   sodipodi:docname="svg.svg"
   inkscape:version="1.1 (c68e22c387, 2021-05-23)"
   xmlns:inkscape="http://www.inkscape.org/namespaces/inkscape"
   xmlns:sodipodi="http://sodipodi.sourceforge.net/DTD/sodipodi-0.dtd"
   xmlns:xlink="http://www.w3.org/1999/xlink"
   xmlns="http://www.w3.org/2000/svg"
   xmlns:svg="http://www.w3.org/2000/svg"
   xmlns:rdf="http://www.w3.org/1999/02/22-rdf-syntax-ns#"
   xmlns:cc="http://creativecommons.org/ns#"
   xmlns:dc="http://purl.org/dc/elements/1.1/">
  <sodipodi:namedview
     id="namedview32"
     pagecolor="#ffffff"
     bordercolor="#111111"
     borderopacity="1"
     inkscape:pageshadow="0"
     inkscape:pageopacity="0"
     inkscape:pagecheckerboard="1"
     showgrid="false"
     width="50px"
     inkscape:zoom="11.093333"
     inkscape:cx="31.234976"
     inkscape:cy="25.105168"
     inkscape:window-width="1920"
     inkscape:window-height="1017"
     inkscape:window-x="-8"
     inkscape:window-y="80"
     inkscape:window-maximized="1"
     inkscape:current-layer="svg30" />
  <title
     id="title2">SVG Logo</title>
  <desc
     id="desc4">Designed for the SVG Logo Contest in 2006 by Harvey Rayner, and adopted by W3C in 2009. It is available under the Creative Commons license for those who have an SVG product or who are using SVG on their site.</desc>
  <metadata
     id="license">
    <rdf:RDF>
      <cc:Work>
        <dc:title>SVG Logo</dc:title>
        <dc:date>14-08-2009</dc:date>
        <dc:creator>
          <cc:Agent>
            <dc:title>W3C</dc:title>
          </cc:Agent>
          <cc:Agent>
            <dc:title>Harvey Rayner, designer</dc:title>
          </cc:Agent>
        </dc:creator>
        <dc:description>See document description</dc:description>
        <cc:license
           rdf:resource="http://creativecommons.org/licenses/by-nc-sa/2.5/" />
        <dc:format>image/svg+xml</dc:format>
        <dc:type
           rdf:resource="http://purl.org/dc/dcmitype/StillImage" />
      </cc:Work>
      <cc:License
         rdf:about="http://creativecommons.org/licenses/by-nc-sa/2.5/">
        <cc:permits
           rdf:resource="http://web.resource.org/cc/Reproduction" />
        <cc:permits
           rdf:resource="http://web.resource.org/cc/Distribution" />
        <cc:requires
           rdf:resource="http://web.resource.org/cc/Notice" />
        <cc:requires
           rdf:resource="http://web.resource.org/cc/Attribution" />
        <cc:prohibits
           rdf:resource="http://web.resource.org/cc/CommercialUse" />
        <cc:permits
           rdf:resource="http://web.resource.org/cc/DerivativeWorks" />
        <cc:requires
           rdf:resource="http://web.resource.org/cc/ShareAlike" />
      </cc:License>
    </rdf:RDF>
  </metadata>
  <defs
     id="defs11">
    <g
       id="SVG"
       fill="#ffffff"
       transform="matrix(2,0,0,2,40,158)">
      <path
         id="S"
         d="M 5.482,31.319 C 2.163,28.001 0.109,23.419 0.109,18.358 0.109,8.232 8.322,0.024 18.443,0.024 c 10.126,0 18.339,8.208 18.339,18.334 h -10.74 c 0,-4.194 -3.404,-7.593 -7.599,-7.593 -4.194,0 -7.593,3.399 -7.593,7.593 0,2.095 0.851,3.993 2.22,5.363 h 0.005 c 1.375,1.38 2.52,1.779 5.368,2.231 v 0 c 5.066,0.527 9.648,2.054 12.966,5.372 v 0 c 3.319,3.319 5.373,7.901 5.373,12.962 0,10.126 -8.213,18.339 -18.339,18.339 C 8.322,62.625 0.109,54.412 0.109,44.286 H 10.85 c 0,4.194 3.399,7.598 7.593,7.598 4.195,0 7.599,-3.404 7.599,-7.598 0,-2.095 -0.851,-3.988 -2.221,-5.363 H 23.816 C 22.441,37.548 20.468,37.074 18.443,36.697 V 36.692 C 13.533,35.939 8.8,34.638 5.482,31.319 Z" />
      <path
         id="V"
         d="M 73.452,0.024 60.482,62.625 H 49.742 L 36.782,0.024 h 10.74 l 7.6,36.663 7.59,-36.663 z" />
      <path
         id="G"
         d="m 91.792,25.952 h 18.334 v 18.334 h 0.005 c 0,10.127 -8.213,18.34 -18.339,18.34 -10.127,0 -18.334,-8.213 -18.334,-18.34 v 0 -25.927 h -0.005 c 0,-10.126 8.212,-18.334 18.339,-18.334 10.121,0 18.334,8.208 18.334,18.334 H 99.385 c 0,-4.19 -3.404,-7.594 -7.593,-7.594 -4.195,0 -7.594,3.404 -7.594,7.594 v 25.927 0 c 0,4.195 3.399,7.594 7.594,7.594 4.189,0 7.588,-3.399 7.593,-7.589 v -0.005 -7.588 h -7.593 z" />
    </g>
  </defs>
  <path
     id="base"
     fill="#000000"
     d="m 0,25.077063 h 50 v 17.727279 c 0,4.16591 -3.180212,7.356821 -7.332156,7.356821 H 7.332156 C 3.180212,50.161163 0,46.970252 0,42.804342 Z"
     style="stroke-width:0.176975" />
  <g
     stroke="#000000"
     stroke-width="38.009"
     id="g22"
     transform="matrix(0.17667844,0,0,0.17727279,-1.5017668,-1.5138576)">
    <g
       id="svgstar"
       transform="translate(150,150)">
      <path
         id="svgbar"
         fill="#ffb13b"
         d="m -84.1487,-15.8513 a 22.4171,22.4171 0 1 0 0,31.7026 H 84.1487 a 22.4171,22.4171 0 1 0 0,-31.7026 z" />
      <use
         transform="rotate(45)"
         xlink:href="#svgbar"
         id="use15"
         x="0"
         y="0"
         width="100%"
         height="100%" />
      <use
         transform="rotate(90)"
         xlink:href="#svgbar"
         id="use17"
         x="0"
         y="0"
         width="100%"
         height="100%" />
      <use
         transform="rotate(135)"
         xlink:href="#svgbar"
         id="use19"
         x="0"
         y="0"
         width="100%"
         height="100%" />
    </g>
  </g>
  <use
     xlink:href="#svgstar"
     id="use24"
     x="0"
     y="0"
     width="100%"
     height="100%"
     transform="matrix(0.17667844,0,0,0.17727279,-1.5017668,-1.5138576)" />
  <use
     opacity="0.85"
     xlink:href="#base"
     id="use26"
     x="0"
     y="0"
     width="100%"
     height="100%" />
  <use
     xlink:href="#SVG"
     id="use28"
     x="0"
     y="0"
     width="100%"
     height="100%"
     transform="matrix(0.17667844,0,0,0.17727279,-1.5017668,-1.5138576)" />
</svg>
