<svg xmlns="http://www.w3.org/2000/svg" xmlns:svg="http://www.w3.org/2000/svg" xmlns:xlink="http://www.w3.org/1999/xlink" id="svg30" width="50" height="50" version="1.1" viewBox="0 0 50 50"><title id="title2">SVG Logo</title><desc id="desc4">Designed for the SVG Logo Contest in 2006 by Harvey Rayner, and adopted by W3C in 2009. It is available under the Creative Commons license for those who have an SVG product or who are using SVG on their site.</desc><metadata id="license"/><defs id="defs11"><g id="SVG" fill="#fff" transform="matrix(2,0,0,2,40,158)"><path id="S" d="M 5.482,31.319 C 2.163,28.001 0.109,23.419 0.109,18.358 0.109,8.232 8.322,0.024 18.443,0.024 c 10.126,0 18.339,8.208 18.339,18.334 h -10.74 c 0,-4.194 -3.404,-7.593 -7.599,-7.593 -4.194,0 -7.593,3.399 -7.593,7.593 0,2.095 0.851,3.993 2.22,5.363 h 0.005 c 1.375,1.38 2.52,1.779 5.368,2.231 v 0 c 5.066,0.527 9.648,2.054 12.966,5.372 v 0 c 3.319,3.319 5.373,7.901 5.373,12.962 0,10.126 -8.213,18.339 -18.339,18.339 C 8.322,62.625 0.109,54.412 0.109,44.286 H 10.85 c 0,4.194 3.399,7.598 7.593,7.598 4.195,0 7.599,-3.404 7.599,-7.598 0,-2.095 -0.851,-3.988 -2.221,-5.363 H 23.816 C 22.441,37.548 20.468,37.074 18.443,36.697 V 36.692 C 13.533,35.939 8.8,34.638 5.482,31.319 Z"/><path id="V" d="M 73.452,0.024 60.482,62.625 H 49.742 L 36.782,0.024 h 10.74 l 7.6,36.663 7.59,-36.663 z"/><path id="G" d="m 91.792,25.952 h 18.334 v 18.334 h 0.005 c 0,10.127 -8.213,18.34 -18.339,18.34 -10.127,0 -18.334,-8.213 -18.334,-18.34 v 0 -25.927 h -0.005 c 0,-10.126 8.212,-18.334 18.339,-18.334 10.121,0 18.334,8.208 18.334,18.334 H 99.385 c 0,-4.19 -3.404,-7.594 -7.593,-7.594 -4.195,0 -7.594,3.404 -7.594,7.594 v 25.927 0 c 0,4.195 3.399,7.594 7.594,7.594 4.189,0 7.588,-3.399 7.593,-7.589 v -0.005 -7.588 h -7.593 z"/></g></defs><path id="base" fill="#000" d="m 0,25.077063 h 50 v 17.727279 c 0,4.16591 -3.180212,7.356821 -7.332156,7.356821 H 7.332156 C 3.180212,50.161163 0,46.970252 0,42.804342 Z" style="stroke-width:.176975"/><g id="g22" stroke="#000" stroke-width="38.009" transform="matrix(0.17667844,0,0,0.17727279,-1.5017668,-1.5138576)"><g id="svgstar" transform="translate(150,150)"><path id="svgbar" fill="#ffb13b" d="m -84.1487,-15.8513 a 22.4171,22.4171 0 1 0 0,31.7026 H 84.1487 a 22.4171,22.4171 0 1 0 0,-31.7026 z"/><use id="use15" width="100%" height="100%" x="0" y="0" transform="rotate(45)" xlink:href="#svgbar"/><use id="use17" width="100%" height="100%" x="0" y="0" transform="rotate(90)" xlink:href="#svgbar"/><use id="use19" width="100%" height="100%" x="0" y="0" transform="rotate(135)" xlink:href="#svgbar"/></g></g><use id="use24" width="100%" height="100%" x="0" y="0" transform="matrix(0.17667844,0,0,0.17727279,-1.5017668,-1.5138576)" xlink:href="#svgstar"/><use id="use26" width="100%" height="100%" x="0" y="0" opacity=".85" xlink:href="#base"/><use id="use28" width="100%" height="100%" x="0" y="0" transform="matrix(0.17667844,0,0,0.17727279,-1.5017668,-1.5138576)" xlink:href="#SVG"/></svg>