<svg xmlns="http://www.w3.org/2000/svg" xmlns:xlink="http://www.w3.org/1999/xlink" id="svg30" width="50" height="50" version="1.1">
  <defs id="defs11">
    <g id="SVG" fill="#fff" transform="matrix(2 0 0 2 40 158)">
      <path id="S" d="M5.482 31.319A18.27 18.27 0 0 1 .109 18.358C.109 8.232 8.322.024 18.443.024c10.126 0 18.339 8.208 18.339 18.334h-10.74c0-4.194-3.404-7.593-7.599-7.593a7.592 7.592 0 0 0-5.373 12.956h.005c1.375 1.38 2.52 1.779 5.368 2.231 5.066.527 9.648 2.054 12.966 5.372a18.275 18.275 0 0 1 5.373 12.962c0 10.126-8.213 18.339-18.339 18.339C8.322 62.625.109 54.412.109 44.286H10.85c0 4.194 3.399 7.598 7.593 7.598a7.601 7.601 0 0 0 7.599-7.598 7.574 7.574 0 0 0-2.221-5.363h-.005c-1.375-1.375-3.348-1.849-5.373-2.226v-.005c-4.91-.753-9.643-2.054-12.961-5.373Z"/>
      <path id="V" d="m73.452.024-12.97 62.601h-10.74L36.782.024h10.74l7.6 36.663L62.712.024z"/>
      <path id="G" d="M91.792 25.952h18.334v18.334h.005c0 10.127-8.213 18.34-18.339 18.34-10.127 0-18.334-8.213-18.334-18.34V18.359h-.005C73.453 8.233 81.665.025 91.792.025c10.121 0 18.334 8.208 18.334 18.334H99.385a7.599 7.599 0 0 0-7.593-7.594 7.596 7.596 0 0 0-7.594 7.594v25.927a7.593 7.593 0 0 0 15.187.005v-7.593h-7.593z"/>
    </g>
  </defs>
  <path id="base" fill="#000" d="M0 25.077h50v17.727c0 4.166-3.18 7.357-7.332 7.357H7.332C3.18 50.161 0 46.971 0 42.804Z" style="stroke-width:.176975"/>
  <g id="g22" stroke="#000" stroke-width="38.009" transform="matrix(.17668 0 0 .17727 -1.502 -1.514)">
    <g id="svgstar" transform="translate(150 150)">
      <path id="svgbar" fill="#ffb13b" d="M-84.149-15.851a22.417 22.417 0 1 0 0 31.702H84.15a22.417 22.417 0 1 0 0-31.702z"/>
      <use id="use15" width="100%" height="100%" x="0" y="0" transform="rotate(45)" xlink:href="#svgbar"/>
      <use id="use17" width="100%" height="100%" x="0" y="0" transform="rotate(90)" xlink:href="#svgbar"/>
      <use id="use19" width="100%" height="100%" x="0" y="0" transform="rotate(135)" xlink:href="#svgbar"/>
    </g>
  </g>
  <use id="use24" width="100%" height="100%" x="0" y="0" transform="matrix(.17668 0 0 .17727 -1.502 -1.514)" xlink:href="#svgstar"/>
  <use id="use26" width="100%" height="100%" x="0" y="0" opacity=".85" xlink:href="#base"/>
  <use id="use28" width="100%" height="100%" x="0" y="0" transform="matrix(.17668 0 0 .17727 -1.502 -1.514)" xlink:href="#SVG"/>
</svg>