<svg xmlns="http://www.w3.org/2000/svg" id="svg6" width="50" height="50" version="1.1">
  <rect id="rect2" width="50" height="50" x="0" y="0" fill="#35465c" rx="1.465%" style="stroke-width:.0976562"/>
  <path id="path4" fill="#fff" d="M35.254 40.527c-1.172 1.27-3.906 2.051-6.348 2.051h-.293c-8.3 0-10.058-5.957-10.058-9.57v-9.961h-3.418c-.293 0-.586-.293-.586-.781v-4.59c0-.586.293-.977.683-1.074 4.297-1.66 5.567-5.274 5.86-8.106 0-.781.488-1.074 1.172-1.074h4.882c.391 0 .586.293.586.586v8.008h5.664c.489 0 .782.293.782.78v5.47c0 .39-.293.683-.782.683h-5.664v9.18c0 2.344 1.563 2.93 2.442 2.93.976 0 1.758-.196 2.246-.391.781-.39 1.27.098 1.367.39l1.465 4.395c.195.39.293.781 0 1.074z" style="stroke-width:.0976562"/>
</svg>