<?xml version="1.0" encoding="UTF-8" standalone="no"?>
<svg
   height="50"
   width="50"
   version="1.1"
   id="svg6"
   sodipodi:docname="tumblr.svg"
   inkscape:version="1.1 (c68e22c387, 2021-05-23)"
   xmlns:inkscape="http://www.inkscape.org/namespaces/inkscape"
   xmlns:sodipodi="http://sodipodi.sourceforge.net/DTD/sodipodi-0.dtd"
   xmlns="http://www.w3.org/2000/svg"
   xmlns:svg="http://www.w3.org/2000/svg">
  <defs
     id="defs10" />
  <sodipodi:namedview
     id="namedview8"
     pagecolor="#ffffff"
     bordercolor="#111111"
     borderopacity="1"
     inkscape:pageshadow="0"
     inkscape:pageopacity="0"
     inkscape:pagecheckerboard="1"
     showgrid="false"
     width="50px"
     inkscape:zoom="1.625"
     inkscape:cx="92"
     inkscape:cy="160.92308"
     inkscape:window-width="1920"
     inkscape:window-height="1017"
     inkscape:window-x="-8"
     inkscape:window-y="80"
     inkscape:window-maximized="1"
     inkscape:current-layer="svg6" />
  <rect
     width="50"
     height="50"
     fill="#35465c"
     rx="1.4648439%"
     id="rect2"
     x="0"
     y="0"
     style="stroke-width:0.0976562" />
  <path
     fill="#ffffff"
     d="m 35.253906,40.527344 c -1.171874,1.269531 -3.90625,2.050781 -6.347655,2.050781 h -0.29297 c -8.300781,0 -10.058593,-5.957031 -10.058593,-9.570313 v -9.960937 h -3.417969 c -0.292969,0 -0.585937,-0.292969 -0.585937,-0.78125 v -4.589844 c 0,-0.585937 0.292968,-0.976562 0.683593,-1.074219 4.296875,-1.660156 5.566407,-5.273437 5.859375,-8.1054682 0,-0.7812501 0.488282,-1.0742188 1.171875,-1.0742188 h 4.882813 c 0.390625,0 0.585937,0.2929687 0.585937,0.5859375 v 8.0078125 h 5.664063 c 0.488281,0 0.78125,0.292969 0.78125,0.78125 v 5.46875 c 0,0.390625 -0.292969,0.683594 -0.78125,0.683594 h -5.664063 v 9.179687 c 0,2.34375 1.562501,2.929688 2.441407,2.929688 0.976563,0 1.757812,-0.195313 2.246094,-0.390625 0.781249,-0.390625 1.269531,0.09766 1.367187,0.390625 l 1.464843,4.394531 c 0.195313,0.390625 0.29297,0.78125 0,1.074219 z"
     id="path4"
     style="stroke-width:0.0976562" />
</svg>
