<svg xmlns="http://www.w3.org/2000/svg" xmlns:svg="http://www.w3.org/2000/svg" id="svg6" width="50" height="50" version="1.1"><rect id="rect2" width="50" height="50" x="0" y="0" fill="#35465c" rx="1.465%" style="stroke-width:.0976562"/><path id="path4" fill="#fff" d="m 35.253906,40.527344 c -1.171874,1.269531 -3.90625,2.050781 -6.347655,2.050781 h -0.29297 c -8.300781,0 -10.058593,-5.957031 -10.058593,-9.570313 v -9.960937 h -3.417969 c -0.292969,0 -0.585937,-0.292969 -0.585937,-0.78125 v -4.589844 c 0,-0.585937 0.292968,-0.976562 0.683593,-1.074219 4.296875,-1.660156 5.566407,-5.273437 5.859375,-8.1054682 0,-0.7812501 0.488282,-1.0742188 1.171875,-1.0742188 h 4.882813 c 0.390625,0 0.585937,0.2929687 0.585937,0.5859375 v 8.0078125 h 5.664063 c 0.488281,0 0.78125,0.292969 0.78125,0.78125 v 5.46875 c 0,0.390625 -0.292969,0.683594 -0.78125,0.683594 h -5.664063 v 9.179687 c 0,2.34375 1.562501,2.929688 2.441407,2.929688 0.976563,0 1.757812,-0.195313 2.246094,-0.390625 0.781249,-0.390625 1.269531,0.09766 1.367187,0.390625 l 1.464843,4.394531 c 0.195313,0.390625 0.29297,0.78125 0,1.074219 z" style="stroke-width:.0976562"/></svg>