<svg xmlns="http://www.w3.org/2000/svg" xmlns:svg="http://www.w3.org/2000/svg" id="Capa_1" width="50" height="50" x="0" y="0" version="1.1" viewBox="0 0 50 50" xml:space="preserve"><g id="g10" transform="matrix(0.10204082,0,0,0.10204092,0,2.8585151e-6)"><path id="path2" d="M 445.06,154.352 C 410.115,77.368 333.233,26.827 248.63,25.425 160.869,23.971 81.118,74.518 44.916,154.355 19.6,157.729 0,179.451 0,205.675 v 78.647 c 0,26.227 19.604,47.95 44.924,51.321 35.593,78.523 113.525,128.962 200.076,128.962 86.558,0 164.489,-50.435 200.077,-128.963 C 470.396,332.271 490,310.548 490,284.322 v -78.647 c 0,-26.232 -19.613,-47.959 -44.94,-51.323 z M 248.32,44.113 c 74.364,1.232 142.218,43.957 175.786,109.772 H 65.871 C 100.599,85.593 171.068,42.833 248.32,44.113 Z M 245,445.915 c -76.138,0 -144.986,-42.66 -179.12,-109.803 H 424.12 C 389.989,403.255 321.144,445.915 245,445.915 Z M 471.31,284.322 c 0,18.252 -14.848,33.1 -33.1,33.1 H 51.79 c -18.252,0 -33.1,-14.848 -33.1,-33.1 v -78.647 c 0,-18.252 14.848,-33.1 33.1,-33.1 h 386.42 c 18.252,0 33.1,14.848 33.1,33.1 z"/><polygon id="polygon4" points="43.403 209.152 70.936 290.094 94.252 290.094 109.302 246.011 124.195 290.094 147.667 290.094 175.2 209.152 151.728 209.152 135.931 258.049 120.134 209.152 98.323 209.152 82.526 258.049 66.729 209.152"/><polygon id="polygon6" points="179.106 209.152 206.639 290.094 229.955 290.094 245.005 246.011 259.898 290.094 283.369 290.094 310.903 209.152 287.431 209.152 271.634 258.049 255.837 209.152 234.026 209.152 218.228 258.049 202.432 209.152"/><polygon id="polygon8" points="314.809 209.152 342.342 290.094 365.658 290.094 380.708 246.011 395.601 290.094 419.072 290.094 446.605 209.152 423.134 209.152 407.337 258.049 391.539 209.152 369.729 209.152 353.931 258.049 338.135 209.152"/></g></svg>