<svg xmlns="http://www.w3.org/2000/svg" id="Capa_1" width="50" height="50" x="0" y="0" version="1.1" xml:space="preserve">
  <g id="g10" transform="scale(.10204)">
    <path id="path2" d="M445.06 154.352C410.115 77.368 333.233 26.827 248.63 25.425c-87.761-1.454-167.512 49.093-203.714 128.93C19.6 157.729 0 179.451 0 205.675v78.647c0 26.227 19.604 47.95 44.924 51.321C80.517 414.166 158.449 464.605 245 464.605c86.558 0 164.489-50.435 200.077-128.963 25.319-3.371 44.923-25.094 44.923-51.32v-78.647c0-26.232-19.613-47.959-44.94-51.323zM248.32 44.113c74.364 1.232 142.218 43.957 175.786 109.772H65.871C100.599 85.593 171.068 42.833 248.32 44.113ZM245 445.915c-76.138 0-144.986-42.66-179.12-109.803h358.24C389.989 403.255 321.144 445.915 245 445.915Zm226.31-161.593c0 18.252-14.848 33.1-33.1 33.1H51.79c-18.252 0-33.1-14.848-33.1-33.1v-78.647c0-18.252 14.848-33.1 33.1-33.1h386.42c18.252 0 33.1 14.848 33.1 33.1z"/>
    <path id="polygon4" d="m43.403 209.152 27.533 80.942h23.316l15.05-44.083 14.893 44.083h23.472l27.533-80.942h-23.472l-15.797 48.897-15.797-48.897H98.323l-15.797 48.897-15.797-48.897z"/>
    <path id="polygon6" d="m179.106 209.152 27.533 80.942h23.316l15.05-44.083 14.893 44.083h23.471l27.534-80.942h-23.472l-15.797 48.897-15.797-48.897h-21.811l-15.798 48.897-15.796-48.897z"/>
    <path id="polygon8" d="m314.809 209.152 27.533 80.942h23.316l15.05-44.083 14.893 44.083h23.471l27.533-80.942h-23.471l-15.797 48.897-15.798-48.897h-21.81l-15.798 48.897-15.796-48.897z"/>
  </g>
</svg>